<?xml version="1.0" encoding="UTF-8" standalone="no"?>
<svg
   xmlns:dc="http://purl.org/dc/elements/1.1/"
   xmlns:cc="http://creativecommons.org/ns#"
   xmlns:rdf="http://www.w3.org/1999/02/22-rdf-syntax-ns#"
   xmlns:svg="http://www.w3.org/2000/svg"
   xmlns="http://www.w3.org/2000/svg"
   viewBox="0 0 376.25 622.5"
   height="622.5"
   width="376.25"
   xml:space="preserve"
   version="1.1"
   id="svg3159"><metadata
     id="metadata3165"><rdf:RDF><cc:Work
         rdf:about=""><dc:format>image/svg+xml</dc:format><dc:type
           rdf:resource="http://purl.org/dc/dcmitype/StillImage" /><dc:title></dc:title></cc:Work></rdf:RDF></metadata><defs
     id="defs3163" /><g
     transform="matrix(1.25,0,0,-1.25,0,622.5)"
     id="g3167"><g
       transform="scale(0.1,0.1)"
       id="g3169"><path
         id="path3171"
         style="fill:#ffffff;fill-opacity:1;fill-rule:nonzero;stroke:none"
         d="m 3000.93,4973.46 c 0,-9.21 0,-4951.3428 0,-4960.5577 -9.2,0 -2978.0862,0 -2987.2855,0 0,9.2149 0,4951.3477 0,4960.5577 9.1993,0 2978.0855,0 2987.2855,0" /><path
         id="path3173"
         style="fill:none;stroke:#231f20;stroke-width:8.68200016;stroke-linecap:butt;stroke-linejoin:miter;stroke-miterlimit:3.86370993;stroke-dasharray:none;stroke-opacity:1"
         d="m 3000.93,4973.46 c 0,-9.21 0,-4951.3428 0,-4960.5577 -9.2,0 -2978.0862,0 -2987.2855,0 0,9.2149 0,4951.3477 0,4960.5577 9.1993,0 2978.0855,0 2987.2855,0 z" /><path
         id="path3175"
         style="fill:#231f20;fill-opacity:1;fill-rule:nonzero;stroke:none"
         d="m 299.594,3945.19 c 0,-162.33 114.582,-287.32 279.511,-287.32 165.782,0 290.786,122.39 290.786,303.81 0,170.14 -125.004,286.46 -273.43,286.46 -197.91,0 -296.867,-155.39 -296.867,-302.95 l 0,0 z m 83.336,25.17 c 0,165.79 87.668,258.67 189.226,258.67 126.731,0 214.403,-111.1 214.403,-300.33 0,-161.45 -85.067,-251.74 -188.364,-251.74 -130.203,0 -215.265,125.87 -215.265,293.4 l 0,0" /><path
         id="path3177"
         style="fill:#231f20;fill-opacity:1;fill-rule:nonzero;stroke:none"
         d="m 974.051,4094.02 c -17.586,0 -26.688,1.3 -36.461,16.28 l -6.512,0 c -1.301,-33.2 -5.203,-74.86 -7.805,-114.57 l 9.762,0 c 9.121,28.64 19.531,46.87 27.34,57.93 9.766,13.02 25.387,26.04 83.325,26.04 l 33.85,0 0,-314.41 c 0,-70.31 -5.21,-78.13 -66.39,-85.29 l 0,-9.11 187.47,0 0,9.11 c -63.79,7.16 -69,14.98 -69,85.29 l 0,314.41 48.17,0 c 39.71,0 59.24,-9.11 69.65,-22.13 9.76,-12.37 16.93,-30.6 27.99,-61.84 l 9.77,1.95 c -3.26,37.76 -6.51,85.28 -7.16,112.62 l -6.52,0 c -10.41,-12.37 -16.26,-16.28 -33.19,-16.28 l -264.289,0 0,0" /><path
         id="path3179"
         style="fill:#231f20;fill-opacity:1;fill-rule:nonzero;stroke:none"
         d="m 1446.77,3670.89 0,9.11 -13.66,3.25 c -35.15,7.82 -41.02,15.63 -31.25,54.69 6.51,26.04 22.78,76.82 30.6,96.99 l 139.3,0 c 18.89,-50.12 37.76,-100.89 42.31,-116.52 5.86,-20.18 3.91,-26.69 -19.52,-32.55 l -21.49,-5.86 0,-9.11 155.59,0 0,9.11 c -40.36,9.77 -48.83,14.98 -69.67,68.36 -26.02,66.4 -54.67,149.07 -86.56,231.09 l -48.17,124.34 -8.46,-2.61 -133.46,-343.06 c -24.73,-63.14 -32.54,-67.7 -74.86,-78.12 l 0,-9.11 139.3,0 0,0 z m 54.04,349.58 1.3,0 62.5,-166.01 -125.64,0 61.84,166.01 0,0" /><path
         id="path3181"
         style="fill:#231f20;fill-opacity:1;fill-rule:nonzero;stroke:none"
         d="m 2164.43,3985.96 c -5.19,44.92 -8.45,78.77 -10.41,100.9 -22.77,5.87 -67.7,16.93 -124.32,16.93 -123.04,0 -240.22,-78.77 -240.22,-225.9 0,-127.58 99.6,-216.76 236.31,-216.76 48.82,0 101.55,14.96 141.91,26.03 -3.27,14.98 -3.91,35.81 -3.91,59.24 l 0,44.27 c 0,45.57 2.6,50.78 39.06,59.89 l 0,9.11 -164.69,0 0,-9.11 c 70.95,-8.46 73.55,-16.27 73.55,-59.89 l 0,-62.49 c 0,-29.95 -9.11,-36.46 -24.09,-42.97 -14.32,-6.51 -35.15,-9.76 -58.59,-9.76 -128.89,0 -175.75,115.87 -175.75,214.82 0,123.03 64.44,199.2 162.74,199.2 60.54,0 114.57,-22.79 138.65,-105.46 l 9.76,1.95 0,0" /><path
         id="path3183"
         style="fill:#231f20;fill-opacity:1;fill-rule:nonzero;stroke:none"
         d="m 2289.73,3876.6 c 0,-121.74 85.93,-215.47 209.62,-215.47 124.33,0 218.07,91.78 218.07,227.83 0,127.6 -93.74,214.83 -205.05,214.83 -148.42,0 -222.64,-116.52 -222.64,-227.19 l 0,0 z m 62.5,18.88 c 0,124.33 65.75,193.99 141.9,193.99 95.05,0 160.79,-83.33 160.79,-225.24 0,-121.08 -63.78,-188.78 -141.25,-188.78 -97.63,0 -161.44,94.39 -161.44,220.03 l 0,0" /><path
         id="path3185"
         style="fill:#231f20;fill-opacity:1;fill-rule:nonzero;stroke:none"
         d="m 1467.98,4307.95 c -5.43,0 -13.31,-1.82 -20.53,-6.08 -11.67,-6.91 -23.5,-21.53 -23.5,-43.54 0,-11.99 5.59,-25.63 23.16,-25.63 8.22,0 19.39,4.76 26.45,11.17 11.01,9.7 17.42,25.8 17.42,40.42 0,13.63 -8.38,23.66 -23,23.66 l 0,0 z m -5.59,-7.07 c 6.57,0 10.84,-5.92 10.84,-18.08 0.33,-21.67 -9.53,-40.24 -15.77,-42.38 -1.14,-0.33 -2.3,-0.65 -3.94,-0.65 -7.56,0 -11.83,8.05 -11.83,20.69 0,24.82 10.68,37.3 15.77,39.43 1.48,0.66 3.13,0.99 4.93,0.99 l 0,0" /><path
         id="path3187"
         style="fill:#231f20;fill-opacity:1;fill-rule:nonzero;stroke:none"
         d="m 1593.45,4304 c 4.93,31.55 8.55,38.45 13.15,38.45 3.94,0 8.04,-2.15 12,-5.91 1.64,-1.66 4.26,-1.49 5.91,0 1.48,1.3 4.1,4.1 4.1,7.55 0,3.94 -4.43,7.23 -10.68,7.23 -10.51,0 -20.86,-6.41 -27.59,-13.97 -7.06,-8.05 -11.34,-19.71 -13.64,-33.35 l -10.02,0 -4.76,-5.09 0.48,-1.65 12.99,0 c -2.14,-14.29 -3.95,-27.1 -6.91,-47.47 -4.27,-28.91 -7.22,-39.76 -9.68,-42.23 -1.32,-1.31 -2.64,-1.97 -4.12,-1.97 -1.96,0 -5.58,1.97 -7.72,2.96 -1.97,0.83 -3.77,0 -4.92,-1.15 -1.48,-1.31 -3.13,-4.43 -3.13,-7.23 0,-3.78 4.11,-5.26 7.07,-5.26 3.61,0 11.5,2.63 19.05,10.68 7.07,7.56 14.96,23.5 21.03,55.37 2.31,11.66 3.95,21.84 6.24,36.3 l 16.6,1.65 3.78,5.09 -19.23,0 0,0" /><path
         id="path3189"
         style="fill:#231f20;fill-opacity:1;fill-rule:nonzero;stroke:none"
         d="m 268.883,4617.85 0,-7.39 c 21.14,-1.59 23.25,-3.18 23.25,-31.72 l 0,-61.04 c 0,-31.18 5.816,-50.2 19.816,-61.57 13.211,-10.83 30.653,-14 47.039,-14 18.496,0 37.254,7.13 48.887,19.81 14.527,15.6 19.289,37.53 19.289,63.16 l 0,18.76 c 0,30.12 1.324,44.93 2.375,52.85 1.328,9.51 8.191,13.22 21.41,13.75 l 0,7.39 -64.48,0 0,-7.39 c 16.914,-1.06 24.312,-4.24 25.629,-13.75 1.062,-7.92 2.382,-22.73 2.382,-52.85 l 0,-15.85 c 0,-46.25 -15.859,-70.56 -47.828,-70.56 -31.179,0 -44.918,23.52 -44.918,65.54 l 0,55.75 c 0,28.54 2.11,30.13 21.664,31.72 l 0,7.39 -74.515,0 0,0" /><path
         id="path3191"
         style="fill:#231f20;fill-opacity:1;fill-rule:nonzero;stroke:none"
         d="m 565.301,4617.85 0,-7.39 c 21.672,-1.59 27.484,-7.93 27.484,-38.58 l 0,-51.8 c 0,-30.12 -1.32,-44.92 -2.383,-52.85 -1.32,-9.51 -8.191,-13.21 -21.398,-13.74 l 0,-7.4 64.473,0 0,7.4 c -16.911,1.05 -24.309,4.23 -25.633,13.74 -1.051,7.93 -2.379,22.73 -2.379,52.85 l 0,57.08 0.527,0 108.875,-133.18 12.16,0 0,99.88 c 0,30.12 1.321,44.93 2.375,52.85 1.321,9.51 8.188,13.22 21.403,13.75 l 0,7.39 -64.481,0 0,-7.39 c 16.914,-1.06 24.321,-4.24 25.637,-13.75 1.059,-7.92 2.379,-22.73 2.379,-52.85 l 0,-50.21 -0.527,0 -105.442,124.2 -43.07,0 0,0" /><path
         id="path3193"
         style="fill:#231f20;fill-opacity:1;fill-rule:nonzero;stroke:none"
         d="m 872.039,4617.85 0,-7.39 c 20.609,-1.59 22.723,-3.71 22.723,-32.25 l 0,-92.48 c 0,-28.54 -2.114,-30.65 -22.723,-32.24 l 0,-7.4 74.508,0 0,7.4 c -20.074,1.59 -22.192,3.7 -22.192,32.24 l 0,92.48 c 0,28.54 2.118,30.66 22.192,32.25 l 0,7.39 -74.508,0 0,0" /><path
         id="path3195"
         style="fill:#231f20;fill-opacity:1;fill-rule:nonzero;stroke:none"
         d="m 1063.25,4617.85 0,-7.39 c 14.81,-1.59 19.04,-3.18 28.02,-26.96 10.04,-26.42 35.14,-91.43 53.11,-139 l 11.37,0 c 20.34,53.91 53.11,132.13 55.75,137.41 12.16,24.59 13.21,26.43 30.13,28.55 l 0,7.39 -59.99,0 0,-7.39 7.93,-0.8 c 11.63,-1.32 14.01,-4.49 8.46,-21.4 -4.76,-14.28 -26.96,-74.26 -37.53,-102.53 -16.12,41.22 -36.73,93.54 -42.02,109.93 -3.16,10.3 -2.63,12.15 7.41,13.47 l 8.45,1.33 0,7.39 -71.09,0 0,0" /><path
         id="path3197"
         style="fill:#231f20;fill-opacity:1;fill-rule:nonzero;stroke:none"
         d="m 1358.41,4617.85 0,-7.39 c 20.09,-1.59 22.2,-3.71 22.2,-32.25 l 0,-92.48 c 0,-28.54 -2.11,-30.65 -24.84,-32.24 l 0,-7.4 128.96,0 c 2.11,7.4 7.92,34.35 8.98,43.34 l -7.92,1.59 c -4.5,-12.7 -8.99,-21.68 -13.49,-26.7 -5.55,-6.6 -17.71,-7.66 -30.91,-7.66 -11.1,0 -20.61,0.26 -25.37,3.44 -4.76,3.43 -5.82,10.83 -5.82,26.15 l 0,43.34 22.73,0 c 22.72,0 23.26,-1.05 25.9,-21.93 l 8.45,0 0,56.02 -8.45,0 c -2.64,-20.35 -3.18,-21.93 -25.9,-21.93 l -22.73,0 0,56.02 c 0,9.51 0.53,9.51 10.58,9.51 l 13.21,0 c 16.38,0 24.84,-1.58 29.33,-6.07 3.96,-3.96 7.13,-11.37 9.77,-24.05 l 7.94,0.53 c -1.59,16.38 -2.65,35.94 -3.17,40.16 l -119.45,0 0,0" /><path
         id="path3199"
         style="fill:#231f20;fill-opacity:1;fill-rule:nonzero;stroke:none"
         d="m 1664.59,4598.3 c 0,8.45 0.54,9.51 13.22,9.51 16.91,0 35.94,-9.51 35.94,-36.99 0,-12.68 -3.7,-25.37 -14.27,-33.83 -6.87,-5.28 -14.27,-6.87 -24.83,-6.87 l -10.06,0 0,68.18 z m -51.26,19.55 0,-7.39 c 20.09,-1.59 22.21,-3.71 22.21,-32.25 l 0,-92.48 c 0,-28.54 -2.12,-30.65 -23.27,-32.24 l 0,-7.4 74.53,0 0,7.4 c -20.09,1.59 -22.21,3.7 -22.21,32.24 l 0,35.41 8.46,0 c 7.93,0 11.11,-2.65 15.34,-10.05 7.66,-13.73 16.37,-30.65 24.82,-42.8 10.31,-14.8 19.3,-22.2 48.1,-24.31 l 11.1,-0.53 1.06,6.87 c -7.66,1.85 -11.89,5.81 -18.24,12.15 -5.02,5.28 -11.89,14.8 -21.93,29.34 -8.45,11.89 -18.76,30.39 -22.99,37.78 21.41,7.93 35.15,23.52 35.15,45.72 0,15.59 -7.14,26.69 -17.44,33.56 -10.57,6.86 -24.31,8.98 -43.6,8.98 l -71.09,0 0,0" /><path
         id="path3201"
         style="fill:#231f20;fill-opacity:1;fill-rule:nonzero;stroke:none"
         d="m 1991.45,4579 c -2.65,14.81 -4.24,26.43 -5.29,35.69 -3.18,1.31 -6.87,1.85 -11.1,3.43 -7.39,2.64 -16.91,3.7 -24.05,3.7 -35.4,0 -56.28,-22.73 -56.28,-50.48 0,-25.89 22.2,-39.9 39.63,-48.88 l 8.46,-4.23 c 20.88,-10.3 28.01,-20.87 28.01,-35.67 0,-16.38 -10.57,-29.86 -27.74,-29.86 -27.22,0 -41.49,29.33 -46.78,43.07 l -7.92,-2.64 c 2.65,-16.12 5.81,-34.09 7.92,-40.96 3.17,-1.06 7.94,-3.17 15.33,-5.55 6.87,-2.38 16.39,-4.49 26.43,-4.49 35.66,0 60.25,22.19 60.25,53.64 0,27.48 -19.03,41.49 -39.64,50.73 l -6.87,3.18 c -20.35,9.25 -30.92,19.03 -30.92,33.82 0,15.06 9.51,27.75 26.96,27.75 22.19,0 30.38,-18.5 35.13,-33.82 l 8.47,1.57 0,0" /><path
         id="path3203"
         style="fill:#231f20;fill-opacity:1;fill-rule:nonzero;stroke:none"
         d="m 2123.77,4617.85 0,-7.39 c 20.62,-1.59 22.73,-3.71 22.73,-32.25 l 0,-92.48 c 0,-28.54 -2.11,-30.65 -22.73,-32.24 l 0,-7.4 74.52,0 0,7.4 c -20.08,1.59 -22.19,3.7 -22.19,32.24 l 0,92.48 c 0,28.54 2.11,30.66 22.19,32.25 l 0,7.39 -74.52,0 0,0" /><path
         id="path3205"
         style="fill:#231f20;fill-opacity:1;fill-rule:nonzero;stroke:none"
         d="m 2329,4576.1 c 3.17,12.69 6.34,19.56 9.52,23.26 4.23,4.75 11.1,7.92 33.82,7.92 l 8.97,0 0,-121.55 c 0,-28.54 -2.1,-30.65 -25.36,-32.24 l 0,-7.4 81.39,0 0,7.4 c -24.3,1.59 -26.42,3.7 -26.42,32.24 l 0,121.55 13.74,0 c 16.38,0 24.84,-1.58 29.34,-6.6 3.95,-3.97 7.12,-10.84 9.76,-24.58 l 7.94,0.53 c -1.59,16.91 -2.65,37 -3.17,48.09 l -4.23,0 c -4.23,-5.28 -5.82,-6.87 -12.68,-6.87 l -108.87,0 c -7.41,0 -10.04,0.53 -13.75,6.87 l -4.76,0 c -0.52,-13.74 -2.11,-31.18 -3.17,-48.62 l 7.93,0 0,0" /><path
         id="path3207"
         style="fill:#231f20;fill-opacity:1;fill-rule:nonzero;stroke:none"
         d="m 2584.2,4617.85 0,-7.39 c 13.74,-1.59 15.05,-2.38 26.43,-22.2 17.44,-30.12 26.95,-46.78 35.41,-62.63 3.95,-7.4 3.69,-8.72 3.69,-14.27 l 0,-25.63 c 0,-28.54 -2.11,-30.65 -24.84,-32.24 l 0,-7.4 80.34,0 0,7.4 c -23.78,1.59 -25.9,3.7 -25.9,32.24 l 0,28.27 c 0,8.99 0.79,11.1 3.43,15.86 13.48,26.16 23.26,42.53 33.3,58.4 11.1,17.44 13.47,20.61 29.32,22.2 l 0,7.39 -59.45,0 0,-7.39 10.58,-1.06 c 9.24,-1.06 10.83,-3.7 6.33,-13.74 -7.92,-17.97 -22.45,-46.52 -30.65,-60.52 -10.83,17.44 -27.74,49.41 -34.09,62.11 -4.22,8.45 -3.7,10.56 3.17,11.62 l 11.11,1.59 0,7.39 -68.18,0 0,0" /><path
         id="path3209"
         style="fill:#231f20;fill-opacity:1;fill-rule:nonzero;stroke:none"
         d="m 294.043,4380.33 2489.38,0 0,9.2539 -2489.38,0 0,-9.2539 z" /><path
         id="path3211"
         style="fill:#254a9a;fill-opacity:1;fill-rule:nonzero;stroke:none"
         d="m 2142.63,1844.68 0,270.05 -12.45,-6.23 -211.38,-105.7 0,-289.42 -826.46,0 0,275.64 -223.832,111.93 0,-270.05 61.164,-38.75 -59.426,-78.74 c -0.004,0 -0.012,-0.02 -0.016,-0.03 l -1.722,0 0,-220.37 1274.122,0 0,220.37 -1.71,0 -65.65,88.64 67.36,42.66" /><path
         id="path3213"
         style="fill:#ffffff;fill-opacity:1;fill-rule:nonzero;stroke:none"
         d="m 2119.5,1713.38 c -29.41,39.7 -159.93,215.91 -183.49,247.71 0,-40.73 0,-228.46 0,-247.71 l 183.49,0" /><path
         id="path3215"
         style="fill:#ffffff;fill-opacity:1;fill-rule:nonzero;stroke:none"
         d="m 1075.12,1713.38 c 0,19.05 0,202.87 0,242.94 -23.46,-31.08 -153.655,-203.61 -183.335,-242.94 l 183.335,0" /><path
         id="path3217"
         style="fill:#ffffff;fill-opacity:1;fill-rule:nonzero;stroke:none"
         d="m 2125.42,1696.18 c 0,-15.1 0,-170.88 0,-185.97 -16.86,0 -1222.834,0 -1239.693,0 0,15.09 0,170.87 0,185.97 16.859,0 1222.833,0 1239.693,0" /><path
         id="path3219"
         style="fill:#254a9a;fill-opacity:1;fill-rule:nonzero;stroke:none"
         d="m 1054.46,1632.18 c -6.12,3.57 -12.74,5.35 -19.36,5.35 -15.93,0 -26.37,-7.91 -26.37,-20.29 0,-20.85 37.57,-22.65 37.57,-38.36 0,-4.24 -4.46,-9.59 -14.14,-9.59 -8.53,0 -16.55,3.89 -22.92,11.04 l 0,-13.84 c 7.26,-4.79 14.9,-7.02 24.33,-7.02 14.01,0 24.33,8.71 24.33,20.63 0,24.2 -37.58,23.98 -37.58,38.58 0,5.36 5.73,9.04 13.75,9.04 5.86,0 13,-1.78 20.39,-7.92 l 0,12.38" /><path
         id="path3221"
         style="fill:#254a9a;fill-opacity:1;fill-rule:nonzero;stroke:none"
         d="m 1125.56,1636.98 -8.79,0 -37.32,-76.5 12.74,0 10.95,22.41 36.94,0 11.59,-22.41 12.74,0 -38.85,76.5 0,0 z m -4.59,-16.73 14.01,-27.54 -27,0 12.99,27.54 0,0" /><path
         id="path3223"
         style="fill:#254a9a;fill-opacity:1;fill-rule:nonzero;stroke:none"
         d="m 1190.84,1636.52 0,-76.04 12.49,0 0,32.89 12.99,0 c 20.13,0 29.3,9.37 29.3,21.3 0,12.04 -8.67,21.85 -27.65,21.85 l -27.13,0 0,0 z m 12.49,-9.81 14.64,0 c 11.34,0 14.78,-6.01 14.78,-11.58 0,-7.58 -5.99,-11.94 -15.29,-11.94 l -14.13,0 0,23.52" /><path
         id="path3225"
         style="fill:#254a9a;fill-opacity:1;fill-rule:nonzero;stroke:none"
         d="m 1323.23,1636.52 -49.3,0 0,-76.04 50.45,0 0,9.81 -37.97,0 0,23.64 35.54,0 0,9.82 -35.54,0 0,22.96 36.82,0 0,9.81" /><path
         id="path3227"
         style="fill:#254a9a;fill-opacity:1;fill-rule:nonzero;stroke:none"
         d="m 1355.39,1636.52 0,-76.04 12.49,0 0,33 5.22,0 c 6.36,0 11.59,-1.78 23.06,-17.39 l 11.46,-15.61 14.9,0 c -5.99,7.25 -8.15,9.81 -11.84,15.05 -6.63,9.48 -11.47,16.5 -19.37,21.08 9.3,3.24 14.52,9.81 14.52,18.62 0,13.16 -10.95,21.29 -28.53,21.29 l -21.91,0 0,0 z m 12.49,-9.36 8.02,0 c 12.1,0 16.94,-4.35 17.07,-11.48 0.12,-6.36 -3.7,-12.38 -17.07,-12.38 l -8.02,0 0,23.86" /><path
         id="path3229"
         style="fill:#254a9a;fill-opacity:1;fill-rule:nonzero;stroke:none"
         d="m 1498.84,1636.52 -49.29,0 0,-76.04 50.44,0 0,9.81 -37.95,0 0,23.64 35.53,0 0,9.82 -35.53,0 0,22.96 36.8,0 0,9.81" /><path
         id="path3231"
         style="fill:#254a9a;fill-opacity:1;fill-rule:nonzero;stroke:none"
         d="m 1662.12,1636.98 -8.78,0 -37.33,-76.5 12.74,0 10.95,22.41 36.95,0 11.58,-22.41 12.75,0 -38.86,76.5 0,0 z m -4.59,-16.73 14.02,-27.54 -27,0 12.98,27.54 0,0" /><path
         id="path3233"
         style="fill:#254a9a;fill-opacity:1;fill-rule:nonzero;stroke:none"
         d="m 1798.49,1636.52 -12.49,0 0,-44.26 c 0,-7.13 -1.02,-12.72 -5.48,-16.62 -3.94,-3.45 -10.82,-6.12 -20.38,-6.12 -7.5,0 -13.75,2.11 -18.72,6.45 -3.95,3.48 -5.23,7.04 -5.23,15.62 l 0,44.93 -12.48,0 0,-47.27 c 0,-20.74 17.84,-29.78 36.18,-29.78 25.86,0 38.6,12.27 38.6,30.89 l 0,46.16" /><path
         id="path3235"
         style="fill:#254a9a;fill-opacity:1;fill-rule:nonzero;stroke:none"
         d="m 1833.29,1560.48 33.88,0 c 28.67,0 46.12,18.5 46.12,38.03 0,17.94 -14.15,38.01 -46.25,38.01 l -33.75,0 0,-76.04 z m 12.48,66.23 19.23,0 c 24.34,0 35.43,-12.94 35.43,-28.2 0,-9.37 -6.5,-28.22 -34.79,-28.22 l -19.87,0 0,56.42" /><path
         id="path3237"
         style="fill:#254a9a;fill-opacity:1;fill-rule:nonzero;stroke:none"
         d="m 1995.51,1636.52 -49.3,0 0,-76.04 50.45,0 0,9.81 -37.97,0 0,23.64 35.55,0 0,9.82 -35.55,0 0,22.96 36.82,0 0,9.81" /><path
         id="path3239"
         style="fill:#231f20;fill-opacity:1;fill-rule:nonzero;stroke:none"
         d="m 174.699,1110.54 c -6.293,0 -9.32,0.48 -11.652,5.84 l -2.57,0 c -2.797,-11.9 -6.989,-26.83 -10.961,-41.05 l 3.5,0 c 5.601,10.73 10.031,17.73 14.461,22.16 4.425,4.43 11.421,7.92 32.179,7.92 l 10.496,0 L 188.93,992.551 C 184.031,966.207 181.695,964.563 159.777,962 l -0.695,-3.031 66.922,0 0.703,3.031 c -22.855,2.563 -24.254,4.207 -19.363,30.551 l 21.222,112.859 15.864,0 c 14.222,0 21.449,-2.09 24.718,-6.99 3.493,-4.89 5.356,-11.43 6.524,-23.09 l 3.5,0.7 c 1.402,13.52 3.258,30.55 5.129,40.35 l -2.563,0 c -4.664,-4.43 -6.765,-5.84 -12.828,-5.84 l -94.211,0 0,0" /><path
         id="path3241"
         style="fill:#231f20;fill-opacity:1;fill-rule:nonzero;stroke:none"
         d="m 339.969,986.254 c -15.156,-13.293 -26.817,-17.727 -36.606,-17.727 -14.461,0 -17.258,16.797 -17.258,28.688 0,1.164 0,3.735 0.465,6.525 23.321,6.54 61.563,20.52 61.563,41.74 0,9.57 -7.699,17.5 -18.887,17.5 -9.094,0 -24.019,-6.54 -34.047,-14.24 -17.019,-13.04 -27.051,-36.83 -27.051,-58.521 0,-27.516 15.157,-34.043 24.25,-34.043 8.395,0 26.59,2.793 49.903,27.519 l -2.332,2.559 0,0 z m -52.461,22.626 c 4.191,28.21 16.555,39.64 20.984,42.2 3.031,1.87 7.223,3.27 10.957,3.27 6.063,0 11.895,-3.96 11.656,-12.83 0,-12.12 -10.257,-22.86 -43.597,-32.64 l 0,0" /><path
         id="path3243"
         style="fill:#231f20;fill-opacity:1;fill-rule:nonzero;stroke:none"
         d="m 493.809,1110.54 -52.704,0 0,-3.26 c 14.461,-3.03 15.165,-3.26 18.192,-26.35 l 16.324,-125.457 3.262,0 58.996,116.367 0.465,0 21.457,-116.367 3.496,0 c 31.246,66.227 55.262,120.097 61.098,129.887 10.488,17.49 10.726,19.12 26.347,21.92 l 0,3.26 -48.508,0 0,-3.26 9.098,-1.63 c 6.992,-1.4 8.633,-3.97 5.363,-13.99 -6.3,-19.82 -28.914,-70.89 -44.304,-104.246 l -0.461,0 -21.926,119.396 -2.328,0 -58.067,-118.923 -0.464,0 -13.059,101.203 c -1.633,12.12 -0.699,14.68 6.531,16.09 l 10.488,2.1 0.704,3.26 0,0" /><path
         id="path3245"
         style="fill:#231f20;fill-opacity:1;fill-rule:nonzero;stroke:none"
         d="m 667.109,962.473 c 1.399,12.824 7.231,38.477 9.329,46.867 6.996,12.59 32.871,39.87 45,39.87 7,0 6.304,-7.22 3.5,-19.11 l -12.821,-55.733 c -2.808,-12.367 -1.402,-18.191 3.961,-18.191 3.496,0 22.617,10.488 33.813,22.383 l -2.102,3.031 c -6.992,-5.363 -15.391,-10.258 -17.488,-10.258 -2.332,0 -1.863,2.563 0,10.961 l 12.594,56.207 c 4.894,22.15 -3.5,24.48 -6.997,24.48 -2.562,0 -5.597,-0.7 -9.796,-2.57 -13.059,-5.83 -28.911,-17.02 -46.868,-38.71 l -0.464,0 19.585,93.04 c 1.168,5.83 0.704,9.8 -1.867,9.8 -1.867,0 -18.656,-5.6 -36.843,-9.56 l 0,-2.57 13.293,0 c 7.226,0 7.925,-1.39 5.593,-13.3 L 656.844,991.852 c -2.324,-11.891 -4.656,-23.782 -7.461,-35.676 l 17.726,6.297 0,0" /><path
         id="path3247"
         style="fill:#231f20;fill-opacity:1;fill-rule:nonzero;stroke:none"
         d="m 870.906,982.293 c -7,-5.367 -15.625,-10.961 -17.722,-10.961 -2.098,0 -1.864,2.563 -0.465,10.961 4.429,26.587 10.258,52.927 15.39,76.707 l -0.699,0.95 c -2.566,0 -6.301,0.7 -9.097,1.39 -4.668,0.94 -8.629,1.64 -12.122,1.64 -14.921,0 -33.109,-9.1 -45.711,-19.83 -14.921,-12.82 -25.882,-37.78 -25.882,-62.259 0,-20.051 8.398,-24.715 13.757,-24.715 3.497,0 15.399,7.929 19.122,11.191 11.664,9.559 22.39,20.52 32.183,33.583 l 0.465,0 -6.059,-31.024 c -2.097,-11.188 2.325,-13.75 5.129,-13.75 2.797,0 21.914,10.719 33.805,23.082 l -2.094,3.035 0,0 z m -36.613,71.587 c 6.066,0 11.898,-1.63 15.16,-3.26 -0.699,-8.86 -6.066,-32.88 -9.094,-39.18 -3.968,-8.4 -12.597,-17.96 -18.191,-24.026 -9.324,-9.789 -18.652,-16.785 -22.617,-16.785 -4.43,0 -6.297,6.996 -6.297,16.098 0,8.386 1.867,25.643 7.93,39.163 6.996,15.4 13.757,21.92 19.816,25.19 3.27,1.64 8.402,2.8 13.293,2.8 l 0,0" /><path
         id="path3249"
         style="fill:#231f20;fill-opacity:1;fill-rule:nonzero;stroke:none"
         d="m 919.652,962.473 c 0.465,8.859 3.965,23.781 8.629,46.177 3.262,9.31 7,17.71 13.285,26.34 6.297,8.63 9.797,10.03 12.129,10.03 2.332,0 5.364,-0.94 7.7,-2.8 1.628,-1.39 3.726,-1.39 6.058,0 2.332,1.63 4.438,4.21 5.832,6.99 1.399,2.57 1.399,5.6 0,7.93 -1.871,3.27 -5.832,5.84 -10.496,5.84 -6.059,0 -20.75,-14 -33.113,-39.65 l -0.465,0 3.738,18.66 c 2.563,12.82 3.024,20.99 -2.336,20.99 -5.832,0 -20.527,-10.96 -32.883,-24.02 l 2.333,-3.5 c 5.371,5.13 15.156,11.65 17.722,11.65 1.867,0 1.633,-4.19 -1.164,-17.48 l -7.465,-36.607 c -2.558,-12.363 -5.129,-24.726 -8.164,-36.847 l 18.66,6.297 0,0" /><path
         id="path3251"
         style="fill:#231f20;fill-opacity:1;fill-rule:nonzero;stroke:none"
         d="m 1056.52,986.254 c -15.16,-13.293 -26.81,-17.727 -36.61,-17.727 -14.46,0 -17.25,16.797 -17.25,28.688 0,1.164 0,3.735 0.46,6.525 23.32,6.54 61.56,20.52 61.56,41.74 0,9.57 -7.7,17.5 -18.88,17.5 -9.1,0 -24.03,-6.54 -34.05,-14.24 -17.023,-13.04 -27.055,-36.83 -27.055,-58.521 0,-27.516 15.164,-34.043 24.255,-34.043 8.39,0 26.58,2.793 49.9,27.519 l -2.33,2.559 0,0 z m -52.47,22.626 c 4.2,28.21 16.56,39.64 20.99,42.2 3.03,1.87 7.23,3.27 10.96,3.27 6.06,0 11.89,-3.96 11.66,-12.83 0,-12.12 -10.25,-22.86 -43.61,-32.64 l 0,0" /><path
         id="path3253"
         style="fill:#231f20;fill-opacity:1;fill-rule:nonzero;stroke:none"
         d="m 1210.36,1110.54 -52.7,0 0,-3.26 c 14.46,-3.03 15.16,-3.26 18.18,-26.35 l 16.33,-125.457 3.26,0 58.99,116.367 0.47,0 21.46,-116.367 3.49,0 c 31.25,66.227 55.27,120.097 61.1,129.887 10.49,17.49 10.73,19.12 26.35,21.92 l 0,3.26 -48.5,0 0,-3.26 9.09,-1.63 c 7,-1.4 8.63,-3.97 5.37,-13.99 -6.3,-19.82 -28.91,-70.89 -44.31,-104.246 l -0.47,0 -21.91,119.396 -2.34,0 -58.06,-118.923 -0.46,0 -13.06,101.203 c -1.63,12.12 -0.7,14.68 6.52,16.09 l 10.5,2.1 0.7,3.26 0,0" /><path
         id="path3255"
         style="fill:#231f20;fill-opacity:1;fill-rule:nonzero;stroke:none"
         d="m 1439.61,982.293 c -6.99,-5.367 -15.62,-10.961 -17.72,-10.961 -2.09,0 -1.87,2.563 -0.46,10.961 4.43,26.587 10.25,52.927 15.39,76.707 l -0.7,0.95 c -2.57,0 -6.3,0.7 -9.1,1.39 -4.66,0.94 -8.63,1.64 -12.13,1.64 -14.92,0 -33.11,-9.1 -45.7,-19.83 -14.92,-12.82 -25.89,-37.78 -25.89,-62.259 0,-20.051 8.4,-24.715 13.77,-24.715 3.49,0 15.38,7.929 19.12,11.191 11.66,9.559 22.38,20.52 32.17,33.583 l 0.48,0 -6.06,-31.024 c -2.11,-11.188 2.32,-13.75 5.11,-13.75 2.81,0 21.93,10.719 33.82,23.082 l -2.1,3.035 0,0 z M 1403,1053.88 c 6.06,0 11.89,-1.63 15.17,-3.26 -0.71,-8.86 -6.07,-32.88 -9.11,-39.18 -3.96,-8.4 -12.59,-17.96 -18.18,-24.026 -9.33,-9.789 -18.65,-16.785 -22.62,-16.785 -4.43,0 -6.3,6.996 -6.3,16.098 0,8.386 1.87,25.643 7.93,39.163 7,15.4 13.76,21.92 19.82,25.19 3.27,1.64 8.4,2.8 13.29,2.8 l 0,0" /><path
         id="path3257"
         style="fill:#231f20;fill-opacity:1;fill-rule:nonzero;stroke:none"
         d="m 1475.77,962.473 c 1.16,12.824 7.22,38.477 8.85,44.077 7,13.29 34.99,42.66 46.63,42.9 6.77,0 5.6,-7.46 2.81,-19.35 l -13.52,-55.963 c -3.04,-12.364 -2.11,-17.961 3.49,-17.961 3.51,0 21.92,10.488 33.35,22.851 l -1.87,3.036 c -6.3,-5.364 -15.15,-10.731 -17.49,-10.731 -1.63,0 -1.4,2.563 0.48,10.961 4.41,19.117 8.86,38.007 13.27,55.027 6.07,23.33 -2.09,25.66 -5.82,25.66 -2.33,0 -6.07,-0.7 -10.73,-2.8 -10.26,-4.67 -27.75,-16.33 -47.33,-40.58 l -0.7,0 5.36,22.39 c 3.03,12.82 3.74,20.99 -2.8,20.99 -4.66,0 -21.45,-10.96 -34.04,-24.25 l 2.1,-3.27 c 5.83,5.83 15.16,11.65 17.72,11.65 2.1,0 1.4,-4.19 -0.93,-14.22 l -8.63,-38.476 c -3.5,-15.156 -5.6,-25.644 -8.86,-38.238 l 18.66,6.297 0,0" /><path
         id="path3259"
         style="fill:#231f20;fill-opacity:1;fill-rule:nonzero;stroke:none"
         d="m 1679.54,982.293 c -6.99,-5.367 -15.62,-10.961 -17.72,-10.961 -2.11,0 -1.87,2.563 -0.48,10.961 4.44,26.587 10.28,52.927 15.4,76.707 l -0.7,0.95 c -2.56,0 -6.3,0.7 -9.09,1.39 -4.66,0.94 -8.63,1.64 -12.13,1.64 -14.93,0 -33.11,-9.1 -45.71,-19.83 -14.92,-12.82 -25.88,-37.78 -25.88,-62.259 0,-20.051 8.4,-24.715 13.76,-24.715 3.49,0 15.39,7.929 19.12,11.191 11.66,9.559 22.38,20.52 32.18,33.583 l 0.48,0 -6.07,-31.024 c -2.11,-11.188 2.33,-13.75 5.12,-13.75 2.81,0 21.92,10.719 33.81,23.082 l -2.09,3.035 0,0 z m -36.61,71.587 c 6.06,0 11.89,-1.63 15.15,-3.26 -0.7,-8.86 -6.05,-32.88 -9.09,-39.18 -3.96,-8.4 -12.59,-17.96 -18.2,-24.026 -9.31,-9.789 -18.64,-16.785 -22.61,-16.785 -4.43,0 -6.29,6.996 -6.29,16.098 0,8.386 1.86,25.643 7.93,39.163 6.99,15.4 13.76,21.92 19.81,25.19 3.26,1.64 8.4,2.8 13.3,2.8 l 0,0" /><path
         id="path3261"
         style="fill:#231f20;fill-opacity:1;fill-rule:nonzero;stroke:none"
         d="m 1727.35,962.473 c 1.17,12.824 7.22,38.477 8.85,44.077 7,13.29 34.99,42.66 46.65,42.9 6.76,0 5.6,-7.46 2.79,-19.35 l -13.52,-55.963 c -3.03,-12.364 -2.1,-17.961 3.51,-17.961 3.49,0 21.91,10.488 33.34,22.851 l -1.86,3.036 c -6.31,-5.364 -15.17,-10.731 -17.5,-10.731 -1.63,0 -1.4,2.563 0.47,10.961 4.44,19.117 8.86,38.007 13.29,55.027 6.06,23.33 -2.1,25.66 -5.83,25.66 -2.34,0 -6.06,-0.7 -10.72,-2.8 -10.26,-4.67 -27.76,-16.33 -47.35,-40.58 l -0.69,0 5.35,22.39 c 3.04,12.82 3.74,20.99 -2.79,20.99 -4.66,0 -21.45,-10.96 -34.04,-24.25 l 2.09,-3.27 c 5.84,5.83 15.15,11.65 17.73,11.65 2.09,0 1.4,-4.19 -0.93,-14.22 l -8.63,-38.476 c -3.5,-15.156 -5.59,-25.644 -8.87,-38.238 l 18.66,6.297 0,0" /><path
         id="path3263"
         style="fill:#231f20;fill-opacity:1;fill-rule:nonzero;stroke:none"
         d="m 1886.36,1032.19 c 0,-22.85 -14,-37.776 -25.19,-37.776 -8.63,0 -15.4,7.926 -15.4,24.476 0,10.28 2.34,19.84 6.3,25.89 4.89,7.7 10.26,10.73 17.03,10.73 12.35,0 17.26,-10.03 17.26,-23.32 l 0,0 z m -34.99,-74.151 c 2.56,-1.16 8.16,-4.668 15.86,-9.328 10.73,-6.527 17.95,-13.051 17.95,-20.523 0,-12.36 -16.08,-18.184 -28.67,-18.184 -14.7,0 -30.32,5.824 -30.32,20.75 0,10.5 7.92,20.059 25.18,27.285 l 0,0 z m 71.59,104.001 c -4.9,-2.09 -11.89,-3.5 -30.08,-4.9 -4.43,3.74 -10.03,5.84 -16.56,5.84 -7.46,0 -20.52,-4.91 -30.55,-13.06 -11.66,-9.56 -17.71,-23.33 -17.71,-36.15 0,-14.922 9.08,-24.25 22.85,-27.286 -10.97,-7.226 -14.46,-10.031 -14.46,-13.05 0,-2.332 3.26,-7.469 10.73,-12.133 -26.13,-13.524 -39.18,-24.012 -39.18,-34.742 0,-16.329 20.52,-24.024 38.71,-24.024 15.16,0 52.92,9.57 52.92,32.883 0,8.168 -6.98,17.496 -23.31,27.285 -10.03,6.067 -23.55,12.82 -23.55,18.188 0,2.101 1.63,3.73 4.67,5.132 13.99,6.297 24.48,10.493 30.08,15.627 6.99,6.76 15.85,17.24 15.85,33.57 0,4.44 -0.93,8.86 -3.02,12.83 2.32,0.24 3.49,0.24 4.19,0.24 5.83,0.92 12.35,4.43 19.82,11.19 l -1.4,2.56 0,0" /><path
         id="path3265"
         style="fill:#231f20;fill-opacity:1;fill-rule:nonzero;stroke:none"
         d="m 2026.22,982.293 c -7,-5.367 -15.63,-10.961 -17.72,-10.961 -2.1,0 -1.87,2.563 -0.47,10.961 4.43,26.587 10.26,52.927 15.4,76.707 l -0.7,0.95 c -2.57,0 -6.3,0.7 -9.1,1.39 -4.67,0.94 -8.63,1.64 -12.13,1.64 -14.92,0 -33.11,-9.1 -45.7,-19.83 -14.92,-12.82 -25.88,-37.78 -25.88,-62.259 0,-20.051 8.4,-24.715 13.75,-24.715 3.5,0 15.4,7.929 19.13,11.191 11.65,9.559 22.38,20.52 32.18,33.583 l 0.46,0 -6.07,-31.024 c -2.09,-11.188 2.33,-13.75 5.14,-13.75 2.8,0 21.92,10.719 33.81,23.082 l -2.1,3.035 0,0 z m -36.61,71.587 c 6.06,0 11.89,-1.63 15.16,-3.26 -0.7,-8.86 -6.07,-32.88 -9.1,-39.18 -3.97,-8.4 -12.58,-17.96 -18.19,-24.026 -9.33,-9.789 -18.64,-16.785 -22.61,-16.785 -4.43,0 -6.29,6.996 -6.29,16.098 0,8.386 1.86,25.643 7.92,39.163 7,15.4 13.76,21.92 19.82,25.19 3.26,1.64 8.39,2.8 13.29,2.8 l 0,0" /><path
         id="path3267"
         style="fill:#231f20;fill-opacity:1;fill-rule:nonzero;stroke:none"
         d="m 2173.33,1062.98 c -6.06,0 -15.15,-2.8 -24.71,-8.4 -16.1,-9.56 -33.58,-31.25 -33.58,-63.889 0,-16.324 7.69,-34.515 28.92,-34.515 10.01,0 24.71,6.758 34.5,15.625 15.39,13.984 24.49,38.009 24.49,58.749 0,19.37 -10.26,32.43 -29.62,32.43 l 0,0 z m 11.42,-35.44 c 0.47,-31.024 -15.61,-58.77 -25.17,-62.505 -2.33,-0.93 -4.67,-1.633 -7.24,-1.633 -13.75,0 -19.12,13.77 -19.12,32.883 0,35.215 16.8,54.335 24.49,57.595 2.1,0.93 4.89,1.86 7.92,1.86 11.43,0 19.12,-9.09 19.12,-28.2 l 0,0" /><path
         id="path3269"
         style="fill:#231f20;fill-opacity:1;fill-rule:nonzero;stroke:none"
         d="m 2298.5,1021.47 c 0,-39.177 25.18,-65.997 63.66,-65.997 50.14,0 87.44,41.742 87.44,91.887 0,38.93 -24.95,66.69 -64.13,66.69 -50.13,0 -86.97,-42.91 -86.97,-92.58 l 0,0 z m 21.45,-1.63 c 0,38.48 22.16,89.07 64.36,89.07 33.11,0 43.84,-29.85 43.84,-60.86 0,-37.54 -21.22,-87.448 -63.66,-87.448 -31.48,0 -44.54,27.984 -44.54,59.238 l 0,0" /><path
         id="path3271"
         style="fill:#231f20;fill-opacity:1;fill-rule:nonzero;stroke:none"
         d="M 2496.45,1050.39 2482,982.293 c -3.73,-17.957 0.23,-26.117 4.65,-26.117 10.73,0 31.25,18.418 38.25,27.519 l -2.56,2.789 c -5.14,-4.894 -17.26,-15.855 -22.15,-15.855 -3.04,0 -3.26,6.07 -0.93,17.027 l 13.52,62.734 24.94,0.93 6.77,6.07 -29.85,0 7.47,30.3 -2.11,1.4 -17.02,-13.99 -4.43,-17.71 -15.86,0 -6.05,-4.67 0.69,-2.33 19.12,0 0,0" /><path
         id="path3273"
         style="fill:#231f20;fill-opacity:1;fill-rule:nonzero;stroke:none"
         d="m 2646.36,982.293 c -7,-5.367 -15.63,-10.961 -17.72,-10.961 -2.1,0 -1.87,2.563 -0.47,10.961 4.44,26.587 10.26,52.927 15.38,76.707 l -0.68,0.95 c -2.58,0 -6.3,0.7 -9.1,1.39 -4.67,0.94 -8.63,1.64 -12.13,1.64 -14.92,0 -33.12,-9.1 -45.7,-19.83 -14.92,-12.82 -25.88,-37.78 -25.88,-62.259 0,-20.051 8.38,-24.715 13.75,-24.715 3.51,0 15.39,7.929 19.12,11.191 11.66,9.559 22.39,20.52 32.18,33.583 l 0.47,0 -6.07,-31.024 c -2.09,-11.188 2.33,-13.75 5.14,-13.75 2.79,0 21.92,10.719 33.81,23.082 l -2.1,3.035 0,0 z m -36.6,71.587 c 6.05,0 11.88,-1.63 15.15,-3.26 -0.71,-8.86 -6.07,-32.88 -9.1,-39.18 -3.97,-8.4 -12.59,-17.96 -18.19,-24.026 -9.33,-9.789 -18.66,-16.785 -22.62,-16.785 -4.42,0 -6.3,6.996 -6.3,16.098 0,8.386 1.88,25.643 7.94,39.163 6.99,15.4 13.75,21.92 19.82,25.19 3.27,1.64 8.4,2.8 13.3,2.8 l 0,0" /><path
         id="path3275"
         style="fill:#231f20;fill-opacity:1;fill-rule:nonzero;stroke:none"
         d="m 2733.34,1032.19 c 0,-22.85 -13.98,-37.776 -25.17,-37.776 -8.64,0 -15.39,7.926 -15.39,24.476 0,10.28 2.33,19.84 6.29,25.89 4.89,7.7 10.26,10.73 17.02,10.73 12.36,0 17.25,-10.03 17.25,-23.32 l 0,0 z m -34.97,-74.151 c 2.56,-1.16 8.16,-4.668 15.85,-9.328 10.73,-6.527 17.96,-13.051 17.96,-20.523 0,-12.36 -16.09,-18.184 -28.67,-18.184 -14.7,0 -30.33,5.824 -30.33,20.75 0,10.5 7.93,20.059 25.19,27.285 l 0,0 z m 71.59,104.001 c -4.89,-2.09 -11.89,-3.5 -30.08,-4.9 -4.44,3.74 -10.03,5.84 -16.56,5.84 -7.46,0 -20.52,-4.91 -30.54,-13.06 -11.67,-9.56 -17.72,-23.33 -17.72,-36.15 0,-14.922 9.09,-24.25 22.83,-27.286 -10.95,-7.226 -14.44,-10.031 -14.44,-13.05 0,-2.332 3.26,-7.469 10.73,-12.133 -26.13,-13.524 -39.18,-24.012 -39.18,-34.742 0,-16.329 20.52,-24.024 38.71,-24.024 15.15,0 52.92,9.57 52.92,32.883 0,8.168 -6.99,17.496 -23.31,27.285 -10.03,6.067 -23.55,12.82 -23.55,18.188 0,2.101 1.63,3.73 4.67,5.132 13.98,6.297 24.48,10.493 30.08,15.627 6.99,6.76 15.85,17.24 15.85,33.57 0,4.44 -0.93,8.86 -3.03,12.83 2.33,0.24 3.5,0.24 4.19,0.24 5.84,0.92 12.36,4.43 19.83,11.19 l -1.4,2.56 0,0" /><path
         id="path3277"
         style="fill:#231f20;fill-opacity:1;fill-rule:nonzero;stroke:none"
         d="m 2835.44,1062.98 c -6.05,0 -15.15,-2.8 -24.71,-8.4 -16.1,-9.56 -33.58,-31.25 -33.58,-63.889 0,-16.324 7.69,-34.515 28.91,-34.515 10.03,0 24.72,6.758 34.52,15.625 15.38,13.984 24.48,38.009 24.48,58.749 0,19.37 -10.26,32.43 -29.62,32.43 l 0,0 z m 11.44,-35.44 c 0.46,-31.024 -15.63,-58.77 -25.19,-62.505 -2.33,-0.93 -4.67,-1.633 -7.23,-1.633 -13.76,0 -19.11,13.77 -19.11,32.883 0,35.215 16.78,54.335 24.47,57.595 2.1,0.93 4.9,1.86 7.93,1.86 11.43,0 19.13,-9.09 19.13,-28.2 l 0,0" /><path
         id="path3279"
         style="fill:#231f20;fill-opacity:1;fill-rule:nonzero;stroke:none"
         d="m 1372.66,1085.21 65.6797,0 0,11.6758 -65.6797,0 0,-11.6758 z" /><path
         id="path3281"
         style="fill:#231f20;fill-opacity:1;fill-rule:nonzero;stroke:none"
         d="m 2576.14,1085.21 65.6758,0 0,11.6758 -65.6758,0 0,-11.6758 z" /><path
         id="path3283"
         style="fill:#ffffff;fill-opacity:1;fill-rule:nonzero;stroke:none"
         d="m 2065,1815.88 c 31.81,20.16 57.62,36.51 60.42,38.28 0,8.6 0,208.35 0,232.71 -21.46,-10.73 -180.88,-90.44 -189.41,-94.7 0,-0.37 0,-1.17 0,-2.15 L 2065,1815.88" /><path
         id="path3285"
         style="fill:#ffffff;fill-opacity:1;fill-rule:nonzero;stroke:none"
         d="m 1071.56,1980.18 c -25.26,12.63 -165.783,82.88 -185.833,92.91 0,-24.36 0,-224.11 0,-232.71 2.613,-1.66 25.378,-16.08 54.351,-34.43 l 131.482,174.23" /><path
         id="path3287"
         style="fill:#254a9a;fill-opacity:1;fill-rule:nonzero;stroke:none"
         d="m 2137.46,3345.68 -1262.058,0 0,-845.36 c 0,-386.6 599.058,-693.9 624.558,-706.8 l 3.91,-1.98 3.88,2 c 26.07,13.31 638.33,330.73 638.33,734.27 l 0,817.87 -8.62,0" /><path
         id="path3289"
         style="fill:#fbbc09;fill-opacity:1;fill-rule:nonzero;stroke:none"
         d="m 2040.03,2262.93 c -202.45,227.92 -328.99,370.91 -343.98,388.66 3.7,4.13 393.6,439.33 432.81,483.1 0,108.04 0,188.49 0,193.77 -4.28,0 -85.16,0 -203.59,0 -36.5,-40.51 -413.97,-459.51 -418.82,-464.89 -4.8,5.41 -376.2,424.38 -412.11,464.89 -117.422,0 -197.449,0 -201.719,0 0,-5.25 0,-87.41 0,-198.08 38.949,-43.86 421.999,-475.13 425.819,-479.45 -3.86,-4.32 -319.194,-356.69 -348.624,-389.57 49.134,-78.1 116.614,-149.75 187.214,-211.91 28.7,31.95 344.54,383.44 349.38,388.84 4.82,-5.43 315.89,-355.44 344.14,-387.22 70.41,62.04 138.34,133.63 189.48,211.86" /><path
         id="path3291"
         style="fill:#254a9a;fill-opacity:1;fill-rule:nonzero;stroke:none"
         d="m 1693.56,2829.09 -55.08,54.53 -310.56,0 0.01,-376.18 46.78,-46.48 0,-51.95 65.43,0 0,42.33 253.19,0 0.23,377.75" /><path
         id="path3293"
         style="fill:#fbbc09;fill-opacity:1;fill-rule:nonzero;stroke:none"
         d="m 1353.36,2506.44 21.35,0 0,-21.21 c -7.26,7.22 -15.38,15.29 -21.35,21.21" /><path
         id="path3295"
         style="fill:#fbbc09;fill-opacity:1;fill-rule:nonzero;stroke:none"
         d="m 1676.13,2468.55 c -11.83,0 -157.79,0 -235.99,0 l 0,37.89 198.11,0 0,353.18 c 11.92,-11.79 34.69,-34.34 38.09,-37.7 -0.01,-6.88 -0.2,-337.13 -0.21,-353.37" /><path
         id="path3297"
         style="fill:#ee242d;fill-opacity:1;fill-rule:nonzero;stroke:none"
         d="m 1422.93,2503.7 c 0,-12.8 0,-64.68 0,-77.49 -9.09,0 -21.91,0 -31,0 0,12.81 0,64.69 0,77.49 9.09,0 21.91,0 31,0" /><path
         id="path3299"
         style="fill:#254a9a;fill-opacity:1;fill-rule:nonzero;stroke:none"
         d="m 1498.87,3276.86 c 0,0 -29.51,-51.53 -33.77,-58.96 -8.57,0.03 -82.72,0.29 -82.72,0.29 0,0 37.31,-64.08 41.62,-71.49 -4.31,-7.4 -41.62,-71.49 -41.62,-71.49 0,0 74.15,0.26 82.72,0.29 4.26,-7.43 41.11,-71.78 41.11,-71.78 0,0 36.85,64.35 41.1,71.78 8.58,-0.03 82.72,-0.29 82.72,-0.29 0,0 -37.25,64 -41.59,71.46 4.39,7.42 42.21,71.4 42.21,71.4 0,0 -74.77,-0.16 -83.32,-0.18 -4.26,7.42 -41.12,71.78 -41.12,71.78 l -7.34,-12.81" /><path
         id="path3301"
         style="fill:#fbbc09;fill-opacity:1;fill-rule:nonzero;stroke:none"
         d="m 1477.33,3205.21 c 0,0 19.55,34.11 28.88,50.41 9.33,-16.3 31.31,-54.67 31.31,-54.67 0,0 44.51,0.09 63.43,0.13 -9.6,-16.24 -32.14,-54.35 -32.14,-54.35 0,0 22.28,-38.26 31.73,-54.49 -18.79,0.07 -63.02,0.22 -63.02,0.22 0,0 -21.98,-38.39 -31.31,-54.68 -9.33,16.29 -31.32,54.68 -31.32,54.68 0,0 -44.23,-0.15 -63.01,-0.22 9.45,16.23 31.7,54.46 31.7,54.46 0,0 -22.25,38.22 -31.7,54.46 18.78,-0.07 63.01,-0.22 63.01,-0.22 l 2.44,4.27" /><path
         id="path3303"
         style="fill:#254a9a;fill-opacity:1;fill-rule:nonzero;stroke:none"
         d="m 1498.87,2240.32 c 0,0 -29.51,-51.53 -33.77,-58.96 -8.57,0.04 -82.72,0.29 -82.72,0.29 0,0 37.31,-64.08 41.62,-71.49 -4.31,-7.4 -41.62,-71.48 -41.62,-71.48 0,0 74.15,0.25 82.72,0.29 4.26,-7.43 41.11,-71.77 41.11,-71.77 0,0 36.85,64.33 41.1,71.77 8.57,-0.04 82.72,-0.29 82.72,-0.29 0,0 -37.25,64 -41.59,71.45 4.39,7.43 42.21,71.41 42.21,71.41 0,0 -74.77,-0.17 -83.32,-0.18 -4.26,7.42 -41.12,71.78 -41.12,71.78 l -7.34,-12.82" /><path
         id="path3305"
         style="fill:#fbbc09;fill-opacity:1;fill-rule:nonzero;stroke:none"
         d="m 1477.33,2168.68 c 0,0 19.55,34.1 28.88,50.41 9.33,-16.31 31.31,-54.68 31.31,-54.68 0,0 44.51,0.09 63.43,0.13 -9.6,-16.24 -32.14,-54.34 -32.14,-54.34 0,0 22.28,-38.25 31.73,-54.49 -18.79,0.06 -63.02,0.21 -63.02,0.21 0,0 -21.98,-38.37 -31.31,-54.67 -9.33,16.3 -31.32,54.67 -31.32,54.67 0,0 -44.23,-0.15 -63.01,-0.21 9.45,16.24 31.7,54.45 31.7,54.45 0,0 -22.25,38.23 -31.7,54.47 18.78,-0.07 63.01,-0.22 63.01,-0.22 l 2.44,4.27" /><path
         id="path3307"
         style="fill:#254a9a;fill-opacity:1;fill-rule:nonzero;stroke:none"
         d="m 1059.81,2794.74 c 0,0 -29.51,-51.52 -33.76,-58.95 -8.57,0.02 -82.718,0.28 -82.718,0.28 0,0 37.309,-64.07 41.613,-71.48 -4.304,-7.4 -41.613,-71.49 -41.613,-71.49 0,0 74.148,0.26 82.718,0.29 4.25,-7.43 41.1,-71.78 41.1,-71.78 0,0 36.85,64.35 41.1,71.78 8.58,-0.03 82.71,-0.29 82.71,-0.29 0,0 -37.25,64.01 -41.58,71.46 4.39,7.42 42.21,71.4 42.21,71.4 0,0 -74.76,-0.16 -83.32,-0.18 -4.26,7.42 -41.12,71.79 -41.12,71.79 l -7.34,-12.83" /><path
         id="path3309"
         style="fill:#fbbc09;fill-opacity:1;fill-rule:nonzero;stroke:none"
         d="m 1038.29,2723.1 c 0,0 19.53,34.11 28.86,50.4 9.34,-16.29 31.31,-54.67 31.31,-54.67 0,0 44.51,0.1 63.42,0.14 -9.59,-16.24 -32.13,-54.34 -32.13,-54.34 0,0 22.28,-38.26 31.72,-54.5 -18.78,0.07 -63.01,0.23 -63.01,0.23 0,0 -21.97,-38.38 -31.31,-54.68 -9.33,16.3 -31.31,54.68 -31.31,54.68 0,0 -44.231,-0.16 -63.016,-0.23 9.457,16.24 31.716,54.46 31.716,54.46 0,0 -22.259,38.22 -31.704,54.46 18.773,-0.07 63.004,-0.23 63.004,-0.23 l 2.45,4.28" /><path
         id="path3311"
         style="fill:#254a9a;fill-opacity:1;fill-rule:nonzero;stroke:none"
         d="m 1939.65,2794.74 c 0,0 -29.51,-51.52 -33.77,-58.95 -8.56,0.02 -82.71,0.28 -82.71,0.28 0,0 37.3,-64.07 41.61,-71.48 -4.31,-7.4 -41.61,-71.49 -41.61,-71.49 0,0 74.15,0.26 82.71,0.29 4.26,-7.43 41.12,-71.78 41.12,-71.78 0,0 36.84,64.35 41.1,71.78 8.56,-0.03 82.7,-0.29 82.7,-0.29 0,0 -37.24,64.01 -41.58,71.46 4.39,7.42 42.22,71.4 42.22,71.4 0,0 -74.78,-0.16 -83.34,-0.18 -4.26,7.42 -41.1,71.79 -41.1,71.79 l -7.35,-12.83" /><path
         id="path3313"
         style="fill:#fbbc09;fill-opacity:1;fill-rule:nonzero;stroke:none"
         d="m 1918.12,2723.1 c 0,0 19.53,34.11 28.88,50.4 9.32,-16.29 31.3,-54.67 31.3,-54.67 0,0 44.51,0.1 63.43,0.14 -9.6,-16.24 -32.13,-54.34 -32.13,-54.34 0,0 22.26,-38.26 31.7,-54.5 -18.76,0.07 -63,0.23 -63,0.23 0,0 -21.98,-38.38 -31.3,-54.68 -9.35,16.3 -31.33,54.68 -31.33,54.68 0,0 -44.23,-0.16 -63.01,-0.23 9.45,16.24 31.71,54.46 31.71,54.46 0,0 -22.26,38.22 -31.7,54.46 18.77,-0.07 63,-0.23 63,-0.23 l 2.45,4.28" /><path
         id="path3315"
         style="fill:#ee242d;fill-opacity:1;fill-rule:nonzero;stroke:none"
         d="m 1621.03,2866.39 c 0,-15.99 0,-326.73 0,-342.73 -15.73,0 -260.16,0 -275.89,0 0,16 0,326.74 0,342.73 15.73,0 260.16,0 275.89,0" /><path
         id="path3317"
         style="fill:#254a9a;fill-opacity:1;fill-rule:nonzero;stroke:none"
         d="m 1476.48,2815.41 c 0,0 -29.51,-51.52 -33.76,-58.96 -8.57,0.03 -82.72,0.29 -82.72,0.29 0,0 37.31,-64.08 41.61,-71.49 -4.3,-7.4 -41.61,-71.48 -41.61,-71.48 0,0 74.15,0.25 82.72,0.28 4.25,-7.42 41.1,-71.78 41.1,-71.78 0,0 36.86,64.36 41.12,71.78 8.56,-0.03 82.72,-0.28 82.72,-0.28 0,0 -37.27,64 -41.61,71.45 4.4,7.42 42.22,71.4 42.22,71.4 0,0 -74.77,-0.16 -83.32,-0.17 -4.26,7.41 -41.13,71.78 -41.13,71.78 l -7.34,-12.82" /><path
         id="path3319"
         style="fill:#fbbc09;fill-opacity:1;fill-rule:nonzero;stroke:none"
         d="m 1454.95,2743.77 c 0,0 19.54,34.1 28.87,50.4 9.34,-16.3 31.32,-54.67 31.32,-54.67 0,0 44.51,0.09 63.43,0.13 -9.62,-16.24 -32.15,-54.34 -32.15,-54.34 0,0 22.28,-38.25 31.74,-54.5 -18.79,0.07 -63.02,0.23 -63.02,0.23 0,0 -21.98,-38.39 -31.32,-54.69 -9.33,16.3 -31.32,54.69 -31.32,54.69 0,0 -44.22,-0.16 -63.01,-0.23 9.46,16.25 31.71,54.46 31.71,54.46 0,0 -22.25,38.23 -31.71,54.46 18.79,-0.07 63.01,-0.22 63.01,-0.22 l 2.45,4.28" /><path
         id="path3321"
         style="fill:#231f20;fill-opacity:1;fill-rule:nonzero;stroke:none"
         d="m 485.547,496.387 c 0,31.144 1.297,46.285 2.594,55.804 1.726,10.383 10.816,15.145 28.984,16.008 l 0,9.949 -82.629,0 0,-9.949 c 21.633,-1.301 31.145,-5.625 32.883,-16.008 1.293,-9.519 2.594,-24.66 2.594,-55.804 l 0,-59.703 -0.868,0 -128.48,141.464 -53.215,0 0,-9.949 c 29.414,-2.164 36.34,-8.652 36.34,-43.265 l 0,-57.969 c 0,-31.145 -1.301,-46.289 -2.602,-55.371 -1.73,-10.383 -10.812,-15.578 -28.976,-16.446 l 0,-9.945 82.187,0 0,9.945 c -21.621,1.301 -31.14,6.063 -32.441,16.446 -1.293,9.082 -2.598,24.226 -2.598,55.371 l 0,63.164 0.43,0 131.953,-147.094 13.844,0 0,113.352" /><path
         id="path3323"
         style="fill:#231f20;fill-opacity:1;fill-rule:nonzero;stroke:none"
         d="m 579.297,431.488 c 0,-32.008 -2.168,-34.172 -32.445,-36.34 l 0,-9.945 163.523,0 c 2.594,8.219 9.082,39.371 11.246,50.617 l -11.246,1.293 c -4.324,-14.707 -10.387,-24.226 -15.574,-29.414 -6.926,-6.926 -20.766,-9.519 -38.934,-9.519 -19.472,0 -28.558,0.437 -34.609,3.461 -6.059,3.027 -8.219,12.547 -8.219,29.418 l 0,47.152 34.176,0 c 27.254,0 28.121,-1.293 31.578,-25.09 l 10.812,0 0,63.598 -10.812,0 c -3.457,-22.063 -4.324,-23.801 -31.578,-23.801 l -34.176,0 0,61.437 c 0,10.813 0.43,10.813 12.543,10.813 l 24.227,0 c 20.765,0 30.285,-4.324 34.609,-8.652 4.324,-4.325 7.789,-12.543 10.812,-27.684 l 10.821,0.863 c -1.731,19.903 -3.031,40.235 -3.465,48.453 l -152.715,0 0,-9.949 c 27.258,-1.73 29.426,-3.894 29.426,-35.91 l 0,-100.801" /><path
         id="path3325"
         style="fill:#231f20;fill-opacity:1;fill-rule:nonzero;stroke:none"
         d="m 739.711,578.148 0,-9.949 c 17.734,-2.164 24.223,-3.894 32.879,-28.984 l 53.211,-157.043 11.25,0 52.347,137.574 0.864,0 55.804,-137.574 12.543,0 c 25.965,84.363 50.191,150.98 53.651,158.336 9.95,23.797 10.81,25.097 33.74,27.691 l 0,9.949 -75.277,0 0,-9.949 11.25,-1.301 c 14.277,-1.293 15.14,-4.324 11.683,-19.031 -3.894,-17.308 -22.066,-82.633 -32.445,-112.484 l -0.863,0 -57.11,138.004 -10.383,0 -50.179,-138.004 -0.867,0 -38.504,113.351 c -5.188,14.707 -3.895,16.434 10.812,18.164 l 9.52,1.301 0,9.949 -83.926,0" /><path
         id="path3327"
         style="fill:#231f20;fill-opacity:1;fill-rule:nonzero;stroke:none"
         d="m 1337.68,572.523 -2.17,5.625 -125.46,0 c -9.09,0 -12.97,0.864 -17.73,7.352 l -6.06,0 c -0.43,-16.004 -2.6,-34.172 -3.9,-59.699 l 10.39,0 c 3.89,16.871 7.79,25.527 12.11,29.422 5.19,5.187 13.84,9.945 43.69,9.945 l 45,0 -127.19,-174.777 2.16,-5.188 165.7,0 c 3.46,9.945 9.51,38.504 12.11,52.344 l -10.82,1.734 c -6.05,-16.011 -12.11,-25.527 -19.9,-31.582 -9.51,-7.355 -31.58,-9.519 -57.1,-9.519 -19.47,0 -35.91,0.437 -45.86,1.73 l 125.03,172.613" /><path
         id="path3329"
         style="fill:#231f20;fill-opacity:1;fill-rule:nonzero;stroke:none"
         d="m 1404.19,431.488 c 0,-32.008 -2.17,-34.172 -32.44,-36.34 l 0,-9.945 163.52,0 c 2.59,8.219 9.08,39.371 11.25,50.617 l -11.25,1.293 c -4.32,-14.707 -10.38,-24.226 -15.57,-29.414 -6.93,-6.926 -20.77,-9.519 -38.94,-9.519 -19.47,0 -28.55,0.437 -34.61,3.461 -6.06,3.027 -8.22,12.547 -8.22,29.418 l 0,47.152 34.18,0 c 27.25,0 28.12,-1.293 31.58,-25.09 l 10.81,0 0,63.598 -10.81,0 c -3.46,-22.063 -4.33,-23.801 -31.58,-23.801 l -34.18,0 0,61.437 c 0,10.813 0.43,10.813 12.55,10.813 l 24.22,0 c 20.77,0 30.29,-4.324 34.61,-8.652 4.33,-4.325 7.79,-12.543 10.82,-27.684 l 10.82,0.863 c -1.74,19.903 -3.04,40.235 -3.47,48.453 l -152.71,0 0,-9.949 c 27.25,-1.73 29.42,-3.894 29.42,-35.91 l 0,-100.801" /><path
         id="path3331"
         style="fill:#231f20;fill-opacity:1;fill-rule:evenodd;stroke:none"
         d="m 1696.55,385.203 87.38,0 0,9.945 c -19.02,1.301 -27.25,3.032 -37.63,28.559 l -64.46,159.629 -10.82,-2.594 L 1607,428.895 c -12.55,-29.848 -19.91,-31.579 -38.94,-33.747 l 0,-9.945 75.71,0 0,9.945 -9.95,0.868 c -12.55,0.863 -16.44,5.195 -11.25,19.902 4.33,12.977 11.68,33.309 14.71,40.234 l 60.13,0 14.71,-35.047 c 8.65,-20.332 4.76,-23.789 -7.35,-25.089 l -8.22,-0.868 0,-9.945 z m -30.29,151.418 0.87,0 25.1,-65.762 -50.19,0 24.22,65.762" /><path
         id="path3333"
         style="fill:#231f20;fill-opacity:1;fill-rule:nonzero;stroke:none"
         d="m 1968.53,385.203 c 2.6,8.219 9.08,41.527 11.25,51.481 l -11.25,1.296 c -4.32,-13.843 -9.52,-23.792 -14.71,-28.988 -6.92,-7.781 -20.77,-10.812 -37.64,-10.812 -16,0 -25.09,0.437 -31.14,3.461 -6.06,3.027 -8.22,11.683 -8.22,28.554 l 0,102.094 c 0,32.445 2.59,34.18 32.45,35.91 l 0,9.949 -96.48,0 0,-9.949 c 27.68,-1.73 30.28,-3.465 30.28,-35.91 l 0,-100.801 c 0,-32.441 -2.16,-34.609 -32.44,-36.34 l 0,-9.945 157.9,0" /><path
         id="path3335"
         style="fill:#231f20;fill-opacity:1;fill-rule:evenodd;stroke:none"
         d="m 2128.46,385.203 87.38,0 0,9.945 c -19.03,1.301 -27.25,3.032 -37.63,28.559 l -64.46,159.629 -10.82,-2.594 -64.02,-151.847 c -12.55,-29.848 -19.91,-31.579 -38.94,-33.747 l 0,-9.945 75.71,0 0,9.945 -9.95,0.868 c -12.55,0.863 -16.44,5.195 -11.25,19.902 4.33,12.977 11.68,33.309 14.7,40.234 l 60.14,0 14.71,-35.047 c 8.65,-20.332 4.76,-23.789 -7.35,-25.089 l -8.22,-0.868 0,-9.945 z m -30.29,151.418 0.87,0 25.09,-65.762 -50.18,0 24.22,65.762" /><path
         id="path3337"
         style="fill:#231f20;fill-opacity:1;fill-rule:nonzero;stroke:none"
         d="m 2435.91,496.387 c 0,31.144 1.3,46.285 2.6,55.804 1.72,10.383 10.82,15.145 28.98,16.008 l 0,9.949 -82.63,0 0,-9.949 c 21.64,-1.301 31.15,-5.625 32.89,-16.008 1.29,-9.519 2.59,-24.66 2.59,-55.804 l 0,-59.703 -0.86,0 -128.49,141.464 -53.21,0 0,-9.949 c 29.41,-2.164 36.34,-8.652 36.34,-43.265 l 0,-57.969 c 0,-31.145 -1.3,-46.289 -2.6,-55.371 -1.73,-10.383 -10.82,-15.578 -28.98,-16.446 l 0,-9.945 82.19,0 0,9.945 c -21.62,1.301 -31.14,6.063 -32.44,16.446 -1.3,9.082 -2.6,24.226 -2.6,55.371 l 0,63.164 0.43,0 131.95,-147.094 13.84,0 0,113.352" /><path
         id="path3339"
         style="fill:#231f20;fill-opacity:1;fill-rule:evenodd;stroke:none"
         d="m 2501.11,578.148 0,-9.949 c 25.95,-2.164 28.55,-3.894 28.55,-35.91 l 0,-101.23 c 0,-31.579 -2.6,-33.743 -31.15,-35.911 l 0,-9.945 84.79,0 c 69.22,0 127.19,31.578 127.19,103.828 0,27.25 -11.24,49.746 -25.95,63.16 -20.77,19.032 -51.92,25.957 -88.69,25.957 l -94.74,0 z m 62.3,-29.851 c 0,8.219 0.86,12.547 3.02,14.277 2.17,1.731 10.82,3.461 21.63,3.461 52.35,0 83.5,-24.664 83.5,-85.23 0,-49.746 -24.22,-82.625 -77.44,-82.625 -27.25,0 -30.71,6.488 -30.71,31.152 l 0,118.965" /></g></g></svg>