<?xml version="1.0" encoding="UTF-8" standalone="no"?>
<svg
   xmlns:dc="http://purl.org/dc/elements/1.1/"
   xmlns:cc="http://creativecommons.org/ns#"
   xmlns:rdf="http://www.w3.org/1999/02/22-rdf-syntax-ns#"
   xmlns:svg="http://www.w3.org/2000/svg"
   xmlns="http://www.w3.org/2000/svg"
   xmlns:sodipodi="http://sodipodi.sourceforge.net/DTD/sodipodi-0.dtd"
   xmlns:inkscape="http://www.inkscape.org/namespaces/inkscape"
   version="1.1"
   viewBox="0 0 740.56566 347.66674"
   stroke-miterlimit="10"
   id="svg566"
   sodipodi:docname="urate excretion diagram.svg"
   width="5.93402in"
   height="2.7857912in"
   style="fill:none;stroke:none;stroke-linecap:square;stroke-miterlimit:10"
   inkscape:version="0.92.3 (d244b95, 2018-08-02)"
   inkscape:export-filename="/home/murraycadzow/Git_repos/bookdown_thesis/images/03_selectionpipeline/urate_excretion_diagram.png"
   inkscape:export-xdpi="96"
   inkscape:export-ydpi="96">
  <metadata
     id="metadata572">
    <rdf:RDF>
      <cc:Work
         rdf:about="">
        <dc:format>image/svg+xml</dc:format>
        <dc:type
           rdf:resource="http://purl.org/dc/dcmitype/StillImage" />
        <dc:title></dc:title>
      </cc:Work>
    </rdf:RDF>
  </metadata>
  <defs
     id="defs570" />
  <sodipodi:namedview
     pagecolor="#ffffff"
     bordercolor="#666666"
     borderopacity="1"
     objecttolerance="10"
     gridtolerance="10"
     guidetolerance="10"
     inkscape:pageopacity="0"
     inkscape:pageshadow="2"
     inkscape:window-width="2560"
     inkscape:window-height="1343"
     id="namedview568"
     showgrid="false"
     fit-margin-top="0.1"
     fit-margin-right="0.1"
     fit-margin-bottom="0.1"
     fit-margin-left="0.1"
     inkscape:zoom="2.0993242"
     inkscape:cx="348.36125"
     inkscape:cy="94.326903"
     inkscape:window-x="0"
     inkscape:window-y="32"
     inkscape:window-maximized="1"
     inkscape:current-layer="svg566"
     units="in"
     scale-x="1.3"
     viewbox-x="0" />
  <clipPath
     id="p.0">
    <path
       d="M 0,0 H 960 V 540 H 0 Z"
       id="path311"
       inkscape:connector-curvature="0"
       style="clip-rule:nonzero" />
  </clipPath>
  <g
     id="g4951"
     transform="translate(-7.5200001,-21.080623)">
    <g
       id="g4956">
      <path
         style="fill:#eeeeee;fill-rule:evenodd;stroke:none;stroke-linecap:square;stroke-miterlimit:10"
         inkscape:connector-curvature="0"
         d="m 439.19291,95.953485 v 0 c 0,-20.102987 16.29669,-36.399678 36.39966,-36.399678 H 658.1948 c 9.65381,0 18.91217,3.834953 25.73846,10.661217 6.82624,6.826263 10.6612,16.084661 10.6612,25.738461 V 241.54784 c 0,20.10296 -16.29669,36.39966 -36.39966,36.39966 H 475.59257 c -20.10297,0 -36.39966,-16.2967 -36.39966,-36.39966 z"
         id="path324" />
      <path
         id="path326"
         d="m 439.19291,95.953485 v 0 c 0,-20.102987 16.29669,-36.399678 36.39966,-36.399678 H 658.1948 c 9.65381,0 18.91217,3.834953 25.73846,10.661217 6.82624,6.826263 10.6612,16.084661 10.6612,25.738461 V 241.54784 c 0,20.10296 -16.29669,36.39966 -36.39966,36.39966 H 475.59257 c -20.10297,0 -36.39966,-16.2967 -36.39966,-36.39966 z"
         inkscape:connector-curvature="0"
         style="fill-rule:evenodd;stroke:#595959;stroke-width:1;stroke-linecap:butt;stroke-linejoin:round" />
    </g>
  </g>
  <g
     id="g4971"
     transform="translate(-7.5200001,-25.278781)">
    <path
       style="fill:#eeeeee;fill-rule:evenodd"
       inkscape:connector-curvature="0"
       d="m 248.20868,74.312085 c 3.95535,-20.00592 21.84906,-0.946869 25.42779,0.871849 3.57877,1.818726 -5.46194,7.712501 -3.95538,10.040471 1.50656,2.32798 13.08927,2.25431 12.99475,3.92739 -0.0945,1.67307 -13.37356,3.71043 -13.56167,6.11106 -0.18808,2.40063 12.43307,5.673795 12.43307,8.292715 0,2.61893 -12.62115,4.43799 -12.43307,7.42086 0.18811,2.98288 13.56167,7.63918 13.56167,10.4764 0,2.83722 -13.56167,3.6371 -13.56167,6.54699 0,2.90988 13.74978,7.92978 13.56167,10.91232 -0.18808,2.98254 -14.97287,4.36398 -14.69027,6.98291 0.28259,2.61894 15.82064,6.11174 16.38583,8.73067 0.56519,2.61894 -13.18329,3.70909 -12.99475,6.98292 0.18854,3.27384 14.40857,9.53189 14.12598,12.66008 -0.2826,3.12818 -15.44443,2.61724 -15.82154,6.10903 -0.37707,3.4918 16.85523,12.36811 13.55908,14.84173 -3.29617,2.47362 -27.49737,20.15123 -33.33596,0 -5.8386,-20.15123 -5.65091,-100.901465 -1.69553,-120.907393 z"
       id="path316" />
    <path
       style="fill-rule:evenodd;stroke:#595959;stroke-width:1;stroke-linecap:butt;stroke-linejoin:round"
       inkscape:connector-curvature="0"
       d="m 248.20868,74.312085 c 3.95535,-20.00592 21.84906,-0.946869 25.42779,0.871849 3.57877,1.818726 -5.46194,7.712501 -3.95538,10.040471 1.50656,2.32798 13.08927,2.25431 12.99475,3.92739 -0.0945,1.67307 -13.37356,3.71043 -13.56167,6.11106 -0.18808,2.40063 12.43307,5.673795 12.43307,8.292715 0,2.61893 -12.62115,4.43799 -12.43307,7.42086 0.18811,2.98288 13.56167,7.63918 13.56167,10.4764 0,2.83722 -13.56167,3.6371 -13.56167,6.54699 0,2.90988 13.74978,7.92978 13.56167,10.91232 -0.18808,2.98254 -14.97287,4.36398 -14.69027,6.98291 0.28259,2.61894 15.82064,6.11174 16.38583,8.73067 0.56519,2.61894 -13.18329,3.70909 -12.99475,6.98292 0.18854,3.27384 14.40857,9.53189 14.12598,12.66008 -0.2826,3.12818 -15.44443,2.61724 -15.82154,6.10903 -0.37707,3.4918 16.85523,12.36811 13.55908,14.84173 -3.29617,2.47362 -27.49737,20.15123 -33.33596,0 -5.8386,-20.15123 -5.65091,-100.901465 -1.69553,-120.907393 z"
       id="path318" />
    <path
       style="fill:#eeeeee;fill-rule:evenodd"
       inkscape:connector-curvature="0"
       d="m 20.5,89.648805 v 0 c 0,-14.026288 11.37055,-25.39684 25.39684,-25.39684 h 201.20633 c 6.73566,0 13.19544,2.675736 17.95826,7.43856 4.76285,4.762833 7.43856,11.22262 7.43856,17.95828 V 191.23309 c 0,14.02628 -11.37054,25.39682 -25.39682,25.39682 H 45.89683 C 31.87055,216.62991 20.5,205.25937 20.5,191.23309 Z"
       id="path320" />
    <path
       style="fill-rule:evenodd;stroke:#595959;stroke-width:1;stroke-linecap:butt;stroke-linejoin:round"
       inkscape:connector-curvature="0"
       d="m 20.5,89.648805 v 0 c 0,-14.026288 11.37055,-25.39684 25.39684,-25.39684 h 201.20633 c 6.73566,0 13.19544,2.675736 17.95826,7.43856 4.76285,4.762833 7.43856,11.22262 7.43856,17.95828 V 191.23309 c 0,14.02628 -11.37054,25.39682 -25.39682,25.39682 H 45.89683 C 31.87055,216.62991 20.5,205.25937 20.5,191.23309 Z"
       id="path322" />
    <path
       style="fill:#d9d2e9;fill-rule:evenodd"
       inkscape:connector-curvature="0"
       d="m 220.52361,119.73492 v 0 c 0,-8.58434 21.25061,-15.54332 47.46457,-15.54332 v 0 c 26.21396,0 47.46457,6.95898 47.46457,15.54332 v 0 c 0,8.58431 -21.25061,15.54329 -47.46457,15.54329 v 0 c -26.21396,0 -47.46457,-6.95898 -47.46457,-15.54329 z"
       id="path328" />
    <path
       style="fill-rule:evenodd;stroke:#595959;stroke-width:1;stroke-linecap:butt;stroke-linejoin:round"
       inkscape:connector-curvature="0"
       d="m 220.52361,119.73492 v 0 c 0,-8.58434 21.25061,-15.54332 47.46457,-15.54332 v 0 c 26.21396,0 47.46457,6.95898 47.46457,15.54332 v 0 c 0,8.58431 -21.25061,15.54329 -47.46457,15.54329 v 0 c -26.21396,0 -47.46457,-6.95898 -47.46457,-15.54329 z"
       id="path330" />
    <path
       style="fill:#000000;fill-opacity:0;fill-rule:evenodd"
       inkscape:connector-curvature="0"
       d="m 225.04331,100.05512 h 86.4567 v 37.85826 h -86.4567 z"
       id="path332" />
    <path
       style="fill:#000000;fill-rule:nonzero"
       inkscape:connector-curvature="0"
       d="m 236.61679,126.97512 5.125,-13.35938 h 1.90625 l 5.46875,13.35938 h -2.01562 l -1.54688,-4.04688 h -5.59375 l -1.46875,4.04688 z m 3.85938,-5.48438 h 4.53125 l -1.40625,-3.70312 q -0.625,-1.6875 -0.9375,-2.76563 -0.26563,1.28125 -0.71875,2.54688 z m 9.97482,5.48438 v -13.35938 h 5.01562 q 1.53125,0 2.45313,0.40625 0.92187,0.40625 1.4375,1.25 0.53125,0.84375 0.53125,1.76563 0,0.85937 -0.46875,1.625 -0.45313,0.75 -1.39063,1.20312 1.20313,0.35938 1.85938,1.21875 0.65625,0.85938 0.65625,2.01563 0,0.9375 -0.40625,1.75 -0.39063,0.79687 -0.98438,1.23437 -0.57812,0.4375 -1.45312,0.67188 -0.875,0.21875 -2.15625,0.21875 z m 1.78125,-7.75 h 2.875 q 1.1875,0 1.6875,-0.14063 0.67187,-0.20312 1.01562,-0.67187 0.34375,-0.46875 0.34375,-1.17188 0,-0.65625 -0.32812,-1.15625 -0.3125,-0.51562 -0.90625,-0.70312 -0.59375,-0.1875 -2.03125,-0.1875 h -2.65625 z m 0,6.17187 h 3.3125 q 0.85937,0 1.20312,-0.0625 0.60938,-0.10937 1.01563,-0.35937 0.42187,-0.26563 0.6875,-0.75 0.26562,-0.48438 0.26562,-1.125 0,-0.75 -0.39062,-1.29688 -0.375,-0.54687 -1.0625,-0.76562 -0.67188,-0.23438 -1.95313,-0.23438 h -3.07812 z m 20.2717,-3.10937 1.76562,0.45312 q -0.5625,2.17188 -2,3.32813 -1.4375,1.14062 -3.53125,1.14062 -2.15625,0 -3.51562,-0.875 -1.34375,-0.89062 -2.0625,-2.54687 -0.70313,-1.67188 -0.70313,-3.59375 0,-2.07813 0.79688,-3.625 0.79687,-1.5625 2.26562,-2.35938 1.48438,-0.8125 3.25,-0.8125 2,0 3.35938,1.01563 1.375,1.01562 1.90625,2.875 l -1.73438,0.40625 q -0.46875,-1.45313 -1.35937,-2.10938 -0.875,-0.67187 -2.20313,-0.67187 -1.54687,0 -2.57812,0.73437 -1.03125,0.73438 -1.45313,1.98438 -0.42187,1.23437 -0.42187,2.5625 0,1.70312 0.5,2.96875 0.5,1.26562 1.54687,1.90625 1.04688,0.625 2.26563,0.625 1.48437,0 2.51562,-0.85938 1.03125,-0.85937 1.39063,-2.54687 z m 10.19168,-0.54688 v -1.57812 h 5.65625 v 4.95312 q -1.29688,1.04688 -2.6875,1.57813 -1.375,0.51562 -2.84375,0.51562 -1.96875,0 -3.57813,-0.84375 -1.60937,-0.84375 -2.42187,-2.4375 -0.8125,-1.59375 -0.8125,-3.5625 0,-1.95312 0.8125,-3.64062 0.8125,-1.6875 2.34375,-2.5 1.53125,-0.82813 3.51562,-0.82813 1.45313,0 2.625,0.46875 1.17188,0.46875 1.82813,1.3125 0.67187,0.82813 1.01562,2.17188 l -1.59375,0.4375 q -0.29687,-1.01563 -0.75,-1.59375 -0.4375,-0.59375 -1.26562,-0.9375 -0.82813,-0.34375 -1.84375,-0.34375 -1.20313,0 -2.09375,0.375 -0.89063,0.35937 -1.4375,0.96875 -0.53125,0.59375 -0.82813,1.3125 -0.51562,1.23437 -0.51562,2.6875 0,1.78125 0.60937,2.98437 0.625,1.20313 1.79688,1.79688 1.17187,0.57812 2.5,0.57812 1.14062,0 2.23437,-0.4375 1.09375,-0.45312 1.65625,-0.95312 v -2.48438 z m 16.21457,3.65625 v 1.57813 h -8.82813 q -0.0156,-0.59375 0.1875,-1.14063 0.34375,-0.90625 1.07813,-1.78125 0.75,-0.875 2.15625,-2.01562 2.17187,-1.78125 2.9375,-2.82813 0.76562,-1.04687 0.76562,-1.96875 0,-0.98437 -0.70312,-1.64062 -0.6875,-0.67188 -1.8125,-0.67188 -1.1875,0 -1.90625,0.71875 -0.70313,0.70313 -0.70313,1.95313 l -1.6875,-0.17188 q 0.17188,-1.89062 1.29688,-2.875 1.14062,-0.98437 3.03125,-0.98437 1.92187,0 3.04687,1.0625 1.125,1.0625 1.125,2.64062 0,0.79688 -0.32812,1.57813 -0.32813,0.78125 -1.09375,1.64062 -0.75,0.84375 -2.53125,2.34375 -1.46875,1.23438 -1.89063,1.6875 -0.42187,0.4375 -0.6875,0.875 z"
       id="path334" />
    <path
       style="fill:#000000;fill-opacity:0;fill-rule:evenodd"
       inkscape:connector-curvature="0"
       d="m 311.50001,119.87664 17.51181,-0.28346"
       id="path336" />
    <path
       style="fill-rule:evenodd;stroke:#595959;stroke-width:1;stroke-linecap:butt;stroke-linejoin:round"
       inkscape:connector-curvature="0"
       d="m 311.50001,119.87664 11.5126,-0.18636"
       id="path338" />
    <path
       style="fill:#595959;fill-rule:evenodd;stroke:#595959;stroke-width:1;stroke-linecap:butt"
       inkscape:connector-curvature="0"
       d="m 323.03934,121.34181 4.51077,-1.72496 -4.56424,-1.57806 z"
       id="path340" />
    <path
       style="fill:#000000;fill-opacity:0;fill-rule:evenodd"
       inkscape:connector-curvature="0"
       d="m 225.04331,118.98426 -21.48032,0.28346"
       id="path342" />
    <path
       style="fill-rule:evenodd;stroke:#595959;stroke-width:1;stroke-linecap:butt;stroke-linejoin:round"
       inkscape:connector-curvature="0"
       d="m 225.04331,118.98426 -21.48032,0.28346"
       id="path344" />
  </g>
  <g
     id="g4829"
     transform="translate(-7.5200001,-6.3640921)">
    <g
       transform="translate(-1.177815)"
       id="g962">
      <path
         id="path448"
         d="m 396.52361,103.73491 v 0 c 0,-8.584335 21.25061,-15.543305 47.4646,-15.543305 v 0 c 26.21393,0 47.46454,6.95897 47.46454,15.543305 v 0 c 0,8.58433 -21.25061,15.54331 -47.46454,15.54331 v 0 c -26.21399,0 -47.4646,-6.95898 -47.4646,-15.54331 z"
         inkscape:connector-curvature="0"
         style="fill:#e6b8af;fill-rule:evenodd" />
      <path
         id="path450"
         d="m 396.52361,103.73491 v 0 c 0,-8.584335 21.25061,-15.543305 47.4646,-15.543305 v 0 c 26.21393,0 47.46454,6.95897 47.46454,15.543305 v 0 c 0,8.58433 -21.25061,15.54331 -47.46454,15.54331 v 0 c -26.21399,0 -47.4646,-6.95898 -47.4646,-15.54331 z"
         inkscape:connector-curvature="0"
         style="fill-rule:evenodd;stroke:#595959;stroke-width:1;stroke-linecap:butt;stroke-linejoin:round" />
      <path
         id="path452"
         d="m 401.04331,84.055115 h 86.4567 v 37.858265 h -86.4567 z"
         inkscape:connector-curvature="0"
         style="fill:#000000;fill-opacity:0;fill-rule:evenodd" />
      <path
         id="path454"
         d="m 420.81454,104.47512 q 0,-3.32813 1.78125,-5.203135 1.78128,-1.89062 4.60941,-1.89062 1.84375,0 3.32812,0.89062 1.48438,0.875 2.26563,2.468755 0.78125,1.57813 0.78125,3.57813 0,2.03125 -0.82813,3.64062 -0.8125,1.59375 -2.3125,2.42187 -1.5,0.82813 -3.25,0.82813 -1.875,0 -3.35937,-0.90625 -1.48441,-0.92188 -2.25004,-2.5 -0.76562,-1.57812 -0.76562,-3.32812 z m 1.8125,0.0156 q 0,2.42188 1.29691,3.8125 1.29687,1.39063 3.26562,1.39063 2,0 3.28125,-1.40625 1.28125,-1.40625 1.28125,-3.98437 0,-1.625 -0.54687,-2.84375 -0.54688,-1.21875 -1.60938,-1.875005 -1.0625,-0.67188 -2.375,-0.67188 -1.89062,0 -3.25,1.296885 -1.34378,1.28125 -1.34378,4.28124 z m 11.76144,6.48438 5.125,-13.359375 h 1.90625 l 5.46875,13.359375 h -2.01562 l -1.54688,-4.04687 h -5.59375 l -1.46875,4.04687 z m 3.85938,-5.48437 h 4.53125 l -1.40625,-3.70313 q -0.625,-1.6875 -0.9375,-2.765625 -0.26563,1.281255 -0.71875,2.546875 z m 13.45917,5.48437 V 99.193845 h -4.40625 v -1.57812 h 10.57812 v 1.57812 h -4.40625 V 110.9751 Z m 13.50537,0 h -1.64063 v -10.45312 q -0.59375,0.5625 -1.5625,1.14062 -0.95312,0.5625 -1.71875,0.84375 v -1.59375 q 1.375,-0.64062 2.40625,-1.562505 1.03125,-0.92187 1.45313,-1.78125 h 1.0625 z"
         inkscape:connector-curvature="0"
         style="fill:#000000;fill-rule:nonzero" />
      <path
         id="path456"
         d="m 487.50001,103.87664 17.51184,-0.28346"
         inkscape:connector-curvature="0"
         style="fill:#000000;fill-opacity:0;fill-rule:evenodd" />
      <path
         id="path458"
         d="m 487.50001,103.87664 11.51257,-0.18635"
         inkscape:connector-curvature="0"
         style="fill-rule:evenodd;stroke:#595959;stroke-width:1;stroke-linecap:butt;stroke-linejoin:round" />
      <path
         id="path460"
         d="m 499.03931,105.34181 4.5108,-1.72497 -4.56427,-1.57807 z"
         inkscape:connector-curvature="0"
         style="fill:#595959;fill-rule:evenodd;stroke:#595959;stroke-width:1;stroke-linecap:butt" />
      <path
         id="path462"
         d="m 401.04331,102.98425 -21.48032,0.28346"
         inkscape:connector-curvature="0"
         style="fill:#000000;fill-opacity:0;fill-rule:evenodd" />
      <path
         id="path464"
         d="m 401.04331,102.98425 -21.48032,0.28346"
         inkscape:connector-curvature="0"
         style="fill-rule:evenodd;stroke:#595959;stroke-width:1;stroke-linecap:butt;stroke-linejoin:round" />
    </g>
    <path
       style="fill:#000000;fill-opacity:0;fill-rule:evenodd"
       inkscape:connector-curvature="0"
       d="m 401.04331,116.05512 h 86.4567 v 37.85825 h -86.4567 z"
       id="path470" />
    <g
       transform="translate(-1.1778151,1.5328064)"
       id="g972">
      <path
         id="path466"
         d="m 396.52361,135.73491 v 0 c 0,-8.58433 21.25061,-15.54331 47.4646,-15.54331 v 0 c 26.21393,0 47.46454,6.95898 47.46454,15.54331 v 0 c 0,8.58432 -21.25061,15.5433 -47.46454,15.5433 v 0 c -26.21399,0 -47.4646,-6.95898 -47.4646,-15.5433 z"
         inkscape:connector-curvature="0"
         style="fill:#d9ead3;fill-rule:evenodd" />
      <path
         id="path468"
         d="m 396.52361,135.73491 v 0 c 0,-8.58433 21.25061,-15.54331 47.4646,-15.54331 v 0 c 26.21393,0 47.46454,6.95898 47.46454,15.54331 v 0 c 0,8.58432 -21.25061,15.5433 -47.46454,15.5433 v 0 c -26.21399,0 -47.4646,-6.95898 -47.4646,-15.5433 z"
         inkscape:connector-curvature="0"
         style="fill-rule:evenodd;stroke:#595959;stroke-width:1;stroke-linecap:butt;stroke-linejoin:round" />
      <path
         id="path472"
         d="m 420.81454,136.47512 q 0,-3.32813 1.78125,-5.20313 1.78128,-1.89062 4.60941,-1.89062 1.84375,0 3.32812,0.89062 1.48438,0.875 2.26563,2.46875 0.78125,1.57813 0.78125,3.57813 0,2.03125 -0.82813,3.64062 -0.8125,1.59375 -2.3125,2.42188 -1.5,0.82812 -3.25,0.82812 -1.875,0 -3.35937,-0.90625 -1.48441,-0.92187 -2.25004,-2.5 -0.76562,-1.57812 -0.76562,-3.32812 z m 1.8125,0.0156 q 0,2.42187 1.29691,3.8125 1.29687,1.39062 3.26562,1.39062 2,0 3.28125,-1.40625 1.28125,-1.40625 1.28125,-3.98437 0,-1.625 -0.54687,-2.84375 -0.54688,-1.21875 -1.60938,-1.875 -1.0625,-0.67188 -2.375,-0.67188 -1.89062,0 -3.25,1.29688 -1.34378,1.28125 -1.34378,4.28125 z m 11.76144,6.48437 5.125,-13.35937 h 1.90625 l 5.46875,13.35937 h -2.01562 l -1.54688,-4.04687 h -5.59375 l -1.46875,4.04687 z m 3.85938,-5.48437 h 4.53125 l -1.40625,-3.70313 q -0.625,-1.6875 -0.9375,-2.76562 -0.26563,1.28125 -0.71875,2.54687 z m 13.45917,5.48437 v -11.78125 h -4.40625 v -1.57812 h 10.57812 v 1.57812 h -4.40625 v 11.78125 z m 15.94287,-1.57812 v 1.57812 h -8.82813 q -0.0156,-0.59375 0.1875,-1.14062 0.34375,-0.90625 1.07813,-1.78125 0.75,-0.875 2.15625,-2.01563 2.17187,-1.78125 2.9375,-2.82812 0.76562,-1.04688 0.76562,-1.96875 0,-0.98438 -0.70312,-1.64063 -0.6875,-0.67187 -1.8125,-0.67187 -1.1875,0 -1.90625,0.71875 -0.70313,0.70312 -0.70313,1.95312 l -1.6875,-0.17187 q 0.17188,-1.89063 1.29688,-2.875 1.14062,-0.98438 3.03125,-0.98438 1.92187,0 3.04687,1.0625 1.125,1.0625 1.125,2.64063 0,0.79687 -0.32812,1.57812 -0.32813,0.78125 -1.09375,1.64063 -0.75,0.84375 -2.53125,2.34375 -1.46875,1.23437 -1.89063,1.6875 -0.42187,0.4375 -0.6875,0.875 z"
         inkscape:connector-curvature="0"
         style="fill:#000000;fill-rule:nonzero" />
      <path
         id="path474"
         d="m 487.50001,135.87664 17.51184,-0.28346"
         inkscape:connector-curvature="0"
         style="fill:#000000;fill-opacity:0;fill-rule:evenodd" />
      <path
         id="path476"
         d="m 487.50001,135.87664 11.51257,-0.18636"
         inkscape:connector-curvature="0"
         style="fill-rule:evenodd;stroke:#595959;stroke-width:1;stroke-linecap:butt;stroke-linejoin:round" />
      <path
         id="path478"
         d="m 499.03931,137.34181 4.5108,-1.72497 -4.56427,-1.57805 z"
         inkscape:connector-curvature="0"
         style="fill:#595959;fill-rule:evenodd;stroke:#595959;stroke-width:1;stroke-linecap:butt" />
      <path
         id="path480"
         d="m 401.04331,134.98426 -21.48032,0.28345"
         inkscape:connector-curvature="0"
         style="fill:#000000;fill-opacity:0;fill-rule:evenodd" />
      <path
         id="path482"
         d="m 401.04331,134.98426 -21.48032,0.28345"
         inkscape:connector-curvature="0"
         style="fill-rule:evenodd;stroke:#595959;stroke-width:1;stroke-linecap:butt;stroke-linejoin:round" />
    </g>
    <path
       style="fill:#000000;fill-opacity:0;fill-rule:evenodd"
       inkscape:connector-curvature="0"
       d="m 398.68765,151.27822 h 86.4567 v 37.85826 h -86.4567 z"
       id="path488" />
    <g
       transform="translate(1.17783,0.59317017)"
       id="g982">
      <path
         id="path484"
         d="m 394.16797,170.95802 v 0 c 0,-8.58434 21.25061,-15.54332 47.4646,-15.54332 v 0 c 26.21393,0 47.46454,6.95898 47.46454,15.54332 v 0 c 0,8.58431 -21.25061,15.54329 -47.46454,15.54329 v 0 c -26.21399,0 -47.4646,-6.95898 -47.4646,-15.54329 z"
         inkscape:connector-curvature="0"
         style="fill:#9fc5e8;fill-rule:evenodd" />
      <path
         id="path486"
         d="m 394.16797,170.95802 v 0 c 0,-8.58434 21.25061,-15.54332 47.4646,-15.54332 v 0 c 26.21393,0 47.46454,6.95898 47.46454,15.54332 v 0 c 0,8.58431 -21.25061,15.54329 -47.46454,15.54329 v 0 c -26.21399,0 -47.4646,-6.95898 -47.4646,-15.54329 z"
         inkscape:connector-curvature="0"
         style="fill-rule:evenodd;stroke:#595959;stroke-width:1;stroke-linecap:butt;stroke-linejoin:round" />
      <path
         id="path490"
         d="m 418.45891,171.69821 q 0,-3.32812 1.78125,-5.20312 1.78125,-1.89063 4.60937,-1.89063 1.84375,0 3.32813,0.89063 1.48437,0.875 2.26562,2.46875 0.78125,1.57812 0.78125,3.57812 0,2.03125 -0.82812,3.64063 -0.8125,1.59375 -2.3125,2.42187 -1.5,0.82813 -3.25,0.82813 -1.875,0 -3.35938,-0.90625 -1.48437,-0.92188 -2.25,-2.5 -0.76562,-1.57813 -0.76562,-3.32813 z m 1.8125,0.0156 q 0,2.42188 1.29687,3.8125 1.29688,1.39063 3.26563,1.39063 2,0 3.28125,-1.40625 1.28125,-1.40625 1.28125,-3.98438 0,-1.625 -0.54688,-2.84375 -0.54687,-1.21875 -1.60937,-1.875 -1.0625,-0.67187 -2.375,-0.67187 -1.89063,0 -3.25,1.29687 -1.34375,1.28125 -1.34375,4.28125 z m 11.76141,6.48438 5.125,-13.35938 h 1.90625 l 5.46875,13.35938 h -2.01562 l -1.54688,-4.04688 h -5.59375 l -1.46875,4.04688 z m 3.85938,-5.48438 h 4.53125 l -1.40625,-3.70312 q -0.625,-1.6875 -0.9375,-2.76563 -0.26563,1.28125 -0.71875,2.54688 z m 13.45923,5.48438 v -11.78125 h -4.40625 v -1.57813 h 10.57812 v 1.57813 h -4.40625 v 11.78125 z m 7.33343,-3.53125 1.64063,-0.21875 q 0.28125,1.40625 0.95312,2.01562 0.6875,0.60938 1.65625,0.60938 1.15625,0 1.95313,-0.79688 0.79687,-0.79687 0.79687,-1.98437 0,-1.125 -0.73437,-1.85938 -0.73438,-0.73437 -1.875,-0.73437 -0.46875,0 -1.15625,0.17187 l 0.1875,-1.4375 q 0.15625,0.0156 0.26562,0.0156 1.04688,0 1.875,-0.54688 0.84375,-0.54687 0.84375,-1.67187 0,-0.90625 -0.60937,-1.5 -0.60938,-0.59375 -1.57813,-0.59375 -0.95312,0 -1.59375,0.60937 -0.64062,0.59375 -0.8125,1.79688 l -1.64062,-0.29688 q 0.29687,-1.64062 1.35937,-2.54687 1.0625,-0.90625 2.65625,-0.90625 1.09375,0 2,0.46875 0.92188,0.46875 1.40625,1.28125 0.5,0.8125 0.5,1.71875 0,0.85937 -0.46875,1.57812 -0.46875,0.70313 -1.375,1.125 1.1875,0.28125 1.84375,1.14063 0.65625,0.85937 0.65625,2.15625 0,1.73437 -1.28125,2.95312 -1.26562,1.21875 -3.21875,1.21875 -1.76562,0 -2.92187,-1.04687 -1.15625,-1.04688 -1.32813,-2.71875 z"
         inkscape:connector-curvature="0"
         style="fill:#000000;fill-rule:nonzero" />
      <path
         id="path492"
         d="m 485.14435,171.09973 17.51184,-0.28345"
         inkscape:connector-curvature="0"
         style="fill:#000000;fill-opacity:0;fill-rule:evenodd" />
      <path
         id="path494"
         d="m 485.14435,171.09973 11.51257,-0.18636"
         inkscape:connector-curvature="0"
         style="fill-rule:evenodd;stroke:#595959;stroke-width:1;stroke-linecap:butt;stroke-linejoin:round" />
      <path
         id="path496"
         d="m 496.68371,172.56489 4.51074,-1.72496 -4.56421,-1.57808 z"
         inkscape:connector-curvature="0"
         style="fill:#595959;fill-rule:evenodd;stroke:#595959;stroke-width:1;stroke-linecap:butt" />
      <path
         id="path498"
         d="m 398.68765,170.20735 -21.48029,0.28346"
         inkscape:connector-curvature="0"
         style="fill:#000000;fill-opacity:0;fill-rule:evenodd" />
      <path
         id="path500"
         d="m 398.68765,170.20735 -21.48029,0.28346"
         inkscape:connector-curvature="0"
         style="fill-rule:evenodd;stroke:#595959;stroke-width:1;stroke-linecap:butt;stroke-linejoin:round" />
    </g>
    <path
       style="fill:#fff2cc;fill-rule:evenodd"
       inkscape:connector-curvature="0"
       d="m 485.69556,205.83464 v 0 c 0,-8.58434 -21.25061,-15.5433 -47.4646,-15.5433 v 0 c -26.21393,0 -47.46454,6.95896 -47.46454,15.5433 v 0 c 0,8.58433 21.25061,15.5433 47.46454,15.5433 v 0 c 26.21399,0 47.4646,-6.95897 47.4646,-15.5433 z"
       id="path502" />
    <path
       style="fill:#000000;fill-opacity:0;fill-rule:evenodd"
       inkscape:connector-curvature="0"
       d="m 481.17584,186.15485 h -86.45666 v 37.85828 h 86.45666 z"
       id="path506" />
    <g
       transform="translate(1.1712336)"
       id="g1000">
      <path
         id="path504"
         d="m 485.69556,205.83464 v 0 c 0,-8.58434 -21.25061,-15.5433 -47.4646,-15.5433 v 0 c -26.21393,0 -47.46454,6.95896 -47.46454,15.5433 v 0 c 0,8.58433 21.25061,15.5433 47.46454,15.5433 v 0 c 26.21399,0 47.4646,-6.95897 47.4646,-15.5433 z"
         inkscape:connector-curvature="0"
         style="fill-rule:evenodd;stroke:#595959;stroke-width:1;stroke-linecap:butt;stroke-linejoin:round" />
      <g
         id="g990">
        <path
           style="fill:#000000;fill-rule:nonzero"
           inkscape:connector-curvature="0"
           d="m 415.56911,207.84047 v -1.57813 h 5.65625 v 4.95313 q -1.29688,1.04687 -2.6875,1.57812 -1.375,0.51563 -2.84375,0.51563 -1.96875,0 -3.57813,-0.84375 -1.60937,-0.84375 -2.42187,-2.4375 -0.8125,-1.59375 -0.8125,-3.5625 0,-1.95313 0.8125,-3.64063 0.8125,-1.6875 2.34375,-2.5 1.53125,-0.82812 3.51562,-0.82812 1.45313,0 2.625,0.46875 1.17188,0.46875 1.82813,1.3125 0.67187,0.82812 1.01562,2.17187 l -1.59375,0.4375 q -0.29687,-1.01562 -0.75,-1.59375 -0.4375,-0.59375 -1.26562,-0.9375 -0.82813,-0.34375 -1.84375,-0.34375 -1.20313,0 -2.09375,0.375 -0.89063,0.35938 -1.4375,0.96875 -0.53125,0.59375 -0.82813,1.3125 -0.51562,1.23438 -0.51562,2.6875 0,1.78125 0.60937,2.98438 0.625,1.20312 1.79688,1.79687 1.17187,0.57813 2.5,0.57813 1.14062,0 2.23437,-0.4375 1.09375,-0.45313 1.65625,-0.95313 v -2.48437 z m 8.18332,5.23437 v -13.35937 h 1.78125 v 11.78125 h 6.5625 v 1.57812 z m 19.21942,-13.35937 h 1.76563 v 7.71875 q 0,2.01562 -0.45313,3.20312 -0.45312,1.1875 -1.64062,1.9375 -1.1875,0.73438 -3.125,0.73438 -1.875,0 -3.07813,-0.64063 -1.1875,-0.65625 -1.70312,-1.875 -0.5,-1.23437 -0.5,-3.35937 v -7.71875 h 1.76562 v 7.71875 q 0,1.73437 0.3125,2.5625 0.32813,0.8125 1.10938,1.26562 0.79687,0.45313 1.9375,0.45313 1.95312,0 2.78125,-0.89063 0.82812,-0.89062 0.82812,-3.39062 z m 8.11359,13.35937 v -11.78125 h -4.40625 v -1.57812 h 10.57812 v 1.57812 h -4.40625 v 11.78125 z m 7.56787,-3.09375 1.57812,-0.14062 q 0.20313,1.10937 0.76563,1.60937 0.5625,0.5 1.45312,0.5 0.75,0 1.3125,-0.34375 0.57813,-0.34375 0.9375,-0.92187 0.375,-0.57813 0.60938,-1.5625 0.25,-0.98438 0.25,-2 0,-0.10938 0,-0.32813 -0.5,0.78125 -1.35938,1.26563 -0.84375,0.48437 -1.82812,0.48437 -1.67188,0 -2.8125,-1.20312 -1.14063,-1.20313 -1.14063,-3.17188 0,-2.03125 1.1875,-3.26562 1.20313,-1.23438 3,-1.23438 1.3125,0 2.39063,0.70313 1.07812,0.70312 1.64062,2 0.5625,1.29687 0.5625,3.75 0,2.5625 -0.5625,4.07812 -0.5625,1.51563 -1.65625,2.3125 -1.09375,0.79688 -2.57812,0.79688 -1.5625,0 -2.5625,-0.875 -0.98438,-0.875 -1.1875,-2.45313 z m 6.71875,-5.89062 q 0,-1.40625 -0.75,-2.23438 -0.75,-0.82812 -1.8125,-0.82812 -1.09375,0 -1.90625,0.89062 -0.8125,0.89063 -0.8125,2.3125 0,1.28125 0.76562,2.07813 0.78125,0.79687 1.90625,0.79687 1.14063,0 1.875,-0.79687 0.73438,-0.79688 0.73438,-2.21875 z"
           id="path508" />
        <path
           style="fill:#000000;fill-opacity:0;fill-rule:evenodd"
           inkscape:connector-curvature="0"
           d="m 394.71918,205.97639 -17.51181,-0.28346"
           id="path510" />
        <path
           style="fill-rule:evenodd;stroke:#595959;stroke-width:1;stroke-linecap:butt;stroke-linejoin:round"
           inkscape:connector-curvature="0"
           d="m 394.71918,205.97639 -11.5126,-0.18636"
           id="path512" />
        <path
           style="fill:#595959;fill-rule:evenodd;stroke:#595959;stroke-width:1;stroke-linecap:butt"
           inkscape:connector-curvature="0"
           d="m 383.23331,204.1385 -4.56424,1.57806 4.51077,1.72497 z"
           id="path514" />
        <path
           style="fill:#000000;fill-opacity:0;fill-rule:evenodd"
           inkscape:connector-curvature="0"
           d="m 481.17584,205.08399 21.48035,0.28345"
           id="path516" />
        <path
           style="fill-rule:evenodd;stroke:#595959;stroke-width:1;stroke-linecap:butt;stroke-linejoin:round"
           inkscape:connector-curvature="0"
           d="m 481.17584,205.08399 21.48035,0.28345"
           id="path518" />
      </g>
    </g>
  </g>
  <g
     id="g4979"
     transform="translate(-7.5200001,-24.749903)">
    <path
       style="fill:#000000;fill-rule:nonzero"
       inkscape:connector-curvature="0"
       d="m 641.15951,337.71789 5.125,-13.35938 h 1.90625 l 5.46875,13.35938 h -2.01563 l -1.54687,-4.04688 h -5.59375 l -1.46875,4.04688 z m 3.85937,-5.48438 h 4.53125 l -1.40625,-3.70312 q -0.625,-1.6875 -0.9375,-2.76563 -0.26562,1.28125 -0.71875,2.54688 z m 9.8498,9.1875 v -13.375 h 1.48437 v 1.25 q 0.53125,-0.73437 1.1875,-1.09375 0.67188,-0.375 1.625,-0.375 1.23438,0 2.17188,0.64063 0.95312,0.625 1.4375,1.79687 0.48437,1.15625 0.48437,2.54688 0,1.48437 -0.53125,2.67187 -0.53125,1.1875 -1.54687,1.82813 -1.01563,0.625 -2.14063,0.625 -0.8125,0 -1.46875,-0.34375 -0.65625,-0.34375 -1.0625,-0.875 v 4.70312 z m 1.48437,-8.48437 q 0,1.85937 0.75,2.76562 0.76563,0.89063 1.82813,0.89063 1.09375,0 1.875,-0.92188 0.78125,-0.9375 0.78125,-2.875 0,-1.84375 -0.76563,-2.76562 -0.75,-0.92188 -1.8125,-0.92188 -1.04687,0 -1.85937,0.98438 -0.79688,0.96875 -0.79688,2.84375 z m 8.89136,-6.6875 v -1.89063 h 1.64062 v 1.89063 z m 0,11.46875 v -9.67188 h 1.64062 v 9.67188 z m 10.45734,-3.54688 1.60937,0.21875 q -0.26562,1.65625 -1.35937,2.60938 -1.07813,0.9375 -2.67188,0.9375 -1.98437,0 -3.1875,-1.29688 -1.20312,-1.29687 -1.20312,-3.71875 0,-1.57812 0.51562,-2.75 0.51563,-1.17187 1.57813,-1.75 1.0625,-0.59375 2.3125,-0.59375 1.57812,0 2.57812,0.79688 1,0.79687 1.28125,2.26562 l -1.59375,0.23438 q -0.23437,-0.96875 -0.8125,-1.45313 -0.57812,-0.5 -1.39062,-0.5 -1.23438,0 -2.01563,0.89063 -0.78125,0.89062 -0.78125,2.8125 0,1.95312 0.75,2.84375 0.75,0.875 1.95313,0.875 0.96875,0 1.60937,-0.59375 0.65625,-0.59375 0.82813,-1.82813 z m 9.32812,2.35938 q -0.92187,0.76562 -1.76562,1.09375 -0.82813,0.3125 -1.79688,0.3125 -1.59375,0 -2.45312,-0.78125 -0.85938,-0.78125 -0.85938,-1.98438 0,-0.71875 0.32813,-1.29687 0.32812,-0.59375 0.84375,-0.9375 0.53125,-0.35938 1.1875,-0.54688 0.46875,-0.125 1.45312,-0.25 1.98438,-0.23437 2.92188,-0.5625 0.0156,-0.34375 0.0156,-0.42187 0,-1 -0.46875,-1.42188 -0.625,-0.54687 -1.875,-0.54687 -1.15625,0 -1.70312,0.40625 -0.54688,0.40625 -0.8125,1.42187 l -1.60938,-0.21875 q 0.21875,-1.01562 0.71875,-1.64062 0.5,-0.64063 1.45313,-0.98438 0.95312,-0.34375 2.1875,-0.34375 1.25,0 2.01562,0.29688 0.78125,0.28125 1.14063,0.73437 0.375,0.4375 0.51562,1.10938 0.0781,0.42187 0.0781,1.51562 v 2.1875 q 0,2.28125 0.10937,2.89063 0.10938,0.59375 0.40625,1.15625 h -1.70312 q -0.26563,-0.51563 -0.32813,-1.1875 z m -0.14062,-3.67188 q -0.89063,0.375 -2.67188,0.625 -1.01562,0.14063 -1.4375,0.32813 -0.42187,0.1875 -0.65625,0.53125 -0.21875,0.34375 -0.21875,0.78125 0,0.65625 0.5,1.09375 0.5,0.4375 1.45313,0.4375 0.9375,0 1.67187,-0.40625 0.75,-0.42188 1.09375,-1.14063 0.26563,-0.5625 0.26563,-1.64062 z m 4.15698,4.85938 v -13.35938 h 1.64062 v 13.35938 z"
       id="path522" />
    <path
       style="fill:#000000;fill-rule:nonzero"
       inkscape:connector-curvature="0"
       d="m 623.24506,359.71789 v -9.67188 h 1.46875 v 1.35938 q 0.45312,-0.71875 1.20312,-1.14063 0.76563,-0.4375 1.71875,-0.4375 1.07813,0 1.76563,0.45313 0.6875,0.4375 0.96875,1.23437 1.15625,-1.6875 2.98437,-1.6875 1.45313,0 2.21875,0.79688 0.78125,0.79687 0.78125,2.45312 v 6.64063 h -1.64062 v -6.09375 q 0,-0.98438 -0.15625,-1.40625 -0.15625,-0.4375 -0.57813,-0.70313 -0.42187,-0.26562 -0.98437,-0.26562 -1.01563,0 -1.6875,0.6875 -0.67188,0.67187 -0.67188,2.15625 v 5.625 h -1.64062 v -6.28125 q 0,-1.09375 -0.40625,-1.64063 -0.40625,-0.54687 -1.3125,-0.54687 -0.6875,0 -1.28125,0.35937 -0.59375,0.35938 -0.85938,1.0625 -0.25,0.70313 -0.25,2.03125 v 5.01563 z m 22.16583,-3.10938 1.6875,0.20313 q -0.40625,1.48437 -1.48437,2.3125 -1.07813,0.8125 -2.76563,0.8125 -2.125,0 -3.375,-1.29688 -1.23437,-1.3125 -1.23437,-3.67187 0,-2.45313 1.25,-3.79688 1.26562,-1.34375 3.26562,-1.34375 1.9375,0 3.15625,1.32813 1.23438,1.3125 1.23438,3.70312 0,0.15625 0,0.4375 h -7.21875 q 0.0937,1.59375 0.90625,2.45313 0.8125,0.84375 2.01562,0.84375 0.90625,0 1.54688,-0.46875 0.64062,-0.48438 1.01562,-1.51563 z m -5.39062,-2.65625 h 5.40625 q -0.10938,-1.21875 -0.625,-1.82812 -0.78125,-0.95313 -2.03125,-0.95313 -1.125,0 -1.90625,0.76563 -0.76563,0.75 -0.84375,2.01562 z m 9.14129,5.76563 v -9.67188 h 1.46875 v 1.35938 q 0.45313,-0.71875 1.20313,-1.14063 0.76562,-0.4375 1.71875,-0.4375 1.07812,0 1.76562,0.45313 0.6875,0.4375 0.96875,1.23437 1.15625,-1.6875 2.98438,-1.6875 1.45312,0 2.21875,0.79688 0.78125,0.79687 0.78125,2.45312 v 6.64063 h -1.64063 v -6.09375 q 0,-0.98438 -0.15625,-1.40625 -0.15625,-0.4375 -0.57812,-0.70313 -0.42188,-0.26562 -0.98438,-0.26562 -1.01562,0 -1.6875,0.6875 -0.67187,0.67187 -0.67187,2.15625 v 5.625 h -1.64063 v -6.28125 q 0,-1.09375 -0.40625,-1.64063 -0.40625,-0.54687 -1.3125,-0.54687 -0.6875,0 -1.28125,0.35937 -0.59375,0.35938 -0.85937,1.0625 -0.25,0.70313 -0.25,2.03125 v 5.01563 z m 17.04084,0 h -1.51563 v -13.35938 h 1.64063 v 4.76563 q 1.04687,-1.29688 2.65625,-1.29688 0.89062,0 1.6875,0.35938 0.79687,0.35937 1.3125,1.01562 0.51562,0.64063 0.79687,1.5625 0.29688,0.92188 0.29688,1.96875 0,2.48438 -1.23438,3.84375 -1.21875,1.35938 -2.95312,1.35938 -1.70313,0 -2.6875,-1.4375 z m -0.0156,-4.90625 q 0,1.73437 0.48438,2.51562 0.76562,1.26563 2.09375,1.26563 1.07812,0 1.85937,-0.9375 0.78125,-0.9375 0.78125,-2.78125 0,-1.89063 -0.75,-2.79688 -0.75,-0.90625 -1.82812,-0.90625 -1.0625,0 -1.85938,0.9375 -0.78125,0.9375 -0.78125,2.70313 z m 8.87573,4.90625 v -9.67188 h 1.46875 v 1.46875 q 0.5625,-1.03125 1.03125,-1.35937 0.48438,-0.32813 1.0625,-0.32813 0.82813,0 1.6875,0.53125 l -0.5625,1.51563 q -0.60937,-0.35938 -1.20312,-0.35938 -0.54688,0 -0.96875,0.32813 -0.42188,0.32812 -0.60938,0.89062 -0.28125,0.875 -0.28125,1.92188 v 5.0625 z m 12.54078,-1.1875 q -0.92188,0.76562 -1.76563,1.09375 -0.82812,0.3125 -1.79687,0.3125 -1.59375,0 -2.45313,-0.78125 -0.85937,-0.78125 -0.85937,-1.98438 0,-0.71875 0.32812,-1.29687 0.32813,-0.59375 0.84375,-0.9375 0.53125,-0.35938 1.1875,-0.54688 0.46875,-0.125 1.45313,-0.25 1.98437,-0.23437 2.92187,-0.5625 0.0156,-0.34375 0.0156,-0.42187 0,-1 -0.46875,-1.42188 -0.625,-0.54687 -1.875,-0.54687 -1.15625,0 -1.70313,0.40625 -0.54687,0.40625 -0.8125,1.42187 l -1.60937,-0.21875 q 0.21875,-1.01562 0.71875,-1.64062 0.5,-0.64063 1.45312,-0.98438 0.95313,-0.34375 2.1875,-0.34375 1.25,0 2.01563,0.29688 0.78125,0.28125 1.14062,0.73437 0.375,0.4375 0.51563,1.10938 0.0781,0.42187 0.0781,1.51562 v 2.1875 q 0,2.28125 0.10938,2.89063 0.10937,0.59375 0.40625,1.15625 h -1.70313 q -0.26562,-0.51563 -0.32812,-1.1875 z m -0.14063,-3.67188 q -0.89062,0.375 -2.67187,0.625 -1.01563,0.14063 -1.4375,0.32813 -0.42188,0.1875 -0.65625,0.53125 -0.21875,0.34375 -0.21875,0.78125 0,0.65625 0.5,1.09375 0.5,0.4375 1.45312,0.4375 0.9375,0 1.67188,-0.40625 0.75,-0.42188 1.09375,-1.14063 0.26562,-0.5625 0.26562,-1.64062 z m 4.20386,4.85938 v -9.67188 h 1.46875 v 1.375 q 1.0625,-1.59375 3.07812,-1.59375 0.875,0 1.60938,0.3125 0.73437,0.3125 1.09375,0.82813 0.375,0.5 0.51562,1.20312 0.0937,0.45313 0.0937,1.59375 v 5.95313 h -1.64062 v -5.89063 q 0,-1 -0.20313,-1.48437 -0.1875,-0.5 -0.67187,-0.79688 -0.48438,-0.29687 -1.14063,-0.29687 -1.04687,0 -1.8125,0.67187 -0.75,0.65625 -0.75,2.51563 v 5.28125 z m 17.00073,-3.10938 1.6875,0.20313 q -0.40625,1.48437 -1.48438,2.3125 -1.07812,0.8125 -2.76562,0.8125 -2.125,0 -3.375,-1.29688 -1.23438,-1.3125 -1.23438,-3.67187 0,-2.45313 1.25,-3.79688 1.26563,-1.34375 3.26563,-1.34375 1.9375,0 3.15625,1.32813 1.23437,1.3125 1.23437,3.70312 0,0.15625 0,0.4375 h -7.21875 q 0.0937,1.59375 0.90625,2.45313 0.8125,0.84375 2.01563,0.84375 0.90625,0 1.54687,-0.46875 0.64063,-0.48438 1.01563,-1.51563 z m -5.39063,-2.65625 h 5.40625 q -0.10937,-1.21875 -0.625,-1.82812 -0.78125,-0.95313 -2.03125,-0.95313 -1.125,0 -1.90625,0.76563 -0.76562,0.75 -0.84375,2.01562 z"
       id="path524" />
  </g>
  <g
     id="g4975"
     transform="translate(-7.5200001,-21.080623)">
    <path
       style="fill:#000000;fill-rule:nonzero"
       inkscape:connector-curvature="0"
       d="m 408.67963,334.0486 v -13.35937 h 5.01562 q 1.53125,0 2.45313,0.40625 0.92187,0.40625 1.4375,1.25 0.53125,0.84375 0.53125,1.76562 0,0.85938 -0.46875,1.625 -0.45313,0.75 -1.39063,1.20313 1.20313,0.35937 1.85938,1.21875 0.65625,0.85937 0.65625,2.01562 0,0.9375 -0.40625,1.75 -0.39063,0.79688 -0.98438,1.23438 -0.57812,0.4375 -1.45312,0.67187 -0.875,0.21875 -2.15625,0.21875 z m 1.78125,-7.75 h 2.875 q 1.1875,0 1.6875,-0.14062 0.67187,-0.20313 1.01562,-0.67188 0.34375,-0.46875 0.34375,-1.17187 0,-0.65625 -0.32812,-1.15625 -0.3125,-0.51563 -0.90625,-0.70313 -0.59375,-0.1875 -2.03125,-0.1875 h -2.65625 z m 0,6.17188 h 3.3125 q 0.85937,0 1.20312,-0.0625 0.60938,-0.10938 1.01563,-0.35938 0.42187,-0.26562 0.6875,-0.75 0.26562,-0.48437 0.26562,-1.125 0,-0.75 -0.39062,-1.29687 -0.375,-0.54688 -1.0625,-0.76563 -0.67188,-0.23437 -1.95313,-0.23437 h -3.07812 z m 16.84979,0.39062 q -0.92187,0.76563 -1.76562,1.09375 -0.8281,0.3125 -1.79685,0.3125 -1.59375,0 -2.45312,-0.78125 -0.85938,-0.78125 -0.85938,-1.98437 0,-0.71875 0.32813,-1.29688 0.32812,-0.59375 0.84375,-0.9375 0.53125,-0.35937 1.1875,-0.54687 0.46875,-0.125 1.45312,-0.25 1.98435,-0.23438 2.92185,-0.5625 0.0156,-0.34375 0.0156,-0.42188 0,-1 -0.46875,-1.42187 -0.625,-0.54688 -1.87497,-0.54688 -1.15625,0 -1.70312,0.40625 -0.54688,0.40625 -0.8125,1.42188 l -1.60938,-0.21875 q 0.21875,-1.01563 0.71875,-1.64063 0.5,-0.64062 1.45313,-0.98437 0.95312,-0.34375 2.1875,-0.34375 1.24997,0 2.01559,0.29687 0.78125,0.28125 1.14063,0.73438 0.375,0.4375 0.51562,1.10937 0.0781,0.42188 0.0781,1.51563 v 2.1875 q 0,2.28125 0.10937,2.89062 0.10938,0.59375 0.40625,1.15625 h -1.70312 q -0.26563,-0.51562 -0.32813,-1.1875 z m -0.14062,-3.67187 q -0.89063,0.375 -2.67185,0.625 -1.01562,0.14062 -1.4375,0.32812 -0.42187,0.1875 -0.65625,0.53125 -0.21875,0.34375 -0.21875,0.78125 0,0.65625 0.5,1.09375 0.5,0.4375 1.45313,0.4375 0.9375,0 1.67184,-0.40625 0.75,-0.42187 1.09375,-1.14062 0.26563,-0.5625 0.26563,-1.64063 z m 3.5476,1.96875 1.625,-0.25 q 0.125,0.96875 0.75,1.5 0.625,0.51562 1.75,0.51562 1.125,0 1.67188,-0.45312 0.54687,-0.46875 0.54687,-1.09375 0,-0.54688 -0.48437,-0.875 -0.32813,-0.21875 -1.67188,-0.54688 -1.8125,-0.46875 -2.51562,-0.79687 -0.6875,-0.32813 -1.04688,-0.90625 -0.35937,-0.59375 -0.35937,-1.3125 0,-0.64063 0.29687,-1.1875 0.29688,-0.5625 0.8125,-0.92188 0.375,-0.28125 1.03125,-0.46875 0.67188,-0.20312 1.42188,-0.20312 1.14062,0 2,0.32812 0.85937,0.32813 1.26562,0.89063 0.42188,0.5625 0.57813,1.5 l -1.60938,0.21875 q -0.10937,-0.75 -0.64062,-1.17188 -0.51563,-0.42187 -1.46875,-0.42187 -1.14063,0 -1.625,0.375 -0.46875,0.375 -0.46875,0.875 0,0.3125 0.1875,0.57812 0.20312,0.26563 0.64062,0.4375 0.23438,0.0937 1.4375,0.42188 1.75,0.45312 2.4375,0.75 0.6875,0.29687 1.07813,0.85937 0.39062,0.5625 0.39062,1.40625 0,0.82813 -0.48437,1.54688 -0.46875,0.71875 -1.375,1.125 -0.90625,0.39062 -2.04688,0.39062 -1.875,0 -2.875,-0.78125 -0.98437,-0.78125 -1.25,-2.32812 z m 9.375,-1.95313 q 0,-2.6875 1.48438,-3.96875 1.25,-1.07812 3.04687,-1.07812 2,0 3.26563,1.3125 1.26562,1.29687 1.26562,3.60937 0,1.85938 -0.5625,2.9375 -0.5625,1.0625 -1.64062,1.65625 -1.0625,0.59375 -2.32813,0.59375 -2.03125,0 -3.28125,-1.29687 -1.25,-1.3125 -1.25,-3.76563 z m 1.6875,0 q 0,1.85938 0.79688,2.79688 0.8125,0.92187 2.04687,0.92187 1.21875,0 2.03125,-0.92187 0.8125,-0.9375 0.8125,-2.84375 0,-1.79688 -0.8125,-2.71875 -0.8125,-0.92188 -2.03125,-0.92188 -1.23437,0 -2.04687,0.92188 -0.79688,0.90625 -0.79688,2.76562 z m 9.25074,4.84375 v -13.35937 h 1.64062 v 13.35937 z m 10.50415,-1.1875 q -0.92188,0.76563 -1.76563,1.09375 -0.82812,0.3125 -1.79687,0.3125 -1.59369,0 -2.45307,-0.78125 -0.85937,-0.78125 -0.85937,-1.98437 0,-0.71875 0.32812,-1.29688 0.32813,-0.59375 0.84375,-0.9375 0.53125,-0.35937 1.1875,-0.54687 0.46869,-0.125 1.45307,-0.25 1.98437,-0.23438 2.92187,-0.5625 0.0156,-0.34375 0.0156,-0.42188 0,-1 -0.46875,-1.42187 -0.625,-0.54688 -1.875,-0.54688 -1.15625,0 -1.70313,0.40625 -0.54681,0.40625 -0.81244,1.42188 l -1.60937,-0.21875 q 0.21875,-1.01563 0.71875,-1.64063 0.5,-0.64062 1.45312,-0.98437 0.95307,-0.34375 2.18744,-0.34375 1.25,0 2.01563,0.29687 0.78125,0.28125 1.14062,0.73438 0.375,0.4375 0.51563,1.10937 0.0781,0.42188 0.0781,1.51563 v 2.1875 q 0,2.28125 0.10938,2.89062 0.10937,0.59375 0.40625,1.15625 h -1.70313 q -0.26562,-0.51562 -0.32812,-1.1875 z m -0.14063,-3.67187 q -0.89062,0.375 -2.67187,0.625 -1.01563,0.14062 -1.4375,0.32812 -0.42182,0.1875 -0.65619,0.53125 -0.21875,0.34375 -0.21875,0.78125 0,0.65625 0.5,1.09375 0.49994,0.4375 1.45306,0.4375 0.9375,0 1.67188,-0.40625 0.75,-0.42187 1.09375,-1.14062 0.26562,-0.5625 0.26562,-1.64063 z m 7.78198,3.39062 0.23438,1.45313 q -0.6875,0.14062 -1.23438,0.14062 -0.89062,0 -1.39062,-0.28125 -0.48438,-0.28125 -0.6875,-0.73437 -0.20313,-0.46875 -0.20313,-1.9375 v -5.57813 h -1.20312 v -1.26562 h 1.20312 v -2.39063 l 1.625,-0.98437 v 3.375 h 1.65625 v 1.26562 h -1.65625 v 5.67188 q 0,0.6875 0.0781,0.89062 0.0937,0.20313 0.28125,0.32813 0.20312,0.10937 0.57812,0.10937 0.26563,0 0.71875,-0.0625 z m 8.23017,-1.64062 1.6875,0.20312 q -0.40625,1.48438 -1.48438,2.3125 -1.07812,0.8125 -2.76562,0.8125 -2.125,0 -3.375,-1.29687 -1.23438,-1.3125 -1.23438,-3.67188 0,-2.45312 1.25,-3.79687 1.26563,-1.34375 3.26563,-1.34375 1.9375,0 3.15625,1.32812 1.23437,1.3125 1.23437,3.70313 0,0.15625 0,0.4375 h -7.21875 q 0.0937,1.59375 0.90625,2.45312 0.8125,0.84375 2.01563,0.84375 0.90625,0 1.54687,-0.46875 0.64063,-0.48437 1.01563,-1.51562 z m -5.39063,-2.65625 h 5.40625 q -0.10937,-1.21875 -0.625,-1.82813 -0.78125,-0.95312 -2.03125,-0.95312 -1.125,0 -1.90625,0.76562 -0.76562,0.75 -0.84375,2.01563 z m 9.12573,5.76562 v -9.67187 h 1.46875 v 1.46875 q 0.5625,-1.03125 1.03125,-1.35938 0.48438,-0.32812 1.0625,-0.32812 0.82813,0 1.6875,0.53125 l -0.5625,1.51562 q -0.60937,-0.35937 -1.20312,-0.35937 -0.54688,0 -0.96875,0.32812 -0.42188,0.32813 -0.60938,0.89063 -0.28125,0.875 -0.28125,1.92187 v 5.0625 z m 12.54084,-1.1875 q -0.92188,0.76563 -1.76563,1.09375 -0.82812,0.3125 -1.79687,0.3125 -1.59375,0 -2.45313,-0.78125 -0.85937,-0.78125 -0.85937,-1.98437 0,-0.71875 0.32812,-1.29688 0.32813,-0.59375 0.84375,-0.9375 0.53125,-0.35937 1.1875,-0.54687 0.46875,-0.125 1.45313,-0.25 1.98437,-0.23438 2.92187,-0.5625 0.0156,-0.34375 0.0156,-0.42188 0,-1 -0.46875,-1.42187 -0.625,-0.54688 -1.875,-0.54688 -1.15625,0 -1.70313,0.40625 -0.54687,0.40625 -0.8125,1.42188 l -1.60937,-0.21875 q 0.21875,-1.01563 0.71875,-1.64063 0.5,-0.64062 1.45312,-0.98437 0.95313,-0.34375 2.1875,-0.34375 1.25,0 2.01563,0.29687 0.78125,0.28125 1.14062,0.73438 0.375,0.4375 0.51563,1.10937 0.0781,0.42188 0.0781,1.51563 v 2.1875 q 0,2.28125 0.10938,2.89062 0.10937,0.59375 0.40625,1.15625 h -1.70313 q -0.26562,-0.51562 -0.32812,-1.1875 z m -0.14063,-3.67187 q -0.89062,0.375 -2.67187,0.625 -1.01563,0.14062 -1.4375,0.32812 -0.42188,0.1875 -0.65625,0.53125 -0.21875,0.34375 -0.21875,0.78125 0,0.65625 0.5,1.09375 0.5,0.4375 1.45312,0.4375 0.9375,0 1.67188,-0.40625 0.75,-0.42187 1.09375,-1.14062 0.26562,-0.5625 0.26562,-1.64063 z m 4.15692,4.85937 v -13.35937 h 1.64063 v 13.35937 z"
       id="path528" />
    <path
       style="fill:#000000;fill-rule:nonzero"
       inkscape:connector-curvature="0"
       d="m 410.63614,356.0486 v -9.67187 h 1.46875 v 1.35937 q 0.45312,-0.71875 1.20312,-1.14062 0.76563,-0.4375 1.71875,-0.4375 1.07813,0 1.76563,0.45312 0.6875,0.4375 0.96875,1.23438 1.15625,-1.6875 2.98437,-1.6875 1.45313,0 2.21875,0.79687 0.78125,0.79688 0.78125,2.45313 v 6.64062 h -1.64062 v -6.09375 q 0,-0.98437 -0.15625,-1.40625 -0.15625,-0.4375 -0.57813,-0.70312 -0.42187,-0.26563 -0.98437,-0.26563 -1.01563,0 -1.6875,0.6875 -0.67188,0.67188 -0.67188,2.15625 v 5.625 h -1.64062 v -6.28125 q 0,-1.09375 -0.40625,-1.64062 -0.40625,-0.54688 -1.3125,-0.54688 -0.6875,0 -1.28125,0.35938 -0.59375,0.35937 -0.85938,1.0625 -0.25,0.70312 -0.25,2.03125 v 5.01562 z m 22.1658,-3.10937 1.6875,0.20312 q -0.40625,1.48438 -1.48437,2.3125 -1.07813,0.8125 -2.76563,0.8125 -2.125,0 -3.375,-1.29687 -1.23437,-1.3125 -1.23437,-3.67188 0,-2.45312 1.25,-3.79687 1.26562,-1.34375 3.26562,-1.34375 1.9375,0 3.15625,1.32812 1.23438,1.3125 1.23438,3.70313 0,0.15625 0,0.4375 h -7.21875 q 0.0937,1.59375 0.90625,2.45312 0.8125,0.84375 2.01562,0.84375 0.90625,0 1.54688,-0.46875 0.64062,-0.48437 1.01562,-1.51562 z m -5.39062,-2.65625 h 5.40625 q -0.10938,-1.21875 -0.625,-1.82813 -0.78125,-0.95312 -2.03125,-0.95312 -1.125,0 -1.90625,0.76562 -0.76563,0.75 -0.84375,2.01563 z m 9.14135,5.76562 v -9.67187 h 1.46875 v 1.35937 q 0.45313,-0.71875 1.20313,-1.14062 0.76562,-0.4375 1.71875,-0.4375 1.07812,0 1.76562,0.45312 0.6875,0.4375 0.96875,1.23438 1.15625,-1.6875 2.98438,-1.6875 1.45312,0 2.21875,0.79687 0.78125,0.79688 0.78125,2.45313 v 6.64062 h -1.64063 v -6.09375 q 0,-0.98437 -0.15625,-1.40625 -0.15625,-0.4375 -0.57812,-0.70312 -0.42188,-0.26563 -0.98438,-0.26563 -1.01562,0 -1.6875,0.6875 -0.67187,0.67188 -0.67187,2.15625 v 5.625 h -1.64063 v -6.28125 q 0,-1.09375 -0.40625,-1.64062 -0.40625,-0.54688 -1.3125,-0.54688 -0.6875,0 -1.28125,0.35938 -0.59375,0.35937 -0.85937,1.0625 -0.25,0.70312 -0.25,2.03125 v 5.01562 z m 17.04077,0 h -1.51562 v -13.35937 h 1.64062 v 4.76562 q 1.04688,-1.29687 2.65625,-1.29687 0.89063,0 1.6875,0.35937 0.79688,0.35938 1.3125,1.01563 0.51563,0.64062 0.79688,1.5625 0.29687,0.92187 0.29687,1.96875 0,2.48437 -1.23437,3.84375 -1.21875,1.35937 -2.95313,1.35937 -1.70312,0 -2.6875,-1.4375 z m -0.0156,-4.90625 q 0,1.73438 0.48437,2.51563 0.76563,1.26562 2.09375,1.26562 1.07813,0 1.85938,-0.9375 0.78125,-0.9375 0.78125,-2.78125 0,-1.89062 -0.75,-2.79687 -0.75,-0.90625 -1.82813,-0.90625 -1.0625,0 -1.85937,0.9375 -0.78125,0.9375 -0.78125,2.70312 z m 8.87573,4.90625 v -9.67187 h 1.46875 v 1.46875 q 0.5625,-1.03125 1.03125,-1.35938 0.48438,-0.32812 1.0625,-0.32812 0.82813,0 1.6875,0.53125 l -0.5625,1.51562 q -0.60937,-0.35937 -1.20312,-0.35937 -0.54688,0 -0.96875,0.32812 -0.42188,0.32813 -0.60938,0.89063 -0.28125,0.875 -0.28125,1.92187 v 5.0625 z m 12.54077,-1.1875 q -0.92187,0.76563 -1.76562,1.09375 -0.82813,0.3125 -1.79688,0.3125 -1.59375,0 -2.45312,-0.78125 -0.85938,-0.78125 -0.85938,-1.98437 0,-0.71875 0.32813,-1.29688 0.32812,-0.59375 0.84375,-0.9375 0.53125,-0.35937 1.1875,-0.54687 0.46875,-0.125 1.45312,-0.25 1.98438,-0.23438 2.92188,-0.5625 0.0156,-0.34375 0.0156,-0.42188 0,-1 -0.46875,-1.42187 -0.625,-0.54688 -1.875,-0.54688 -1.15625,0 -1.70312,0.40625 -0.54688,0.40625 -0.8125,1.42188 l -1.60938,-0.21875 q 0.21875,-1.01563 0.71875,-1.64063 0.5,-0.64062 1.45313,-0.98437 0.95312,-0.34375 2.1875,-0.34375 1.25,0 2.01562,0.29687 0.78125,0.28125 1.14063,0.73438 0.375,0.4375 0.51562,1.10937 0.0781,0.42188 0.0781,1.51563 v 2.1875 q 0,2.28125 0.10937,2.89062 0.10938,0.59375 0.40625,1.15625 h -1.70312 q -0.26563,-0.51562 -0.32813,-1.1875 z m -0.14062,-3.67187 q -0.89063,0.375 -2.67188,0.625 -1.01562,0.14062 -1.4375,0.32812 -0.42187,0.1875 -0.65625,0.53125 -0.21875,0.34375 -0.21875,0.78125 0,0.65625 0.5,1.09375 0.5,0.4375 1.45313,0.4375 0.9375,0 1.67187,-0.40625 0.75,-0.42187 1.09375,-1.14062 0.26563,-0.5625 0.26563,-1.64063 z m 4.20386,4.85937 v -9.67187 h 1.46875 v 1.375 q 1.0625,-1.59375 3.07812,-1.59375 0.875,0 1.60938,0.3125 0.73437,0.3125 1.09375,0.82812 0.375,0.5 0.51562,1.20313 0.0937,0.45312 0.0937,1.59375 v 5.95312 h -1.64062 v -5.89062 q 0,-1 -0.20313,-1.48438 -0.1875,-0.5 -0.67187,-0.79687 -0.48438,-0.29688 -1.14063,-0.29688 -1.04687,0 -1.8125,0.67188 -0.75,0.65625 -0.75,2.51562 v 5.28125 z m 17.00073,-3.10937 1.6875,0.20312 q -0.40625,1.48438 -1.48438,2.3125 -1.07812,0.8125 -2.76562,0.8125 -2.125,0 -3.375,-1.29687 -1.23438,-1.3125 -1.23438,-3.67188 0,-2.45312 1.25,-3.79687 1.26563,-1.34375 3.26563,-1.34375 1.9375,0 3.15625,1.32812 1.23437,1.3125 1.23437,3.70313 0,0.15625 0,0.4375 h -7.21875 q 0.0937,1.59375 0.90625,2.45312 0.8125,0.84375 2.01563,0.84375 0.90625,0 1.54687,-0.46875 0.64063,-0.48437 1.01563,-1.51562 z m -5.39063,-2.65625 h 5.40625 q -0.10937,-1.21875 -0.625,-1.82813 -0.78125,-0.95312 -2.03125,-0.95312 -1.125,0 -1.90625,0.76562 -0.76562,0.75 -0.84375,2.01563 z"
       id="path530" />
  </g>
  <path
     id="path534"
     d="m 225.42687,239.23046 5.125,-13.35938 h 1.90625 l 5.46875,13.35938 h -2.01562 l -1.54688,-4.04688 h -5.59375 l -1.46875,4.04688 z m 3.85938,-5.48438 h 4.53125 l -1.40625,-3.70312 q -0.625,-1.6875 -0.9375,-2.76563 -0.26563,1.28125 -0.71875,2.54688 z m 9.84982,9.1875 v -13.375 h 1.48437 v 1.25 q 0.53125,-0.73437 1.1875,-1.09375 0.67188,-0.375 1.625,-0.375 1.23438,0 2.17188,0.64063 0.95312,0.625 1.4375,1.79687 0.48437,1.15625 0.48437,2.54688 0,1.48437 -0.53125,2.67187 -0.53125,1.1875 -1.54687,1.82813 -1.01563,0.625 -2.14063,0.625 -0.8125,0 -1.46875,-0.34375 -0.65625,-0.34375 -1.0625,-0.875 v 4.70312 z m 1.48437,-8.48437 q 0,1.85937 0.75,2.76562 0.76563,0.89063 1.82813,0.89063 1.09375,0 1.875,-0.92188 0.78125,-0.9375 0.78125,-2.875 0,-1.84375 -0.76563,-2.76562 -0.75,-0.92188 -1.8125,-0.92188 -1.04687,0 -1.85937,0.98438 -0.79688,0.96875 -0.79688,2.84375 z m 8.89136,-6.6875 v -1.89063 h 1.64062 v 1.89063 z m 0,11.46875 v -9.67188 h 1.64062 v 9.67188 z m 10.45731,-3.54688 1.60937,0.21875 q -0.26562,1.65625 -1.35937,2.60938 -1.07813,0.9375 -2.67188,0.9375 -1.98437,0 -3.1875,-1.29688 -1.20312,-1.29687 -1.20312,-3.71875 0,-1.57812 0.51562,-2.75 0.51563,-1.17187 1.57813,-1.75 1.0625,-0.59375 2.3125,-0.59375 1.57812,0 2.57812,0.79688 1,0.79687 1.28125,2.26562 l -1.59375,0.23438 q -0.23437,-0.96875 -0.8125,-1.45313 -0.57812,-0.5 -1.39062,-0.5 -1.23438,0 -2.01563,0.89063 -0.78125,0.89062 -0.78125,2.8125 0,1.95312 0.75,2.84375 0.75,0.875 1.95313,0.875 0.96875,0 1.60937,-0.59375 0.65625,-0.59375 0.82813,-1.82813 z m 9.32812,2.35938 q -0.92187,0.76562 -1.76562,1.09375 -0.82813,0.3125 -1.79688,0.3125 -1.59375,0 -2.45312,-0.78125 -0.85938,-0.78125 -0.85938,-1.98438 0,-0.71875 0.32813,-1.29687 0.32812,-0.59375 0.84375,-0.9375 0.53125,-0.35938 1.1875,-0.54688 0.46875,-0.125 1.45312,-0.25 1.98438,-0.23437 2.92188,-0.5625 0.0156,-0.34375 0.0156,-0.42187 0,-1 -0.46875,-1.42188 -0.625,-0.54687 -1.875,-0.54687 -1.15625,0 -1.70312,0.40625 -0.54688,0.40625 -0.8125,1.42187 l -1.60938,-0.21875 q 0.21875,-1.01562 0.71875,-1.64062 0.5,-0.64063 1.45313,-0.98438 0.95312,-0.34375 2.1875,-0.34375 1.25,0 2.01562,0.29688 0.78125,0.28125 1.14063,0.73437 0.375,0.4375 0.51562,1.10938 0.0781,0.42187 0.0781,1.51562 v 2.1875 q 0,2.28125 0.10937,2.89063 0.10938,0.59375 0.40625,1.15625 h -1.70312 q -0.26563,-0.51563 -0.32813,-1.1875 z m -0.14062,-3.67188 q -0.89063,0.375 -2.67188,0.625 -1.01562,0.14063 -1.4375,0.32813 -0.42187,0.1875 -0.65625,0.53125 -0.21875,0.34375 -0.21875,0.78125 0,0.65625 0.5,1.09375 0.5,0.4375 1.45313,0.4375 0.9375,0 1.67187,-0.40625 0.75,-0.42188 1.09375,-1.14063 0.26563,-0.5625 0.26563,-1.64062 z m 4.15698,4.85938 v -13.35938 h 1.64062 v 13.35938 z"
     inkscape:connector-curvature="0"
     style="fill:#000000;fill-rule:nonzero" />
  <path
     id="path536"
     d="m 207.51247,261.23046 v -9.67188 h 1.46875 v 1.35938 q 0.45313,-0.71875 1.20313,-1.14063 0.76562,-0.4375 1.71875,-0.4375 1.07812,0 1.76562,0.45313 0.6875,0.4375 0.96875,1.23437 1.15625,-1.6875 2.98438,-1.6875 1.45312,0 2.21875,0.79688 0.78125,0.79687 0.78125,2.45312 v 6.64063 h -1.64063 v -6.09375 q 0,-0.98438 -0.15625,-1.40625 -0.15625,-0.4375 -0.57812,-0.70313 -0.42188,-0.26562 -0.98438,-0.26562 -1.01562,0 -1.6875,0.6875 -0.67187,0.67187 -0.67187,2.15625 v 5.625 h -1.64063 v -6.28125 q 0,-1.09375 -0.40625,-1.64063 -0.40625,-0.54687 -1.3125,-0.54687 -0.6875,0 -1.28125,0.35937 -0.59375,0.35938 -0.85937,1.0625 -0.25,0.70313 -0.25,2.03125 v 5.01563 z m 22.1658,-3.10938 1.6875,0.20313 q -0.40625,1.48437 -1.48437,2.3125 -1.07813,0.8125 -2.76563,0.8125 -2.125,0 -3.375,-1.29688 -1.23437,-1.3125 -1.23437,-3.67187 0,-2.45313 1.25,-3.79688 1.26562,-1.34375 3.26562,-1.34375 1.9375,0 3.15625,1.32813 1.23438,1.3125 1.23438,3.70312 0,0.15625 0,0.4375 h -7.21875 q 0.0937,1.59375 0.90625,2.45313 0.8125,0.84375 2.01562,0.84375 0.90625,0 1.54688,-0.46875 0.64062,-0.48438 1.01562,-1.51563 z m -5.39062,-2.65625 h 5.40625 q -0.10938,-1.21875 -0.625,-1.82812 -0.78125,-0.95313 -2.03125,-0.95313 -1.125,0 -1.90625,0.76563 -0.76563,0.75 -0.84375,2.01562 z m 9.14132,5.76563 v -9.67188 h 1.46875 v 1.35938 q 0.45313,-0.71875 1.20313,-1.14063 0.76562,-0.4375 1.71875,-0.4375 1.07812,0 1.76562,0.45313 0.6875,0.4375 0.96875,1.23437 1.15625,-1.6875 2.98438,-1.6875 1.45312,0 2.21875,0.79688 0.78125,0.79687 0.78125,2.45312 v 6.64063 h -1.64063 v -6.09375 q 0,-0.98438 -0.15625,-1.40625 -0.15625,-0.4375 -0.57812,-0.70313 -0.42188,-0.26562 -0.98438,-0.26562 -1.01562,0 -1.6875,0.6875 -0.67187,0.67187 -0.67187,2.15625 v 5.625 h -1.64063 v -6.28125 q 0,-1.09375 -0.40625,-1.64063 -0.40625,-0.54687 -1.3125,-0.54687 -0.6875,0 -1.28125,0.35937 -0.59375,0.35938 -0.85937,1.0625 -0.25,0.70313 -0.25,2.03125 v 5.01563 z m 17.04081,0 h -1.51563 v -13.35938 h 1.64063 v 4.76563 q 1.04687,-1.29688 2.65625,-1.29688 0.89062,0 1.6875,0.35938 0.79687,0.35937 1.3125,1.01562 0.51562,0.64063 0.79687,1.5625 0.29688,0.92188 0.29688,1.96875 0,2.48438 -1.23438,3.84375 -1.21875,1.35938 -2.95312,1.35938 -1.70313,0 -2.6875,-1.4375 z m -0.0156,-4.90625 q 0,1.73437 0.48438,2.51562 0.76562,1.26563 2.09375,1.26563 1.07812,0 1.85937,-0.9375 0.78125,-0.9375 0.78125,-2.78125 0,-1.89063 -0.75,-2.79688 -0.75,-0.90625 -1.82812,-0.90625 -1.0625,0 -1.85938,0.9375 -0.78125,0.9375 -0.78125,2.70313 z m 8.87573,4.90625 v -9.67188 h 1.46875 v 1.46875 q 0.5625,-1.03125 1.03125,-1.35937 0.48438,-0.32813 1.0625,-0.32813 0.82813,0 1.6875,0.53125 l -0.5625,1.51563 q -0.60937,-0.35938 -1.20312,-0.35938 -0.54688,0 -0.96875,0.32813 -0.42188,0.32812 -0.60938,0.89062 -0.28125,0.875 -0.28125,1.92188 v 5.0625 z m 12.5408,-1.1875 q -0.92187,0.76562 -1.76562,1.09375 -0.82813,0.3125 -1.79688,0.3125 -1.59375,0 -2.45312,-0.78125 -0.85938,-0.78125 -0.85938,-1.98438 0,-0.71875 0.32813,-1.29687 0.32812,-0.59375 0.84375,-0.9375 0.53125,-0.35938 1.1875,-0.54688 0.46875,-0.125 1.45312,-0.25 1.98438,-0.23437 2.92188,-0.5625 0.0156,-0.34375 0.0156,-0.42187 0,-1 -0.46875,-1.42188 -0.625,-0.54687 -1.875,-0.54687 -1.15625,0 -1.70312,0.40625 -0.54688,0.40625 -0.8125,1.42187 l -1.60938,-0.21875 q 0.21875,-1.01562 0.71875,-1.64062 0.5,-0.64063 1.45313,-0.98438 0.95312,-0.34375 2.1875,-0.34375 1.25,0 2.01562,0.29688 0.78125,0.28125 1.14063,0.73437 0.375,0.4375 0.51562,1.10938 0.0781,0.42187 0.0781,1.51562 v 2.1875 q 0,2.28125 0.10937,2.89063 0.10938,0.59375 0.40625,1.15625 h -1.70312 q -0.26563,-0.51563 -0.32813,-1.1875 z m -0.14062,-3.67188 q -0.89063,0.375 -2.67188,0.625 -1.01562,0.14063 -1.4375,0.32813 -0.42187,0.1875 -0.65625,0.53125 -0.21875,0.34375 -0.21875,0.78125 0,0.65625 0.5,1.09375 0.5,0.4375 1.45313,0.4375 0.9375,0 1.67187,-0.40625 0.75,-0.42188 1.09375,-1.14063 0.26563,-0.5625 0.26563,-1.64062 z m 4.20383,4.85938 v -9.67188 h 1.46875 v 1.375 q 1.0625,-1.59375 3.07812,-1.59375 0.875,0 1.60938,0.3125 0.73437,0.3125 1.09375,0.82813 0.375,0.5 0.51562,1.20312 0.0937,0.45313 0.0937,1.59375 v 5.95313 h -1.64062 v -5.89063 q 0,-1 -0.20313,-1.48437 -0.1875,-0.5 -0.67187,-0.79688 -0.48438,-0.29687 -1.14063,-0.29687 -1.04687,0 -1.8125,0.67187 -0.75,0.65625 -0.75,2.51563 v 5.28125 z m 17.00073,-3.10938 1.6875,0.20313 q -0.40625,1.48437 -1.48438,2.3125 -1.07812,0.8125 -2.76562,0.8125 -2.125,0 -3.375,-1.29688 -1.23438,-1.3125 -1.23438,-3.67187 0,-2.45313 1.25,-3.79688 1.26563,-1.34375 3.26563,-1.34375 1.9375,0 3.15625,1.32813 1.23437,1.3125 1.23437,3.70312 0,0.15625 0,0.4375 h -7.21875 q 0.0937,1.59375 0.90625,2.45313 0.8125,0.84375 2.01563,0.84375 0.90625,0 1.54687,-0.46875 0.64063,-0.48438 1.01563,-1.51563 z m -5.39063,-2.65625 h 5.40625 q -0.10937,-1.21875 -0.625,-1.82812 -0.78125,-0.95313 -2.03125,-0.95313 -1.125,0 -1.90625,0.76563 -0.76562,0.75 -0.84375,2.01562 z"
     inkscape:connector-curvature="0"
     style="fill:#000000;fill-rule:nonzero" />
  <path
     id="path538"
     d="m 444.46821,260.06374 v 25.98425"
     inkscape:connector-curvature="0"
     style="fill:#000000;fill-opacity:0;fill-rule:evenodd" />
  <path
     id="path540"
     d="m 444.46821,260.06374 v 25.98425"
     inkscape:connector-curvature="0"
     style="fill-rule:evenodd;stroke:#595959;stroke-width:1;stroke-linecap:butt;stroke-linejoin:round" />
  <path
     id="path542"
     d="m 658.27395,264.86687 v 25.98424"
     inkscape:connector-curvature="0"
     style="fill:#000000;fill-opacity:0;fill-rule:evenodd" />
  <path
     id="path544"
     d="m 658.27395,260.06374 v 25.98424"
     inkscape:connector-curvature="0"
     style="fill-rule:evenodd;stroke:#595959;stroke-width:1;stroke-linecap:butt;stroke-linejoin:round" />
  <path
     id="path546"
     d="M 250.86451,212.31047 V 197.38135"
     inkscape:connector-curvature="0"
     style="fill:#000000;fill-opacity:0;fill-rule:evenodd" />
  <path
     id="path548"
     d="M 250.86451,212.31047 V 197.38135"
     inkscape:connector-curvature="0"
     style="fill-rule:evenodd;stroke:#595959;stroke-width:1;stroke-linecap:butt;stroke-linejoin:round" />
  <path
     id="path552"
     d="M 95.51437,25.839375 V 12.48 h 9.65625 v 1.578125 h -7.875 v 4.09375 h 7.375 v 1.5625 h -7.375 v 4.546875 h 8.1875 v 1.578125 z m 12.2092,0 V 16.1675 h 1.46875 v 1.375 q 1.0625,-1.59375 3.07812,-1.59375 0.875,0 1.60938,0.3125 0.73437,0.3125 1.09375,0.828125 0.375,0.5 0.51562,1.203125 0.0937,0.453125 0.0937,1.59375 v 5.953125 h -1.64062 V 19.94875 q 0,-1 -0.20313,-1.484375 -0.1875,-0.5 -0.67187,-0.796875 -0.48438,-0.296875 -1.14063,-0.296875 -1.04687,0 -1.8125,0.671875 -0.75,0.65625 -0.75,2.515625 v 5.28125 z m 13.95383,-1.46875 0.23438,1.453125 q -0.6875,0.140625 -1.23438,0.140625 -0.89061,0 -1.39061,-0.28125 -0.48438,-0.28125 -0.6875,-0.734375 -0.20313,-0.46875 -0.20313,-1.9375 v -5.578125 h -1.20312 V 16.1675 h 1.20312 v -2.390625 l 1.625,-0.984375 v 3.375 h 1.65624 v 1.265625 h -1.65624 V 23.105 q 0,0.6875 0.0781,0.890625 0.0937,0.203125 0.28125,0.328125 0.20311,0.109375 0.57811,0.109375 0.26563,0 0.71875,-0.0625 z m 8.23019,-1.640625 1.6875,0.203125 q -0.40625,1.484375 -1.48439,2.3125 -1.07811,0.8125 -2.76561,0.8125 -2.125,0 -3.375,-1.296875 -1.23439,-1.3125 -1.23439,-3.671875 0,-2.453125 1.25,-3.796875 1.26564,-1.34375 3.26564,-1.34375 1.9375,0 3.15625,1.328125 1.23436,1.3125 1.23436,3.703125 0,0.15625 0,0.4375 h -7.21875 q 0.0937,1.59375 0.90625,2.453125 0.8125,0.84375 2.01564,0.84375 0.90625,0 1.54686,-0.46875 0.64064,-0.484375 1.01564,-1.515625 z m -5.39064,-2.65625 h 5.40625 q -0.10936,-1.21875 -0.625,-1.828125 -0.78125,-0.953125 -2.03125,-0.953125 -1.125,0 -1.90625,0.765625 -0.76561,0.75 -0.84375,2.015625 z m 9.12572,5.765625 V 16.1675 h 1.46875 v 1.46875 q 0.5625,-1.03125 1.03125,-1.359375 0.48439,-0.328125 1.0625,-0.328125 0.82814,0 1.6875,0.53125 l -0.5625,1.515625 q -0.60936,-0.359375 -1.20311,-0.359375 -0.54689,0 -0.96875,0.328125 -0.42189,0.328125 -0.60939,0.890625 -0.28125,0.875 -0.28125,1.921875 v 5.0625 z m 5.61894,-4.84375 q 0,-2.6875 1.48437,-3.96875 1.25,-1.078125 3.04688,-1.078125 2,0 3.26562,1.3125 1.26563,1.296875 1.26563,3.609375 0,1.859375 -0.5625,2.9375 -0.5625,1.0625 -1.64063,1.65625 -1.0625,0.59375 -2.32812,0.59375 -2.03125,0 -3.28125,-1.296875 -1.25,-1.3125 -1.25,-3.765625 z m 1.6875,0 q 0,1.859375 0.79687,2.796875 0.8125,0.921875 2.04688,0.921875 1.21875,0 2.03125,-0.921875 0.8125,-0.9375 0.8125,-2.84375 0,-1.796875 -0.8125,-2.71875 -0.8125,-0.921875 -2.03125,-0.921875 -1.23438,0 -2.04688,0.921875 -0.79687,0.90625 -0.79687,2.765625 z m 15.61009,1.296875 1.60938,0.21875 q -0.26563,1.65625 -1.35938,2.609375 -1.07812,0.9375 -2.67187,0.9375 -1.98438,0 -3.1875,-1.296875 -1.20313,-1.296875 -1.20313,-3.71875 0,-1.578125 0.51563,-2.75 0.51562,-1.171875 1.57812,-1.75 1.0625,-0.59375 2.3125,-0.59375 1.57813,0 2.57813,0.796875 1,0.796875 1.28125,2.265625 l -1.59375,0.234375 q -0.23438,-0.96875 -0.8125,-1.453125 -0.57813,-0.5 -1.39063,-0.5 -1.23437,0 -2.01562,0.890625 -0.78125,0.890625 -0.78125,2.8125 0,1.953125 0.75,2.84375 0.75,0.875 1.95312,0.875 0.96875,0 1.60938,-0.59375 0.65625,-0.59375 0.82812,-1.828125 z m 2.9375,7.265625 -0.1875,-1.53125 q 0.54688,0.140625 0.9375,0.140625 0.54688,0 0.875,-0.1875 0.32813,-0.171875 0.54688,-0.5 0.15625,-0.25 0.5,-1.21875 0.0469,-0.140625 0.14062,-0.40625 l -3.67187,-9.6875 h 1.76562 l 2.01563,5.59375 q 0.39062,1.078125 0.70312,2.25 0.28125,-1.125 0.67188,-2.203125 L 165.8717,16.1675 h 1.64063 l -3.6875,9.828125 q -0.59375,1.609375 -0.92188,2.203125 -0.4375,0.8125 -1,1.1875 -0.5625,0.375 -1.34375,0.375 -0.48437,0 -1.0625,-0.203125 z m 12.98438,-5.1875 0.23437,1.453125 q -0.6875,0.140625 -1.23437,0.140625 -0.89063,0 -1.39063,-0.28125 -0.48437,-0.28125 -0.6875,-0.734375 -0.20312,-0.46875 -0.20312,-1.9375 V 17.433125 H 167.9967 V 16.1675 h 1.20313 v -2.390625 l 1.625,-0.984375 v 3.375 h 1.65625 v 1.265625 h -1.65625 V 23.105 q 0,0.6875 0.0781,0.890625 0.0937,0.203125 0.28125,0.328125 0.20312,0.109375 0.57812,0.109375 0.26563,0 0.71875,-0.0625 z m 8.23016,-1.640625 1.6875,0.203125 q -0.40625,1.484375 -1.48436,2.3125 -1.07814,0.8125 -2.76564,0.8125 -2.125,0 -3.375,-1.296875 -1.23436,-1.3125 -1.23436,-3.671875 0,-2.453125 1.25,-3.796875 1.26561,-1.34375 3.26561,-1.34375 1.9375,0 3.15625,1.328125 1.23439,1.3125 1.23439,3.703125 0,0.15625 0,0.4375 h -7.21875 q 0.0937,1.59375 0.90625,2.453125 0.8125,0.84375 2.01561,0.84375 0.90625,0 1.54689,-0.46875 0.64061,-0.484375 1.01561,-1.515625 z m -5.39061,-2.65625 h 5.40625 q -0.10939,-1.21875 -0.625,-1.828125 -0.78125,-0.953125 -2.03125,-0.953125 -1.125,0 -1.90625,0.765625 -0.76564,0.75 -0.84375,2.015625 z"
     inkscape:connector-curvature="0"
     style="fill:#000000;fill-rule:nonzero" />
  <path
     id="path556"
     d="M 453.95757,25.839372 V 12.480001 h 5.92187 q 1.78125,0 2.70313,0.359375 0.9375,0.359375 1.48437,1.28125 0.5625,0.90625 0.5625,2.015625 0,1.40625 -0.92187,2.390625 -0.92188,0.96875 -2.84375,1.234375 0.70312,0.34375 1.07812,0.671875 0.76563,0.703125 1.45313,1.765625 l 2.32812,3.640621 h -2.21875 l -1.76562,-2.78125 q -0.78125,-1.203121 -1.28125,-1.828121 -0.5,-0.640625 -0.90625,-0.890625 -0.39063,-0.265625 -0.79688,-0.359375 -0.29687,-0.07813 -0.98437,-0.07813 h -2.04688 v 5.937496 z m 1.76562,-7.453121 h 3.79688 q 1.21875,0 1.89062,-0.25 0.6875,-0.265625 1.04688,-0.8125 0.35937,-0.546875 0.35937,-1.1875 0,-0.953125 -0.6875,-1.5625 -0.6875,-0.609375 -2.1875,-0.609375 h -4.21875 z m 18.0979,4.343746 1.6875,0.203125 q -0.40625,1.484375 -1.48437,2.3125 -1.07813,0.8125 -2.76563,0.8125 -2.125,0 -3.375,-1.296875 -1.23437,-1.3125 -1.23437,-3.671871 0,-2.453125 1.25,-3.796875 1.26562,-1.34375 3.26562,-1.34375 1.9375,0 3.15625,1.328125 1.23438,1.3125 1.23438,3.703125 0,0.15625 0,0.4375 h -7.21875 q 0.0937,1.593746 0.90625,2.453121 0.8125,0.84375 2.01562,0.84375 0.90625,0 1.54688,-0.46875 0.64062,-0.484375 1.01562,-1.515625 z m -5.39062,-2.656246 h 5.40625 q -0.10938,-1.21875 -0.625,-1.828125 -0.78125,-0.953125 -2.03125,-0.953125 -1.125,0 -1.90625,0.765625 -0.76563,0.75 -0.84375,2.015625 z m 9.14136,5.765621 v -9.671871 h 1.46875 v 1.375 q 1.0625,-1.59375 3.07812,-1.59375 0.875,0 1.60938,0.3125 0.73437,0.3125 1.09375,0.828125 0.375,0.5 0.51562,1.203125 0.0937,0.453125 0.0937,1.59375 v 5.953121 h -1.64062 v -5.890621 q 0,-1 -0.20313,-1.484375 -0.1875,-0.5 -0.67187,-0.796875 -0.48438,-0.296875 -1.14063,-0.296875 -1.04687,0 -1.8125,0.671875 -0.75,0.65625 -0.75,2.515625 v 5.281246 z m 16.68823,-1.1875 q -0.92188,0.765625 -1.76563,1.09375 -0.82812,0.3125 -1.79687,0.3125 -1.59375,0 -2.45313,-0.78125 -0.85937,-0.78125 -0.85937,-1.984375 0,-0.71875 0.32812,-1.296871 0.32813,-0.59375 0.84375,-0.9375 0.53125,-0.359375 1.1875,-0.546875 0.46875,-0.125 1.45313,-0.25 1.98437,-0.234375 2.92187,-0.5625 0.0156,-0.34375 0.0156,-0.421875 0,-1 -0.46875,-1.421875 -0.625,-0.546875 -1.875,-0.546875 -1.15625,0 -1.70313,0.40625 -0.54687,0.40625 -0.8125,1.421875 l -1.60937,-0.21875 q 0.21875,-1.015625 0.71875,-1.640625 0.5,-0.640625 1.45312,-0.984375 0.95313,-0.34375 2.1875,-0.34375 1.25,0 2.01563,0.296875 0.78125,0.28125 1.14062,0.734375 0.375,0.4375 0.51563,1.109375 0.0781,0.421875 0.0781,1.515625 v 2.1875 q 0,2.281246 0.10938,2.890621 0.10937,0.59375 0.40625,1.15625 h -1.70313 q -0.26562,-0.515625 -0.32812,-1.1875 z m -0.14063,-3.671871 q -0.89062,0.375 -2.67187,0.625 -1.01563,0.140625 -1.4375,0.328125 -0.42188,0.1875 -0.65625,0.531246 -0.21875,0.34375 -0.21875,0.78125 0,0.65625 0.5,1.09375 0.5,0.4375 1.45312,0.4375 0.9375,0 1.67188,-0.40625 0.75,-0.421875 1.09375,-1.140625 0.26562,-0.5625 0.26562,-1.640621 z m 4.15699,4.859371 V 12.480001 h 1.64062 v 13.359371 z m 9.375,3.703125 V 16.167501 h 1.48437 v 1.25 q 0.53125,-0.734375 1.1875,-1.09375 0.67188,-0.375 1.625,-0.375 1.23438,0 2.17188,0.640625 0.95312,0.625 1.4375,1.796875 0.48437,1.15625 0.48437,2.546875 0,1.484371 -0.53125,2.671871 -0.53125,1.1875 -1.54687,1.828125 -1.01563,0.625 -2.14063,0.625 -0.8125,0 -1.46875,-0.34375 -0.65625,-0.34375 -1.0625,-0.875 v 4.703125 z m 1.48437,-8.484371 q 0,1.859371 0.75,2.765621 0.76563,0.890625 1.82813,0.890625 1.09375,0 1.875,-0.921875 0.78125,-0.9375 0.78125,-2.874996 0,-1.84375 -0.76563,-2.765625 -0.75,-0.921875 -1.8125,-0.921875 -1.04687,0 -1.85937,0.984375 -0.79688,0.96875 -0.79688,2.84375 z m 8.87567,4.781246 v -9.671871 h 1.46875 v 1.46875 q 0.5625,-1.03125 1.03125,-1.359375 0.48438,-0.328125 1.0625,-0.328125 0.82813,0 1.6875,0.53125 l -0.5625,1.515625 q -0.60937,-0.359375 -1.20312,-0.359375 -0.54688,0 -0.96875,0.328125 -0.42188,0.328125 -0.60938,0.890625 -0.28125,0.875 -0.28125,1.921875 v 5.062496 z m 5.61896,-4.843746 q 0,-2.6875 1.48437,-3.96875 1.25,-1.078125 3.04688,-1.078125 2,0 3.26562,1.3125 1.26563,1.296875 1.26563,3.609375 0,1.859371 -0.5625,2.937496 -0.5625,1.0625 -1.64063,1.65625 -1.0625,0.59375 -2.32812,0.59375 -2.03125,0 -3.28125,-1.296875 -1.25,-1.3125 -1.25,-3.765621 z m 1.6875,0 q 0,1.859371 0.79687,2.796871 0.8125,0.921875 2.04688,0.921875 1.21875,0 2.03125,-0.921875 0.8125,-0.9375 0.8125,-2.843746 0,-1.796875 -0.8125,-2.71875 -0.8125,-0.921875 -2.03125,-0.921875 -1.23438,0 -2.04688,0.921875 -0.79687,0.90625 -0.79687,2.765625 z m 8.20386,4.843746 3.53125,-5.031246 -3.26563,-4.640625 h 2.04688 l 1.48437,2.265625 q 0.42188,0.640625 0.67188,1.078125 0.40625,-0.59375 0.73437,-1.0625 l 1.64063,-2.28125 h 1.95312 l -3.34375,4.546875 3.59375,5.124996 h -2.01562 l -1.98438,-3 -0.51562,-0.812497 -2.54688,3.812497 z m 10.42187,-11.468746 v -1.890625 h 1.64063 v 1.890625 z m 0,11.468746 v -9.671871 h 1.64063 v 9.671871 z m 4.14477,0 v -9.671871 h 1.46875 v 1.359375 q 0.45313,-0.71875 1.20313,-1.140625 0.76562,-0.4375 1.71875,-0.4375 1.07812,0 1.76562,0.453125 0.6875,0.4375 0.96875,1.234375 1.15625,-1.6875 2.98438,-1.6875 1.45312,0 2.21875,0.796875 0.78125,0.796875 0.78125,2.453125 v 6.640621 h -1.64063 v -6.093746 q 0,-0.984375 -0.15625,-1.40625 -0.15625,-0.4375 -0.57812,-0.703125 -0.42188,-0.265625 -0.98438,-0.265625 -1.01562,0 -1.6875,0.6875 -0.67187,0.671875 -0.67187,2.15625 v 5.624996 h -1.64063 v -6.281246 q 0,-1.09375 -0.40625,-1.640625 -0.40625,-0.546875 -1.3125,-0.546875 -0.6875,0 -1.28125,0.359375 -0.59375,0.359375 -0.85937,1.0625 -0.25,0.703125 -0.25,2.03125 v 5.015621 z m 21.85334,-1.1875 q -0.92187,0.765625 -1.76562,1.09375 -0.82813,0.3125 -1.79688,0.3125 -1.59375,0 -2.45312,-0.78125 -0.85938,-0.78125 -0.85938,-1.984375 0,-0.71875 0.32813,-1.296872 0.32812,-0.59375 0.84375,-0.9375 0.53125,-0.359375 1.1875,-0.546875 0.46875,-0.125 1.45312,-0.25 1.98438,-0.234375 2.92188,-0.5625 0.0156,-0.34375 0.0156,-0.421875 0,-1 -0.46875,-1.421875 -0.625,-0.546875 -1.875,-0.546875 -1.15625,0 -1.70312,0.40625 -0.54688,0.40625 -0.8125,1.421875 l -1.60938,-0.21875 q 0.21875,-1.015625 0.71875,-1.640625 0.5,-0.640625 1.45313,-0.984375 0.95312,-0.34375 2.1875,-0.34375 1.25,0 2.01562,0.296875 0.78125,0.28125 1.14063,0.734375 0.375,0.4375 0.51562,1.109375 0.0781,0.421875 0.0781,1.515625 v 2.1875 q 0,2.281247 0.10937,2.890622 0.10938,0.59375 0.40625,1.15625 h -1.70312 q -0.26563,-0.515625 -0.32813,-1.1875 z M 569.80114,20.98 q -0.89063,0.375 -2.67188,0.625 -1.01562,0.140625 -1.4375,0.328125 -0.42187,0.1875 -0.65625,0.531247 -0.21875,0.34375 -0.21875,0.78125 0,0.65625 0.5,1.09375 0.5,0.4375 1.45313,0.4375 0.9375,0 1.67187,-0.40625 0.75,-0.421875 1.09375,-1.140625 0.26563,-0.5625 0.26563,-1.640622 z m 4.15697,4.859371 V 12.48 h 1.64063 v 13.359371 z m 12.95313,-1.46875 0.23437,1.453125 q -0.6875,0.140625 -1.23437,0.140625 -0.89063,0 -1.39063,-0.28125 -0.48437,-0.28125 -0.6875,-0.734375 -0.20312,-0.46875 -0.20312,-1.9375 v -5.578121 h -1.20313 V 16.1675 h 1.20313 v -2.390625 l 1.625,-0.984375 v 3.375 h 1.65625 v 1.265625 h -1.65625 v 5.671871 q 0,0.6875 0.0781,0.890625 0.0937,0.203125 0.28125,0.328125 0.20312,0.109375 0.57812,0.109375 0.26563,0 0.71875,-0.0625 z m 7.93329,1.46875 v -1.421875 q -1.125,1.640625 -3.0625,1.640625 -0.85937,0 -1.60937,-0.328125 -0.73438,-0.328125 -1.09375,-0.828125 -0.35938,-0.5 -0.5,-1.21875 -0.10938,-0.46875 -0.10938,-1.531246 V 16.1675 h 1.64063 v 5.359375 q 0,1.281246 0.10937,1.734371 0.15625,0.640625 0.65625,1.015625 0.5,0.375 1.23438,0.375 0.73437,0 1.375,-0.375 0.65625,-0.390625 0.92187,-1.03125 0.26563,-0.65625 0.26563,-1.890621 v -5.1875 h 1.64062 v 9.671871 z m 5.54761,0 h -1.51563 V 12.48 h 1.64063 v 4.765625 q 1.04687,-1.296875 2.65625,-1.296875 0.89062,0 1.6875,0.359375 0.79687,0.359375 1.3125,1.015625 0.51562,0.640625 0.79687,1.5625 0.29688,0.921875 0.29688,1.96875 0,2.484372 -1.23438,3.843747 -1.21875,1.359375 -2.95312,1.359375 -1.70313,0 -2.6875,-1.4375 z m -0.0156,-4.906246 q 0,1.734372 0.48438,2.515622 0.76562,1.265625 2.09375,1.265625 1.07812,0 1.85937,-0.9375 0.78125,-0.9375 0.78125,-2.781247 0,-1.890625 -0.75,-2.796875 -0.75,-0.90625 -1.82812,-0.90625 -1.0625,0 -1.85938,0.9375 -0.78125,0.9375 -0.78125,2.703125 z m 15.21942,4.906246 v -1.421875 q -1.125,1.640625 -3.0625,1.640625 -0.85937,0 -1.60937,-0.328125 -0.73438,-0.328125 -1.09375,-0.828125 -0.35938,-0.5 -0.5,-1.21875 -0.10938,-0.46875 -0.10938,-1.531246 V 16.1675 h 1.64063 v 5.359375 q 0,1.281246 0.10937,1.734371 0.15625,0.640625 0.65625,1.015625 0.5,0.375 1.23438,0.375 0.73437,0 1.375,-0.375 0.65625,-0.390625 0.92187,-1.03125 0.26563,-0.65625 0.26563,-1.890621 v -5.1875 h 1.64062 v 9.671871 z m 4.00074,0 V 12.48 h 1.64062 v 13.359371 z m 10.8167,-3.109375 1.6875,0.203125 q -0.40625,1.484375 -1.48438,2.3125 -1.07812,0.8125 -2.76562,0.8125 -2.125,0 -3.375,-1.296875 -1.23438,-1.3125 -1.23438,-3.671871 0,-2.453125 1.25,-3.796875 1.26563,-1.34375 3.26563,-1.34375 1.9375,0 3.15625,1.328125 1.23437,1.3125 1.23437,3.703125 0,0.15625 0,0.4375 h -7.21875 q 0.0937,1.593746 0.90625,2.453121 0.8125,0.84375 2.01563,0.84375 0.90625,0 1.54687,-0.46875 0.64063,-0.484375 1.01563,-1.515625 z m -5.39063,-2.656246 h 5.40625 q -0.10937,-1.21875 -0.625,-1.828125 -0.78125,-0.953125 -2.03125,-0.953125 -1.125,0 -1.90625,0.765625 -0.76562,0.75 -0.84375,2.015625 z m 20.63716,2.218746 1.60937,0.21875 q -0.26562,1.65625 -1.35937,2.609375 -1.07813,0.9375 -2.67188,0.9375 -1.98437,0 -3.1875,-1.296875 -1.20312,-1.296875 -1.20312,-3.718746 0,-1.578125 0.51562,-2.75 0.51563,-1.171875 1.57813,-1.75 1.0625,-0.59375 2.3125,-0.59375 1.57812,0 2.57812,0.796875 1,0.796875 1.28125,2.265625 l -1.59375,0.234375 q -0.23437,-0.96875 -0.8125,-1.453125 -0.57812,-0.5 -1.39062,-0.5 -1.23438,0 -2.01563,0.890625 -0.78125,0.890625 -0.78125,2.8125 0,1.953121 0.75,2.843746 0.75,0.875 1.95313,0.875 0.96875,0 1.60937,-0.59375 0.65625,-0.59375 0.82813,-1.828125 z m 9.64062,0.4375 1.6875,0.203125 q -0.40625,1.484375 -1.48437,2.3125 -1.07813,0.8125 -2.76563,0.8125 -2.125,0 -3.375,-1.296875 -1.23437,-1.3125 -1.23437,-3.671871 0,-2.453125 1.25,-3.796875 1.26562,-1.34375 3.26562,-1.34375 1.9375,0 3.15625,1.328125 1.23438,1.3125 1.23438,3.703125 0,0.15625 0,0.4375 h -7.21875 q 0.0937,1.593746 0.90625,2.453121 0.8125,0.84375 2.01562,0.84375 0.90625,0 1.54688,-0.46875 0.64062,-0.484375 1.01562,-1.515625 z m -5.39062,-2.656246 h 5.40625 q -0.10938,-1.21875 -0.625,-1.828125 -0.78125,-0.953125 -2.03125,-0.953125 -1.125,0 -1.90625,0.765625 -0.76563,0.75 -0.84375,2.015625 z m 9.09447,5.765621 V 12.48 h 1.64063 v 13.359371 z m 4.14478,0 V 12.48 h 1.64062 v 13.359371 z"
     inkscape:connector-curvature="0"
     style="fill:#000000;fill-rule:nonzero" />
  <g
     id="g4948"
     transform="translate(-7.5200001,-21.175117)">
    <g
       transform="translate(-2.8090574)"
       id="g1072">
      <path
         id="path430"
         d="m 721.43176,254.39895 v 0 c 0,-8.58432 -21.25061,-15.5433 -47.46454,-15.5433 v 0 c -26.21399,0 -47.4646,6.95898 -47.4646,15.5433 v 0 c 0,8.58434 21.25061,15.5433 47.4646,15.5433 v 0 c 26.21393,0 47.46454,-6.95896 47.46454,-15.5433 z"
         inkscape:connector-curvature="0"
         style="fill:#fff2cc;fill-rule:evenodd" />
      <path
         id="path432"
         d="m 721.43176,254.39895 v 0 c 0,-8.58432 -21.25061,-15.5433 -47.46454,-15.5433 v 0 c -26.21399,0 -47.4646,6.95898 -47.4646,15.5433 v 0 c 0,8.58434 21.25061,15.5433 47.4646,15.5433 v 0 c 26.21393,0 47.46454,-6.95896 47.46454,-15.5433 z"
         inkscape:connector-curvature="0"
         style="fill-rule:evenodd;stroke:#595959;stroke-width:1;stroke-linecap:butt;stroke-linejoin:round" />
      <path
         id="path434"
         d="m 716.91205,234.71916 h -86.45666 v 37.85828 h 86.45666 z"
         inkscape:connector-curvature="0"
         style="fill:#000000;fill-opacity:0;fill-rule:evenodd" />
      <path
         id="path436"
         d="m 651.30536,256.40478 v -1.57812 h 5.65625 v 4.95312 q -1.29688,1.04688 -2.6875,1.57813 -1.375,0.51562 -2.84375,0.51562 -1.96875,0 -3.57813,-0.84375 -1.60937,-0.84375 -2.42187,-2.4375 -0.8125,-1.59375 -0.8125,-3.5625 0,-1.95312 0.8125,-3.64062 0.8125,-1.6875 2.34375,-2.5 1.53125,-0.82813 3.51562,-0.82813 1.45313,0 2.625,0.46875 1.17188,0.46875 1.82813,1.3125 0.67187,0.82813 1.01562,2.17188 l -1.59375,0.4375 q -0.29687,-1.01563 -0.75,-1.59375 -0.4375,-0.59375 -1.26562,-0.9375 -0.82813,-0.34375 -1.84375,-0.34375 -1.20313,0 -2.09375,0.375 -0.89063,0.35937 -1.4375,0.96875 -0.53125,0.59375 -0.82813,1.3125 -0.51562,1.23437 -0.51562,2.6875 0,1.78125 0.60937,2.98437 0.625,1.20313 1.79688,1.79688 1.17187,0.57812 2.5,0.57812 1.14062,0 2.23437,-0.4375 1.09375,-0.45312 1.65625,-0.95312 v -2.48438 z m 8.18329,5.23438 v -13.35938 h 1.78125 v 11.78125 h 6.5625 v 1.57813 z m 19.21948,-13.35938 h 1.76563 v 7.71875 q 0,2.01563 -0.45313,3.20313 -0.45312,1.1875 -1.64062,1.9375 -1.1875,0.73437 -3.125,0.73437 -1.875,0 -3.07813,-0.64062 -1.1875,-0.65625 -1.70312,-1.875 -0.5,-1.23438 -0.5,-3.35938 v -7.71875 h 1.76562 v 7.71875 q 0,1.73438 0.3125,2.5625 0.32813,0.8125 1.10938,1.26563 0.79687,0.45312 1.9375,0.45312 1.95312,0 2.78125,-0.89062 0.82812,-0.89063 0.82812,-3.39063 z m 8.11353,13.35938 v -11.78125 h -4.40625 v -1.57813 h 10.57812 v 1.57813 h -4.40625 v 11.78125 z m 7.56787,-3.09375 1.57812,-0.14063 q 0.20313,1.10938 0.76563,1.60938 0.5625,0.5 1.45312,0.5 0.75,0 1.3125,-0.34375 0.57813,-0.34375 0.9375,-0.92188 0.375,-0.57812 0.60938,-1.5625 0.25,-0.98437 0.25,-2 0,-0.10937 0,-0.32812 -0.5,0.78125 -1.35938,1.26562 -0.84375,0.48438 -1.82812,0.48438 -1.67188,0 -2.8125,-1.20313 -1.14063,-1.20312 -1.14063,-3.17187 0,-2.03125 1.1875,-3.26563 1.20313,-1.23437 3,-1.23437 1.3125,0 2.39063,0.70312 1.07812,0.70313 1.64062,2 0.5625,1.29688 0.5625,3.75 0,2.5625 -0.5625,4.07813 -0.5625,1.51562 -1.65625,2.3125 -1.09375,0.79687 -2.57812,0.79687 -1.5625,0 -2.5625,-0.875 -0.98438,-0.875 -1.1875,-2.45312 z m 6.71875,-5.89063 q 0,-1.40625 -0.75,-2.23437 -0.75,-0.82813 -1.8125,-0.82813 -1.09375,0 -1.90625,0.89063 -0.8125,0.89062 -0.8125,2.3125 0,1.28125 0.76562,2.07812 0.78125,0.79688 1.90625,0.79688 1.14063,0 1.875,-0.79688 0.73438,-0.79687 0.73438,-2.21875 z"
         inkscape:connector-curvature="0"
         style="fill:#000000;fill-rule:nonzero" />
      <path
         id="path438"
         d="m 630.45541,254.54066 -17.51184,-0.28345"
         inkscape:connector-curvature="0"
         style="fill:#000000;fill-opacity:0;fill-rule:evenodd" />
      <path
         id="path440"
         d="m 630.45541,254.54066 -11.51263,-0.18633"
         inkscape:connector-curvature="0"
         style="fill-rule:evenodd;stroke:#595959;stroke-width:1;stroke-linecap:butt;stroke-linejoin:round" />
      <path
         id="path442"
         d="m 618.96954,252.7028 -4.56427,1.57806 4.5108,1.72499 z"
         inkscape:connector-curvature="0"
         style="fill:#595959;fill-rule:evenodd;stroke:#595959;stroke-width:1;stroke-linecap:butt" />
      <path
         id="path444"
         d="m 716.91205,253.6483 21.48035,0.28345"
         inkscape:connector-curvature="0"
         style="fill:#000000;fill-opacity:0;fill-rule:evenodd" />
      <path
         id="path446"
         d="m 716.91205,253.6483 21.48035,0.28345"
         inkscape:connector-curvature="0"
         style="fill-rule:evenodd;stroke:#595959;stroke-width:1;stroke-linecap:butt;stroke-linejoin:round" />
    </g>
    <g
       id="g4883">
      <g
         id="g1020"
         transform="translate(-0.8182164)">
        <path
           style="fill:#000000;fill-opacity:0;fill-rule:evenodd"
           inkscape:connector-curvature="0"
           d="m 632.43961,65.112855 h 86.45667 v 37.858275 h -86.45667 z"
           id="path350" />
        <path
           style="fill:#000000;fill-opacity:0;fill-rule:evenodd"
           inkscape:connector-curvature="0"
           d="m 718.89631,84.934385 17.51184,-0.28346"
           id="path354" />
        <path
           style="fill:#595959;fill-rule:evenodd;stroke:#595959;stroke-width:1;stroke-linecap:butt"
           inkscape:connector-curvature="0"
           d="m 730.43567,86.399545 4.51074,-1.72497 -4.56421,-1.57807 z"
           id="path358" />
        <g
           id="g1008">
          <path
             id="path346"
             d="m 627.91991,84.792655 v 0 c 0,-8.584335 21.25061,-15.543312 47.4646,-15.543312 v 0 c 26.21393,0 47.46454,6.958977 47.46454,15.543312 v 0 c 0,8.58433 -21.25061,15.543305 -47.46454,15.543305 v 0 c -26.21399,0 -47.4646,-6.958975 -47.4646,-15.543305 z"
             inkscape:connector-curvature="0"
             style="fill:#d5a6bd;fill-rule:evenodd" />
          <path
             id="path348"
             d="m 627.91991,84.792655 v 0 c 0,-8.584335 21.25061,-15.543312 47.4646,-15.543312 v 0 c 26.21393,0 47.46454,6.958977 47.46454,15.543312 v 0 c 0,8.58433 -21.25061,15.543305 -47.46454,15.543305 v 0 c -26.21399,0 -47.4646,-6.958975 -47.4646,-15.543305 z"
             inkscape:connector-curvature="0"
             style="fill-rule:evenodd;stroke:#595959;stroke-width:1;stroke-linecap:butt;stroke-linejoin:round" />
          <path
             id="path352"
             d="M 653.24571,92.032855 V 78.67348 h 1.8125 l 7.01562,10.484375 V 78.67348 h 1.6875 v 13.359375 h -1.8125 l -7.01562,-10.5 v 10.5 z m 13.48859,0 V 78.67348 h 5.04687 q 1.32813,0 2.03125,0.125 0.96875,0.171875 1.64063,0.640625 0.67187,0.45313 1.07812,1.28125 0.40625,0.82813 0.40625,1.82813 0,1.70312 -1.09375,2.89062 -1.07812,1.17188 -3.92187,1.17188 h -3.42188 v 5.42187 z m 1.76562,-7 h 3.45313 q 1.71875,0 2.4375,-0.64062 0.71875,-0.64063 0.71875,-1.79688 0,-0.84375 -0.42188,-1.4375 -0.42187,-0.59375 -1.125,-0.78125 -0.4375,-0.125 -1.64062,-0.125 h -3.42188 z m 14.08423,7 V 80.251605 H 678.1779 V 78.67348 h 10.57812 v 1.578125 h -4.40625 v 11.78125 z m 13.50531,0 h -1.64063 v -10.45312 q -0.59375,0.5625 -1.5625,1.14062 -0.95312,0.5625 -1.71875,0.84375 v -1.59375 q 1.375,-0.64062 2.40625,-1.5625 1.03125,-0.92187 1.45313,-1.78125 h 1.0625 z"
             inkscape:connector-curvature="0"
             style="fill:#000000;fill-rule:nonzero" />
          <path
             id="path356"
             d="m 718.89631,84.934385 11.51263,-0.18636"
             inkscape:connector-curvature="0"
             style="fill-rule:evenodd;stroke:#595959;stroke-width:1;stroke-linecap:butt;stroke-linejoin:round" />
          <path
             id="path360"
             d="m 632.43961,84.041995 -21.48029,0.28346"
             inkscape:connector-curvature="0"
             style="fill:#000000;fill-opacity:0;fill-rule:evenodd" />
          <path
             id="path362"
             d="m 632.43961,84.041995 -21.48029,0.28346"
             inkscape:connector-curvature="0"
             style="fill-rule:evenodd;stroke:#595959;stroke-width:1;stroke-linecap:butt;stroke-linejoin:round" />
        </g>
      </g>
      <path
         id="path368"
         d="m 628.84381,97.419945 h 86.45673 v 37.858275 h -86.45673 z"
         inkscape:connector-curvature="0"
         style="fill:#000000;fill-opacity:0;fill-rule:evenodd" />
      <g
         id="g1083"
         transform="translate(2.7933164,0.86352539)">
        <g
           id="g1030">
          <path
             id="path364"
             d="m 624.32416,117.09974 v 0 c 0,-8.58434 21.25061,-15.5433 47.46454,-15.5433 v 0 c 26.21399,0 47.4646,6.95896 47.4646,15.5433 v 0 c 0,8.58433 -21.25061,15.54329 -47.4646,15.54329 v 0 c -26.21393,0 -47.46454,-6.95896 -47.46454,-15.54329 z"
             inkscape:connector-curvature="0"
             style="fill:#d9d2e9;fill-rule:evenodd" />
          <path
             id="path366"
             d="m 624.32416,117.09974 v 0 c 0,-8.58434 21.25061,-15.5433 47.46454,-15.5433 v 0 c 26.21399,0 47.4646,6.95896 47.4646,15.5433 v 0 c 0,8.58433 -21.25061,15.54329 -47.4646,15.54329 v 0 c -26.21393,0 -47.46454,-6.95896 -47.46454,-15.54329 z"
             inkscape:connector-curvature="0"
             style="fill-rule:evenodd;stroke:#595959;stroke-width:1;stroke-linecap:butt;stroke-linejoin:round" />
          <path
             id="path370"
             d="m 640.41731,124.33993 5.125,-13.35937 h 1.90625 l 5.46875,13.35937 h -2.01563 l -1.54687,-4.04687 h -5.59375 l -1.46875,4.04687 z m 3.85937,-5.48437 h 4.53125 l -1.40625,-3.70313 q -0.625,-1.6875 -0.9375,-2.76562 -0.26562,1.28125 -0.71875,2.54687 z m 9.97486,5.48437 v -13.35937 h 5.01562 q 1.53125,0 2.45313,0.40625 0.92187,0.40625 1.4375,1.25 0.53125,0.84375 0.53125,1.76562 0,0.85938 -0.46875,1.625 -0.45313,0.75 -1.39063,1.20313 1.20313,0.35937 1.85938,1.21875 0.65625,0.85937 0.65625,2.01562 0,0.9375 -0.40625,1.75 -0.39063,0.79688 -0.98438,1.23438 -0.57812,0.4375 -1.45312,0.67187 -0.875,0.21875 -2.15625,0.21875 z m 1.78125,-7.75 h 2.875 q 1.1875,0 1.6875,-0.14062 0.67187,-0.20313 1.01562,-0.67188 0.34375,-0.46875 0.34375,-1.17187 0,-0.65625 -0.32812,-1.15625 -0.3125,-0.51563 -0.90625,-0.70313 -0.59375,-0.1875 -2.03125,-0.1875 h -2.65625 z m 0,6.17188 h 3.3125 q 0.85937,0 1.20312,-0.0625 0.60938,-0.10938 1.01563,-0.35938 0.42187,-0.26562 0.6875,-0.75 0.26562,-0.48437 0.26562,-1.125 0,-0.75 -0.39062,-1.29687 -0.375,-0.54688 -1.0625,-0.76563 -0.67188,-0.23437 -1.95313,-0.23437 h -3.07812 z m 20.27167,-3.10938 1.76562,0.45313 q -0.5625,2.17187 -2,3.32812 -1.4375,1.14063 -3.53125,1.14063 -2.15625,0 -3.51562,-0.875 -1.34375,-0.89063 -2.0625,-2.54688 -0.70313,-1.67187 -0.70313,-3.59375 0,-2.07812 0.79688,-3.625 0.79687,-1.5625 2.26562,-2.35937 1.48438,-0.8125 3.25,-0.8125 2,0 3.35938,1.01562 1.375,1.01563 1.90625,2.875 l -1.73438,0.40625 q -0.46875,-1.45312 -1.35937,-2.10937 -0.875,-0.67188 -2.20313,-0.67188 -1.54687,0 -2.57812,0.73438 -1.03125,0.73437 -1.45313,1.98437 -0.42187,1.23438 -0.42187,2.5625 0,1.70313 0.5,2.96875 0.5,1.26563 1.54687,1.90625 1.04688,0.625 2.26563,0.625 1.48437,0 2.51562,-0.85937 1.03125,-0.85938 1.39063,-2.54688 z m 10.19171,-0.54687 v -1.57813 h 5.65625 v 4.95313 q -1.29688,1.04687 -2.6875,1.57812 -1.375,0.51563 -2.84375,0.51563 -1.96875,0 -3.57813,-0.84375 -1.60937,-0.84375 -2.42187,-2.4375 -0.8125,-1.59375 -0.8125,-3.5625 0,-1.95313 0.8125,-3.64063 0.8125,-1.6875 2.34375,-2.5 1.53125,-0.82812 3.51562,-0.82812 1.45313,0 2.625,0.46875 1.17188,0.46875 1.82813,1.3125 0.67187,0.82812 1.01562,2.17187 l -1.59375,0.4375 q -0.29687,-1.01562 -0.75,-1.59375 -0.4375,-0.59375 -1.26562,-0.9375 -0.82813,-0.34375 -1.84375,-0.34375 -1.20313,0 -2.09375,0.375 -0.89063,0.35938 -1.4375,0.96875 -0.53125,0.59375 -0.82813,1.3125 -0.51562,1.23438 -0.51562,2.6875 0,1.78125 0.60937,2.98438 0.625,1.20312 1.79688,1.79687 1.17187,0.57813 2.5,0.57813 1.14062,0 2.23437,-0.4375 1.09375,-0.45313 1.65625,-0.95313 v -2.48437 z m 16.21454,3.65625 v 1.57812 h -8.82813 q -0.0156,-0.59375 0.1875,-1.14062 0.34375,-0.90625 1.07813,-1.78125 0.75,-0.875 2.15625,-2.01563 2.17187,-1.78125 2.9375,-2.82812 0.76562,-1.04688 0.76562,-1.96875 0,-0.98438 -0.70312,-1.64063 -0.6875,-0.67187 -1.8125,-0.67187 -1.1875,0 -1.90625,0.71875 -0.70313,0.70312 -0.70313,1.95312 l -1.6875,-0.17187 q 0.17188,-1.89063 1.29688,-2.875 1.14062,-0.98438 3.03125,-0.98438 1.92187,0 3.04687,1.0625 1.125,1.0625 1.125,2.64063 0,0.79687 -0.32812,1.57812 -0.32813,0.78125 -1.09375,1.64063 -0.75,0.84375 -2.53125,2.34375 -1.46875,1.23437 -1.89063,1.6875 -0.42187,0.4375 -0.6875,0.875 z"
             inkscape:connector-curvature="0"
             style="fill:#000000;fill-rule:nonzero" />
          <path
             id="path372"
             d="m 715.30051,117.24148 17.51178,-0.28346"
             inkscape:connector-curvature="0"
             style="fill:#000000;fill-opacity:0;fill-rule:evenodd" />
          <path
             id="path374"
             d="m 715.30051,117.24148 11.51263,-0.18636"
             inkscape:connector-curvature="0"
             style="fill-rule:evenodd;stroke:#595959;stroke-width:1;stroke-linecap:butt;stroke-linejoin:round" />
          <path
             id="path376"
             d="m 726.83984,118.70663 4.5108,-1.72497 -4.56427,-1.57805 z"
             inkscape:connector-curvature="0"
             style="fill:#595959;fill-rule:evenodd;stroke:#595959;stroke-width:1;stroke-linecap:butt" />
          <path
             id="path378"
             d="m 628.84381,116.34909 -21.51178,0.28345"
             inkscape:connector-curvature="0"
             style="fill:#000000;fill-opacity:0;fill-rule:evenodd" />
          <path
             id="path380"
             d="m 628.84381,116.34909 -21.51178,0.28345"
             inkscape:connector-curvature="0"
             style="fill-rule:evenodd;stroke:#595959;stroke-width:1;stroke-linecap:butt;stroke-linejoin:round" />
        </g>
      </g>
      <path
         id="path386"
         d="m 628.84381,131.98688 h 86.45673 v 37.85826 h -86.45673 z"
         inkscape:connector-curvature="0"
         style="fill:#000000;fill-opacity:0;fill-rule:evenodd" />
      <g
         id="g1040"
         transform="translate(2.7775805,0.21784973)">
        <path
           style="fill:#93c47d;fill-rule:evenodd"
           inkscape:connector-curvature="0"
           d="m 624.32416,151.66666 v 0 c 0,-8.58432 21.25061,-15.5433 47.46454,-15.5433 v 0 c 26.21399,0 47.4646,6.95898 47.4646,15.5433 v 0 c 0,8.58433 -21.25061,15.54332 -47.4646,15.54332 v 0 c -26.21393,0 -47.46454,-6.95898 -47.46454,-15.54332 z"
           id="path382" />
        <path
           style="fill-rule:evenodd;stroke:#595959;stroke-width:1;stroke-linecap:butt;stroke-linejoin:round"
           inkscape:connector-curvature="0"
           d="m 624.32416,151.66666 v 0 c 0,-8.58432 21.25061,-15.5433 47.46454,-15.5433 v 0 c 26.21399,0 47.4646,6.95898 47.4646,15.5433 v 0 c 0,8.58433 -21.25061,15.54332 -47.4646,15.54332 v 0 c -26.21393,0 -47.46454,-6.95898 -47.46454,-15.54332 z"
           id="path384" />
        <path
           style="fill:#000000;fill-rule:nonzero"
           inkscape:connector-curvature="0"
           d="m 640.93661,158.90689 5.125,-13.35938 h 1.90625 l 5.46875,13.35938 h -2.01563 l -1.54687,-4.04688 h -5.59375 l -1.46875,4.04688 z m 3.85937,-5.48438 h 4.53125 l -1.40625,-3.70312 q -0.625,-1.6875 -0.9375,-2.76563 -0.26562,1.28125 -0.71875,2.54688 z m 9.9748,5.48438 v -13.35938 h 5.01562 q 1.53125,0 2.45313,0.40625 0.92187,0.40625 1.4375,1.25 0.53125,0.84375 0.53125,1.76563 0,0.85937 -0.46875,1.625 -0.45313,0.75 -1.39063,1.20312 1.20313,0.35938 1.85938,1.21875 0.65625,0.85938 0.65625,2.01563 0,0.9375 -0.40625,1.75 -0.39063,0.79687 -0.98438,1.23437 -0.57812,0.4375 -1.45312,0.67188 -0.875,0.21875 -2.15625,0.21875 z m 1.78125,-7.75 h 2.875 q 1.1875,0 1.6875,-0.14063 0.67187,-0.20312 1.01562,-0.67187 0.34375,-0.46875 0.34375,-1.17188 0,-0.65625 -0.32812,-1.15625 -0.3125,-0.51562 -0.90625,-0.70312 -0.59375,-0.1875 -2.03125,-0.1875 h -2.65625 z m 0,6.17187 h 3.3125 q 0.85937,0 1.20312,-0.0625 0.60938,-0.10937 1.01563,-0.35937 0.42187,-0.26563 0.6875,-0.75 0.26562,-0.48438 0.26562,-1.125 0,-0.75 -0.39062,-1.29688 -0.375,-0.54687 -1.0625,-0.76562 -0.67188,-0.23438 -1.95313,-0.23438 h -3.07812 z m 20.27173,-3.10937 1.76562,0.45312 q -0.5625,2.17188 -2,3.32813 -1.4375,1.14062 -3.53125,1.14062 -2.15625,0 -3.51562,-0.875 -1.34375,-0.89062 -2.0625,-2.54687 -0.70313,-1.67188 -0.70313,-3.59375 0,-2.07813 0.79688,-3.625 0.79687,-1.5625 2.26562,-2.35938 1.48438,-0.8125 3.25,-0.8125 2,0 3.35938,1.01563 1.375,1.01562 1.90625,2.875 l -1.73438,0.40625 q -0.46875,-1.45313 -1.35937,-2.10938 -0.875,-0.67187 -2.20313,-0.67187 -1.54687,0 -2.57812,0.73437 -1.03125,0.73438 -1.45313,1.98438 -0.42187,1.23437 -0.42187,2.5625 0,1.70312 0.5,2.96875 0.5,1.26562 1.54687,1.90625 1.04688,0.625 2.26563,0.625 1.48437,0 2.51562,-0.85938 1.03125,-0.85937 1.39063,-2.54687 z m 13.4729,0 1.76562,0.45312 q -0.5625,2.17188 -2,3.32813 -1.4375,1.14062 -3.53125,1.14062 -2.15625,0 -3.51562,-0.875 -1.34375,-0.89062 -2.0625,-2.54687 -0.70313,-1.67188 -0.70313,-3.59375 0,-2.07813 0.79688,-3.625 0.79687,-1.5625 2.26562,-2.35938 1.48438,-0.8125 3.25,-0.8125 2,0 3.35938,1.01563 1.375,1.01562 1.90625,2.875 l -1.73438,0.40625 q -0.46875,-1.45313 -1.35937,-2.10938 -0.875,-0.67187 -2.20313,-0.67187 -1.54687,0 -2.57812,0.73437 -1.03125,0.73438 -1.45313,1.98438 -0.42187,1.23437 -0.42187,2.5625 0,1.70312 0.5,2.96875 0.5,1.26562 1.54687,1.90625 1.04688,0.625 2.26563,0.625 1.48437,0 2.51562,-0.85938 1.03125,-0.85937 1.39063,-2.54687 z m 8.53546,4.6875 v -3.20313 h -5.79688 v -1.5 l 6.09375,-8.65625 h 1.34375 v 8.65625 h 1.79688 v 1.5 h -1.79688 v 3.20313 z m 0,-4.70313 v -6.01562 l -4.1875,6.01562 z"
           id="path388" />
        <path
           style="fill:#000000;fill-opacity:0;fill-rule:evenodd"
           inkscape:connector-curvature="0"
           d="m 715.30051,151.8084 17.51178,-0.28346"
           id="path390" />
        <path
           style="fill-rule:evenodd;stroke:#595959;stroke-width:1;stroke-linecap:butt;stroke-linejoin:round"
           inkscape:connector-curvature="0"
           d="m 715.30051,151.8084 11.51263,-0.18637"
           id="path392" />
        <path
           style="fill:#595959;fill-rule:evenodd;stroke:#595959;stroke-width:1;stroke-linecap:butt"
           inkscape:connector-curvature="0"
           d="m 726.83984,153.27357 4.5108,-1.72498 -4.56427,-1.57806 z"
           id="path394" />
        <path
           style="fill:#000000;fill-opacity:0;fill-rule:evenodd"
           inkscape:connector-curvature="0"
           d="m 628.84381,150.916 -21.48029,0.28348"
           id="path396" />
        <path
           style="fill-rule:evenodd;stroke:#595959;stroke-width:1;stroke-linecap:butt;stroke-linejoin:round"
           inkscape:connector-curvature="0"
           d="m 628.84381,150.916 -21.48029,0.28348"
           id="path398" />
      </g>
      <path
         id="path416"
         d="m 716.91205,201.53281 h -86.45666 v 37.85826 h 86.45666 z"
         inkscape:connector-curvature="0"
         style="fill:#000000;fill-opacity:0;fill-rule:evenodd" />
      <g
         id="g1061"
         transform="translate(-2.8090574,-1.4855499)">
        <path
           style="fill:#f9cb9c;fill-rule:evenodd"
           inkscape:connector-curvature="0"
           d="m 721.43176,221.2126 v 0 c 0,-8.58434 -21.25061,-15.54332 -47.46454,-15.54332 v 0 c -26.21399,0 -47.4646,6.95898 -47.4646,15.54332 v 0 c 0,8.58432 21.25061,15.5433 47.4646,15.5433 v 0 c 26.21393,0 47.46454,-6.95898 47.46454,-15.5433 z"
           id="path412" />
        <path
           style="fill-rule:evenodd;stroke:#595959;stroke-width:1;stroke-linecap:butt;stroke-linejoin:round"
           inkscape:connector-curvature="0"
           d="m 721.43176,221.2126 v 0 c 0,-8.58434 -21.25061,-15.54332 -47.46454,-15.54332 v 0 c -26.21399,0 -47.4646,6.95898 -47.4646,15.54332 v 0 c 0,8.58432 21.25061,15.5433 47.4646,15.5433 v 0 c 26.21393,0 47.46454,-6.95898 47.46454,-15.5433 z"
           id="path414" />
        <path
           style="fill:#000000;fill-rule:nonzero"
           inkscape:connector-curvature="0"
           d="m 650.22661,221.9528 q 0,-3.32812 1.78125,-5.20312 1.78125,-1.89063 4.60937,-1.89063 1.84375,0 3.32813,0.89063 1.48437,0.875 2.26562,2.46875 0.78125,1.57812 0.78125,3.57812 0,2.03125 -0.82812,3.64063 -0.8125,1.59375 -2.3125,2.42187 -1.5,0.82813 -3.25,0.82813 -1.875,0 -3.35938,-0.90625 -1.48437,-0.92188 -2.25,-2.5 -0.76562,-1.57813 -0.76562,-3.32813 z m 1.8125,0.0156 q 0,2.42187 1.29687,3.8125 1.29688,1.39062 3.26563,1.39062 2,0 3.28125,-1.40625 1.28125,-1.40625 1.28125,-3.98437 0,-1.625 -0.54688,-2.84375 -0.54687,-1.21875 -1.60937,-1.875 -1.0625,-0.67188 -2.375,-0.67188 -1.89063,0 -3.25,1.29688 -1.34375,1.28125 -1.34375,4.28125 z m 11.76141,6.48437 5.125,-13.35937 h 1.90625 l 5.46875,13.35937 h -2.01562 l -1.54688,-4.04687 h -5.59375 l -1.46875,4.04687 z m 3.85938,-5.48437 h 4.53125 l -1.40625,-3.70313 q -0.625,-1.6875 -0.9375,-2.76562 -0.26563,1.28125 -0.71875,2.54687 z m 13.45923,5.48437 v -11.78125 h -4.40625 V 215.0934 H 687.291 v 1.57812 h -4.40625 v 11.78125 z m 12.58349,0 v -3.20312 h -5.79687 v -1.5 l 6.09375,-8.65625 h 1.34375 v 8.65625 h 1.79687 v 1.5 h -1.79687 v 3.20312 z m 0,-4.70312 v -6.01563 l -4.1875,6.01563 z"
           id="path418" />
        <path
           style="fill:#000000;fill-opacity:0;fill-rule:evenodd"
           inkscape:connector-curvature="0"
           d="m 630.45541,221.35433 -17.51184,-0.28346"
           id="path420" />
        <path
           style="fill-rule:evenodd;stroke:#595959;stroke-width:1;stroke-linecap:butt;stroke-linejoin:round"
           inkscape:connector-curvature="0"
           d="m 630.45541,221.35433 -11.51263,-0.18637"
           id="path422" />
        <path
           style="fill:#595959;fill-rule:evenodd;stroke:#595959;stroke-width:1;stroke-linecap:butt"
           inkscape:connector-curvature="0"
           d="m 618.96954,219.51645 -4.56427,1.57808 4.5108,1.72497 z"
           id="path424" />
        <path
           style="fill:#000000;fill-opacity:0;fill-rule:evenodd"
           inkscape:connector-curvature="0"
           d="m 716.91205,220.46195 21.48035,0.28345"
           id="path426" />
        <path
           style="fill-rule:evenodd;stroke:#595959;stroke-width:1;stroke-linecap:butt;stroke-linejoin:round"
           inkscape:connector-curvature="0"
           d="m 716.91205,220.46195 21.48035,0.28345"
           id="path428" />
      </g>
      <g
         id="g1051"
         transform="translate(1.07229,1.553833)">
        <path
           style="fill:#d0e0e3;fill-rule:evenodd"
           inkscape:connector-curvature="0"
           d="m 624.32416,185.00262 v 0 c 0,-8.58434 21.25061,-15.5433 47.46454,-15.5433 v 0 c 26.21399,0 47.4646,6.95896 47.4646,15.5433 v 0 c 0,8.58432 -21.25061,15.5433 -47.4646,15.5433 v 0 c -26.21393,0 -47.46454,-6.95898 -47.46454,-15.5433 z"
           id="path400" />
        <path
           style="fill-rule:evenodd;stroke:#595959;stroke-width:1;stroke-linecap:butt;stroke-linejoin:round"
           inkscape:connector-curvature="0"
           d="m 624.32416,185.00262 v 0 c 0,-8.58434 21.25061,-15.5433 47.46454,-15.5433 v 0 c 26.21399,0 47.4646,6.95896 47.4646,15.5433 v 0 c 0,8.58432 -21.25061,15.5433 -47.4646,15.5433 v 0 c -26.21393,0 -47.46454,-6.95898 -47.46454,-15.5433 z"
           id="path402" />
        <path
           style="fill:#000000;fill-opacity:0;fill-rule:evenodd"
           inkscape:connector-curvature="0"
           d="m 711.33201,165.32283 h -86.45673 v 37.85826 h 86.45673 z"
           id="path404" />
        <path
           style="fill:#000000;fill-rule:nonzero"
           inkscape:connector-curvature="0"
           d="m 647.72621,178.88345 h 1.76562 v 7.71875 q 0,2.01562 -0.45312,3.20312 -0.45313,1.1875 -1.64063,1.9375 -1.1875,0.73438 -3.125,0.73438 -1.875,0 -3.07812,-0.64063 -1.1875,-0.65625 -1.70313,-1.875 -0.5,-1.23437 -0.5,-3.35937 v -7.71875 h 1.76563 v 7.71875 q 0,1.73437 0.3125,2.5625 0.32812,0.8125 1.10937,1.26562 0.79688,0.45313 1.9375,0.45313 1.95313,0 2.78125,-0.89063 0.82813,-0.89062 0.82813,-3.39062 z m 4.73859,13.35937 v -13.35937 h 5.92187 q 1.78125,0 2.70313,0.35937 0.9375,0.35938 1.48437,1.28125 0.5625,0.90625 0.5625,2.01563 0,1.40625 -0.92187,2.39062 -0.92188,0.96875 -2.84375,1.23438 0.70312,0.34375 1.07812,0.67187 0.76563,0.70313 1.45313,1.76563 l 2.32812,3.64062 h -2.21875 l -1.76562,-2.78125 q -0.78125,-1.20312 -1.28125,-1.82812 -0.5,-0.64063 -0.90625,-0.89063 -0.39063,-0.26562 -0.79688,-0.35937 -0.29687,-0.0781 -0.98437,-0.0781 h -2.04688 v 5.9375 z m 1.76562,-7.45312 h 3.79688 q 1.21875,0 1.89062,-0.25 0.6875,-0.26563 1.04688,-0.8125 0.35937,-0.54688 0.35937,-1.1875 0,-0.95313 -0.6875,-1.5625 -0.6875,-0.60938 -2.1875,-0.60938 h -4.21875 z m 10.20734,7.45312 5.125,-13.35937 h 1.90625 l 5.46875,13.35937 h -2.01563 l -1.54687,-4.04687 h -5.59375 l -1.46875,4.04687 z m 3.85937,-5.48437 h 4.53125 l -1.40625,-3.70313 q -0.625,-1.6875 -0.9375,-2.76562 -0.26562,1.28125 -0.71875,2.54687 z m 13.45917,5.48437 v -11.78125 h -4.40625 v -1.57812 h 10.57812 v 1.57812 h -4.40625 v 11.78125 z m 13.50537,0 h -1.64062 V 181.7897 q -0.59375,0.5625 -1.5625,1.14062 -0.95313,0.5625 -1.71875,0.84375 v -1.59375 q 1.375,-0.64062 2.40625,-1.5625 1.03125,-0.92187 1.45312,-1.78125 h 1.0625 z"
           id="path406" />
        <path
           style="fill:#000000;fill-opacity:0;fill-rule:evenodd"
           inkscape:connector-curvature="0"
           d="m 711.33201,184.25198 21.48029,0.28345"
           id="path408" />
        <path
           style="fill-rule:evenodd;stroke:#595959;stroke-width:0.94661331;stroke-linecap:butt;stroke-linejoin:round"
           inkscape:connector-curvature="0"
           d="m 713.83512,184.24991 18.9712,0.28759"
           id="path410" />
        <path
           style="fill:#000000;fill-opacity:0;fill-rule:evenodd"
           inkscape:connector-curvature="0"
           d="m 628.27821,184.39369 -17.51178,-0.28345"
           id="path558" />
        <path
           style="fill-rule:evenodd;stroke:#595959;stroke-width:1;stroke-linecap:butt;stroke-linejoin:round"
           inkscape:connector-curvature="0"
           d="m 628.27821,184.39369 -11.51263,-0.18634"
           id="path560" />
        <path
           style="fill:#595959;fill-rule:evenodd;stroke:#595959;stroke-width:1;stroke-linecap:butt"
           inkscape:connector-curvature="0"
           d="m 616.79236,182.55583 -4.56427,1.57806 4.5108,1.72496 z"
           id="path562" />
      </g>
    </g>
  </g>
</svg>
